<?xml version="1.0" encoding="utf-8"?>
<!-- Generator: Adobe Illustrator 24.1.2, SVG Export Plug-In . SVG Version: 6.00 Build 0)  -->
<svg version="1.1" id="Слой_1" xmlns="http://www.w3.org/2000/svg" xmlns:xlink="http://www.w3.org/1999/xlink" x="0px" y="0px"
	 viewBox="0 0 103 103" style="enable-background:new 0 0 103 103;" xml:space="preserve">
<style type="text/css">
	.st0{clip-path:url(#SVGID_2_);}
	.st1{fill:#4E5660;}
	.st2{fill:#A3DEFE;}
	.st3{fill:#7ACEFA;}
	.st4{fill:#8EAFE2;}
	.st5{fill:#8EE2CF;}
	.st6{fill:#6FCE91;}
	.st7{fill:#E8899E;}
	.st8{fill:#DE5C6E;}
	.st9{fill:#FFFFFF;}
</style>
<g>
	<defs>
		<rect id="SVGID_1_" y="0" width="103" height="103"/>
	</defs>
	<clipPath id="SVGID_2_">
		<use xlink:href="#SVGID_1_"  style="overflow:visible;"/>
	</clipPath>
	<g class="st0">
		<path class="st1" d="M11,37.5h-6c-2,0-3.5,1.6-3.5,3.5v15.4c0,2,1.6,3.5,3.5,3.5h6V37.5z"/>
		<path class="st2" d="M40.9,27.8l18-13.7c4.5-3.4,10.9-0.2,10.9,5.4v57.8c0,5.6-6.4,8.8-10.9,5.4l-18-13.7c-2.6-2-5.8-3-9-3H15.2
			c-2.3,0-4.2-1.9-4.2-4.2V35.1c0-2.3,1.9-4.2,4.2-4.2h16.7C35.2,30.8,38.3,29.8,40.9,27.8z"/>
		<path class="st3" d="M40.9,68.9l3,2.2c-7.3-11.5-9.8-28.6-9.6-40.5c-0.8,0.1-1.6,0.2-2.4,0.2H15.2c-2.3,0-4.2,1.9-4.2,4.2v26.6
			c0,2.3,1.9,4.2,4.2,4.2h16.7C35.2,65.9,38.3,67,40.9,68.9z"/>
		<path class="st4" d="M59,14.1l-1.6,1.2v66.1l1.6,1.2c4.5,3.4,10.9,0.2,10.9-5.4V19.5C69.9,13.9,63.4,10.7,59,14.1z"/>
		<path class="st5" d="M89.8,72.8c-0.7,0-1.5-0.3-2-0.8c-1.1-1.1-1.1-3,0-4.1c5.1-5.1,7.9-11.9,7.9-19.1c0-7.2-2.8-14-7.9-19.1
			c-1.1-1.1-1.1-3,0-4.1c1.1-1.1,3-1.1,4.1,0c12.8,12.8,12.8,33.7,0,46.5C91.3,72.5,90.6,72.8,89.8,72.8z"/>
		<path class="st6" d="M95.4,53.1c-0.9,5.5-3.5,10.7-7.6,14.7c-1.1,1.1-1.1,3,0,4.1c0.6,0.6,1.3,0.8,2,0.8c0.7,0,1.5-0.3,2-0.8
			c4.1-4.1,6.9-9,8.3-14.2C97.9,57,96.3,55.2,95.4,53.1z"/>
		<path class="st5" d="M80.2,63.2c-0.7,0-1.5-0.3-2-0.8c-1.1-1.1-1.1-3,0-4.1c5.2-5.2,5.2-13.8,0-19c-1.1-1.1-1.1-3,0-4.1
			c1.1-1.1,3-1.1,4.1,0c7.5,7.5,7.5,19.7,0,27.2C81.7,62.9,80.9,63.2,80.2,63.2z"/>
		<path class="st6" d="M82,50.4c-0.4,2.9-1.6,5.6-3.8,7.8c-1.1,1.1-1.1,3,0,4.1c0.6,0.6,1.3,0.8,2,0.8c0.7,0,1.5-0.3,2-0.8
			c2.8-2.8,4.5-6.2,5.2-9.8C85.2,52.6,83.3,51.7,82,50.4z"/>
		<path class="st7" d="M99.8,88L25.3,13.5c-1.5-1.5-3.5-2.3-5.6-2.3h-6.9c-2.2,0-3.3,2.7-1.7,4.2l74.5,74.5c1.5,1.5,3.5,2.3,5.6,2.3
			H98C100.2,92.2,101.3,89.5,99.8,88z"/>
		<path class="st8" d="M49.9,38.1L25.3,13.5c-1.5-1.5-3.5-2.3-5.6-2.3h-6.9c-2.2,0-3.3,2.7-1.7,4.2L52,56.3
			C49.3,50.9,48.1,42.8,49.9,38.1z"/>
		<path class="st9" d="M23.2,58c0-1.8-1.8-3.3-4.1-3.3c-2.3,0-4.1,1.5-4.1,3.3c0,1.8,1.8,3.3,4.1,3.3C21.3,61.2,23.2,59.8,23.2,58z"
			/>
		<path class="st9" d="M45.3,58c0-1.8-1.8-3.3-4.1-3.3c-2.3,0-4.1,1.5-4.1,3.3c0,1.8,1.8,3.3,4.1,3.3C43.5,61.2,45.3,59.8,45.3,58z"
			/>
		<path class="st1" d="M33.5,55.5c0-2-1.5-3.7-3.3-3.7c-1.8,0-3.3,1.7-3.3,3.7c0,2,1.5,3.7,3.3,3.7C32,59.2,33.5,57.5,33.5,55.5z"/>
		<path d="M35,55.5c0-2.9-2.2-5.2-4.8-5.2c-2.6,0-4.8,2.3-4.8,5.2c0,2.9,2.2,5.2,4.8,5.2C32.8,60.7,35,58.3,35,55.5z M28.4,55.5
			c0-1.2,0.8-2.2,1.8-2.2c1,0,1.8,1,1.8,2.2c0,1.2-0.8,2.2-1.8,2.2C29.2,57.7,28.4,56.7,28.4,55.5z M21.3,54.1v-1.8
			c0-0.8-0.7-1.5-1.5-1.5c-0.8,0-1.5,0.7-1.5,1.5v1.8c0,0.8,0.7,1.5,1.5,1.5C20.6,55.6,21.3,55,21.3,54.1z M87.7,73.7
			c0.7,0.4,1.4,0.6,2.2,0.6c1.2,0,2.3-0.5,3.1-1.3c6.5-6.5,10.1-15.1,10.1-24.3s-3.6-17.8-10.1-24.3c-1.7-1.7-4.5-1.7-6.2,0
			c-1.7,1.7-1.7,4.5,0,6.2c4.8,4.8,7.5,11.2,7.5,18.1S91.5,62,86.7,66.8c-1.4,1.4-1.7,3.6-0.7,5.3l-8-8c0.7,0.4,1.4,0.6,2.2,0.6
			c1.2,0,2.3-0.5,3.1-1.3c8.1-8.1,8.1-21.3,0-29.4c-1.7-1.7-4.5-1.7-6.2,0c-1.7,1.7-1.7,4.5,0,6.2c2.3,2.3,3.5,5.3,3.5,8.4
			c0,3.2-1.2,6.2-3.5,8.4c-1.4,1.4-1.7,3.6-0.7,5.3l-5-5V23.7c0-0.8-0.7-1.5-1.5-1.5c-0.8,0-1.5,0.7-1.5,1.5v30.7l-9.5-9.5V16.1
			l1-0.8c1.3-1,2.9-1.3,4.4-0.9c1.6,0.4,2.9,1.5,3.6,2.9c0.4,0.8,1.2,1.1,2,0.7c0.8-0.3,1.1-1.2,0.7-2c-1-2.2-3.1-4-5.6-4.6
			c-2.4-0.6-5-0.1-7,1.5L40.3,26.4l-14-14c-1.8-1.8-4.2-2.8-6.7-2.8h-6.9c-1.6,0-3.1,1-3.7,2.5c-0.6,1.5-0.3,3.2,0.9,4.3l12.9,12.9
			h-7.6c-3.2,0-5.7,2.6-5.7,5.7V36H5.1C2.3,36,0,38.2,0,41v15.4c0,2.8,2.3,5.1,5.1,5.1h4.5v0.2c0,2.6,1.8,4.9,4.4,5.6
			c0.1,0,0.2,0,0.4,0c0.7,0,1.3-0.5,1.5-1.1c0.2-0.8-0.3-1.6-1.1-1.8c-1.2-0.3-2.1-1.4-2.1-2.6V35.1c0-1.5,1.2-2.7,2.7-2.7h10.6
			l30,30v16.1l-14-10.6c-2.8-2.2-6.4-3.4-9.9-3.4H21.3c-0.8,0-1.5,0.7-1.5,1.5s0.7,1.5,1.5,1.5h10.6c2.9,0,5.8,1,8.1,2.7l18,13.7
			c1.5,1.1,3.2,1.7,5,1.7c1.3,0,2.5-0.3,3.7-0.9c2.7-1.3,4.4-3.9,4.6-6.9l13.1,13.1c1.8,1.8,4.2,2.8,6.7,2.8H98c1.6,0,3.1-1,3.7-2.5
			c0.6-1.5,0.3-3.2-0.9-4.3L87.7,73.7z M88.8,68.9c5.4-5.4,8.4-12.6,8.4-20.2c0-7.6-3-14.8-8.4-20.2c-0.5-0.5-0.5-1.4,0-2
			c0.3-0.3,0.6-0.4,1-0.4c0.4,0,0.7,0.1,1,0.4c5.9,5.9,9.2,13.8,9.2,22.2c0,8.4-3.3,16.3-9.2,22.2c-0.3,0.3-0.6,0.4-1,0.4
			c-0.4,0-0.7-0.1-1-0.4C88.3,70.3,88.3,69.5,88.8,68.9z M79.2,59.3c2.8-2.8,4.4-6.6,4.4-10.6s-1.6-7.8-4.4-10.6
			c-0.3-0.3-0.4-0.6-0.4-1c0-0.4,0.1-0.7,0.4-1c0.3-0.3,0.6-0.4,1-0.4c0.4,0,0.7,0.1,1,0.4c6.9,6.9,6.9,18.2,0,25.1
			c-0.3,0.3-0.6,0.4-1,0.4c-0.4,0-0.7-0.1-1-0.4C78.7,60.7,78.7,59.8,79.2,59.3z M9.5,43.3H6.8c-0.8,0-1.5,0.7-1.5,1.5
			s0.7,1.5,1.5,1.5h2.7v4.8H6.8c-0.8,0-1.5,0.7-1.5,1.5c0,0.8,0.7,1.5,1.5,1.5h2.7v4.3H5.1c-1.1,0-2-0.9-2-2V41c0-1.1,0.9-2,2-2h4.5
			V43.3z M55.8,18.4v23.6L42.5,28.5L55.8,18.4z M68.4,77.3c0,2.1-1.1,3.8-2.9,4.7c-1.8,0.9-3.9,0.7-5.5-0.5l-1-0.8V65.3l9.5,9.5
			L68.4,77.3L68.4,77.3z M98.9,90.1c-0.1,0.2-0.3,0.6-0.9,0.6h-6.9c-1.7,0-3.3-0.7-4.5-1.9L70.9,73.1c0,0,0,0,0,0L58.4,60.6
			c0,0,0,0,0,0L12.1,14.3c-0.4-0.4-0.3-0.9-0.2-1c0.1-0.2,0.3-0.6,0.9-0.6h6.9c1.7,0,3.3,0.7,4.5,1.9L98.7,89
			C99.1,89.5,99,89.9,98.9,90.1z M42.1,54.1v-1.8c0-0.8-0.7-1.5-1.5-1.5c-0.8,0-1.5,0.7-1.5,1.5v1.8c0,0.8,0.7,1.5,1.5,1.5
			C41.4,55.6,42.1,55,42.1,54.1z"/>
	</g>
</g>
</svg>
