<svg width="101" height="101" viewBox="0 0 101 101" fill="none" xmlns="http://www.w3.org/2000/svg">
<path d="M10.8196 39.9741H4.95553C3.03604 39.9741 1.47949 41.5299 1.47949 43.4494V58.5472C1.47949 60.4666 3.03604 62.0232 4.95553 62.0232H10.8196V39.9741Z" fill="#4E5660"/>
<path d="M40.1485 30.4984L57.8253 17.0496C62.2076 13.7154 68.5124 16.8408 68.5124 22.3473V78.9903C68.5124 84.4968 62.2076 87.6222 57.8253 84.288L40.1485 70.8392C37.6033 68.9028 34.4933 67.8541 31.2954 67.8541H14.9508C12.6692 67.8541 10.8198 66.0047 10.8198 63.7223V37.6154C10.8198 35.3337 12.6692 33.4836 14.9508 33.4836H31.2954C34.4933 33.4836 37.604 32.4356 40.1485 30.4984Z" fill="#A3DEFE"/>
<path d="M40.1485 70.8391L43.045 73.043C35.9119 61.7549 33.4699 44.9626 33.6356 33.2947C32.865 33.4195 32.0829 33.4835 31.2954 33.4835H14.9508C12.6692 33.4835 10.8198 35.3336 10.8198 37.6153V63.7229C10.8198 66.0046 12.6692 67.8539 14.9508 67.8539H31.2954C34.4933 67.8539 37.604 68.9027 40.1485 70.8391Z" fill="#7ACEFA"/>
<path d="M25.1438 53.1137C25.1438 50.8814 22.8706 49.0713 20.0665 49.0713C17.2632 49.0713 14.99 50.8814 14.99 53.1137C14.99 55.3468 17.2632 57.1569 20.0665 57.1569C22.8706 57.1569 25.1438 55.3468 25.1438 53.1137Z" fill="white"/>
<path d="M52.6601 53.1137C52.6601 50.8814 50.3877 49.0713 47.5836 49.0713C44.7803 49.0713 42.5071 50.8814 42.5071 53.1137C42.5071 55.3468 44.7803 57.1569 47.5836 57.1569C50.3877 57.1569 52.6601 55.3468 52.6601 53.1137Z" fill="white"/>
<path d="M37.9179 50.0076C37.9179 47.4778 36.0855 47.2405 33.8254 47.2405C31.5646 47.2405 29.7322 47.4786 29.7322 50.0076C29.7322 52.5374 31.5646 54.5879 33.8254 54.5879C36.0855 54.5879 37.9179 52.5374 37.9179 50.0076Z" fill="#4E5660"/>
<path d="M57.825 17.0496L56.243 18.2532V83.0843L57.825 84.2879C62.2073 87.6222 68.5121 84.4967 68.5121 78.9902V22.3472C68.5121 16.8407 62.2073 13.7161 57.825 17.0496Z" fill="#8EAFE2"/>
<path d="M88.0869 74.6211C87.3595 74.6211 86.6329 74.3437 86.0781 73.7889C84.9684 72.6792 84.9684 70.88 86.0781 69.7704C91.0922 64.7563 93.8539 58.0893 93.8539 50.9985C93.8539 43.907 91.0922 37.24 86.0781 32.2259C84.9684 31.1163 84.9684 29.317 86.0781 28.2074C87.1877 27.0985 88.9862 27.0985 90.0966 28.2074C102.663 40.7746 102.663 61.2224 90.0966 73.7889C89.541 74.3437 88.8144 74.6211 88.0869 74.6211Z" fill="#EEA849"/>
<path d="M93.5002 55.3406C92.6102 60.7816 90.0527 65.7957 86.0781 69.7703C84.9684 70.8799 84.9684 72.6792 86.0781 73.7888C86.6329 74.3436 87.3603 74.621 88.0869 74.621C88.8144 74.621 89.541 74.3436 90.0966 73.7888C94.0974 69.7872 96.8229 64.9866 98.2762 59.8962C96.03 59.1541 94.4534 57.3456 93.5002 55.3406Z" fill="#E9901B"/>
<path d="M78.6449 65.1794C77.9175 65.1794 77.1909 64.902 76.636 64.3472C75.5264 63.2376 75.5264 61.4383 76.636 60.3287C81.7804 55.1836 81.7804 46.8129 76.636 41.6678C75.5264 40.5582 75.5264 38.7589 76.636 37.6493C77.7457 36.5397 79.5442 36.5405 80.6538 37.6493C88.0143 45.0106 88.0143 56.9867 80.6538 64.3472C80.099 64.902 79.3723 65.1794 78.6449 65.1794Z" fill="#F7EF87"/>
<path d="M80.388 52.6484C80.0366 55.4579 78.7882 58.1757 76.636 60.3287C75.5264 61.4383 75.5264 63.2376 76.636 64.3472C77.1909 64.902 77.9175 65.1794 78.6449 65.1794C79.3723 65.1794 80.099 64.902 80.6538 64.3472C83.3793 61.6209 85.093 58.262 85.8004 54.739C83.5242 54.8322 81.7303 53.9653 80.388 52.6484Z" fill="#EFD176"/>
<path d="M81.7004 36.6029C80.0152 34.9192 77.2735 34.9192 75.5898 36.6036C73.9045 38.2881 73.9045 41.0298 75.5898 42.7143C80.1577 47.2822 80.1577 54.7151 75.5898 59.2823C74.7737 60.0991 74.3237 61.184 74.3237 62.3384C74.3237 63.4919 74.7737 64.5769 75.5898 65.3937C76.4066 66.2097 77.4915 66.6589 78.6451 66.6589C79.7986 66.6589 80.8836 66.2097 81.7004 65.3929C89.6373 57.456 89.6373 44.5405 81.7004 36.6029ZM79.6083 63.3008C79.3509 63.5582 79.0088 63.6999 78.6451 63.6999C78.2814 63.6999 77.9392 63.5582 77.6819 63.3008C77.4245 63.0434 77.2827 62.7021 77.2827 62.3384C77.2827 61.9739 77.4245 61.6325 77.6819 61.3751C83.4033 55.6529 83.4033 46.3436 77.6819 40.6222C77.1509 40.0912 77.1509 39.2267 77.6819 38.6957C77.9477 38.4299 78.296 38.2974 78.6451 38.2974C78.9934 38.2974 79.3424 38.4299 79.6075 38.6957C86.3916 45.4791 86.3916 56.5175 79.6083 63.3008ZM20.9156 49.8197C21.7324 49.8197 22.3951 49.1578 22.3951 48.3402V46.1618C22.3951 45.3442 21.7324 44.6823 20.9156 44.6823C20.098 44.6823 19.4361 45.3442 19.4361 46.1618V48.3402C19.4361 49.1578 20.098 49.8197 20.9156 49.8197ZM65.4691 15.0578C62.6789 13.6746 59.407 13.9874 56.9289 15.8722L39.2528 29.3218C36.9789 31.0517 34.1524 32.0041 31.2951 32.0041H23.4453C22.6278 32.0041 21.9659 32.6668 21.9659 33.4836C21.9659 34.3012 22.6278 34.9631 23.4453 34.9631H31.2951C34.7958 34.9631 38.258 33.7957 41.0444 31.6766L54.7636 21.2385V80.0992L41.0444 69.6618C38.258 67.542 34.7958 66.3746 31.2951 66.3746H14.9506C13.4888 66.3746 12.2991 65.1848 12.2991 63.7223V37.6154C12.2991 36.1529 13.4888 34.9631 14.9506 34.9631H16.3677C17.1852 34.9631 17.8472 34.3012 17.8472 33.4836C17.8472 32.6668 17.1852 32.0041 16.3677 32.0041H14.9506C11.8568 32.0041 9.34007 34.5216 9.34007 37.6154V38.4946H4.95553C2.22309 38.4946 0 40.7169 0 43.4494V58.5471C0 61.2796 2.22309 63.5027 4.95553 63.5027H9.34007V63.7223C9.34007 66.8169 11.8568 69.3336 14.9506 69.3336H31.2951C34.1524 69.3336 36.9789 70.286 39.2528 72.0167L56.9289 85.4655C58.3806 86.5704 60.1052 87.1345 61.8459 87.1345C63.0757 87.1345 64.314 86.8525 65.4691 86.2799C68.2586 84.8975 69.9916 82.1042 69.9916 78.9904V77.074C69.9916 76.2564 69.3289 75.5945 68.5121 75.5945C67.6945 75.5945 67.0326 76.2564 67.0326 77.074V78.9904C67.0326 81.0015 65.9569 82.7353 64.1545 83.6292C62.3522 84.5223 60.3209 84.3281 58.7205 83.1106L57.7226 82.3508V18.9869L58.7205 18.2271C60.3217 17.0096 62.3529 16.8154 64.1545 17.7093C65.9569 18.6024 67.0326 20.3362 67.0326 22.3473V70.0957C67.0326 70.9132 67.6945 71.5752 68.5121 71.5752C69.3289 71.5752 69.9916 70.9132 69.9916 70.0957V22.3473C69.9916 19.2335 68.2586 16.4409 65.4691 15.0578ZM9.34007 45.6756H6.67544C5.85787 45.6756 5.19595 46.3375 5.19595 47.1551C5.19595 47.9719 5.85787 48.6345 6.67544 48.6345H9.34007V53.3628H6.67544C5.85787 53.3628 5.19595 54.0247 5.19595 54.8423C5.19595 55.6591 5.85787 56.3217 6.67544 56.3217H9.34007V60.5437H4.95553C3.85439 60.5437 2.95899 59.6475 2.95899 58.5471V43.4494C2.95899 42.349 3.85439 41.4536 4.95553 41.4536H9.34007V45.6756ZM48.2145 48.3402V46.1618C48.2145 45.3442 47.5518 44.6823 46.735 44.6823C45.9175 44.6823 45.2555 45.3442 45.2555 46.1618V48.3402C45.2555 49.1578 45.9175 49.8197 46.735 49.8197C47.5518 49.8197 48.2145 49.1578 48.2145 48.3402ZM91.1422 27.1619C89.4577 25.4782 86.716 25.4774 85.0316 27.1619C83.3471 28.8463 83.3471 31.588 85.0316 33.2725C89.7659 38.0076 92.3743 44.3024 92.3743 50.9987C92.3743 57.6941 89.7659 63.9897 85.0316 68.7248C83.3471 70.4093 83.3471 73.1502 85.0316 74.8354C85.8484 75.6515 86.9333 76.1007 88.0869 76.1007C89.2404 76.1007 90.3254 75.6515 91.1422 74.8354C104.286 61.6918 104.286 40.3055 91.1422 27.1619ZM89.0501 72.7426C88.7927 73 88.4506 73.1417 88.0869 73.1417C87.7232 73.1417 87.381 73 87.1237 72.7426C86.5927 72.2117 86.5927 71.3479 87.1237 70.8169C92.4175 65.5231 95.3333 58.4847 95.3333 50.9987C95.3333 43.5118 92.4175 36.4734 87.1237 31.1796C86.5927 30.6487 86.5927 29.7849 87.1237 29.254C87.3895 28.9889 87.7386 28.8556 88.0869 28.8556C88.4359 28.8556 88.785 28.9889 89.0501 29.254C101.04 41.244 101.04 60.7533 89.0501 72.7426ZM39.3977 50.0077C39.3977 45.7611 35.4932 45.7611 33.8249 45.7611C32.1574 45.7611 28.2529 45.7611 28.2529 50.0077C28.2529 53.3489 30.7527 56.0675 33.8249 56.0675C36.8979 56.0675 39.3977 53.3489 39.3977 50.0077ZM31.2119 50.0077C31.2119 49.1239 31.2119 48.7201 33.8257 48.7201C36.4387 48.7201 36.4387 49.1239 36.4387 50.0077C36.4387 51.7176 35.2666 53.1085 33.8257 53.1085C32.3839 53.1085 31.2119 51.7176 31.2119 50.0077Z" fill="black"/>
</svg>
