<?xml version="1.0" encoding="utf-8"?>
<!-- Generator: Adobe Illustrator 24.1.2, SVG Export Plug-In . SVG Version: 6.00 Build 0)  -->
<svg version="1.1" id="Слой_1" xmlns="http://www.w3.org/2000/svg" xmlns:xlink="http://www.w3.org/1999/xlink" x="0px" y="0px"
	 viewBox="0 0 103 103" style="enable-background:new 0 0 103 103;" xml:space="preserve">
<style type="text/css">
	.st0{clip-path:url(#SVGID_2_);}
	.st1{fill:#495059;}
	.st2{fill:#41464F;}
	.st3{fill:#7E9BDE;}
	.st4{fill:#5A7CCC;}
	.st5{fill:#F2D073;}
	.st6{fill:#E3A554;}
	.st7{fill:#AAD7EF;}
	.st8{fill:#F8EED1;}
	.st9{fill:#97D1C2;}
	.st10{fill:#F19A87;}
</style>
<g>
	<defs>
		<rect id="SVGID_1_" y="0" width="103" height="103"/>
	</defs>
	<clipPath id="SVGID_2_">
		<use xlink:href="#SVGID_1_"  style="overflow:visible;"/>
	</clipPath>
	<g class="st0">
		<path class="st1" d="M85.5,87.5l-36.8,13.4c-5.2,1.9-10.9-0.8-12.8-6L11.6,28.3c-1.9-5.2,0.8-10.9,6-12.8L54.4,2.1
			c5.2-1.9,10.9,0.8,12.8,6l24.2,66.6C93.3,79.9,90.6,85.6,85.5,87.5z"/>
		<path class="st2" d="M48.7,100.9l23.9-8.7C37,77.4,29.7,34.8,25.9,12.5l-8.3,3c-5.2,1.9-7.9,7.6-6,12.8l24.2,66.6
			C37.8,100.1,43.5,102.8,48.7,100.9z"/>
		<path class="st3" d="M55.9,8.3l-8.2,3c-0.8,0.3-1.3,1-1.4,1.9l-0.1,2.4c0,1-0.7,1.9-1.6,2.2l-9.3,3.4c-0.9,0.3-2,0.1-2.7-0.6
			l-1.6-1.7c-0.6-0.6-1.5-0.8-2.3-0.5l-8.2,3c-2.3,0.8-3.5,3.4-2.6,5.7l23.8,65.3c0.8,2.3,3.4,3.5,5.7,2.6l35.5-12.9
			c2.3-0.8,3.5-3.4,2.6-5.7L61.5,10.9C60.7,8.6,58.2,7.4,55.9,8.3z"/>
		<path class="st4" d="M47.2,94.7l17.7-6.4C38.6,72.6,30.9,40.1,27,18.8l-6.6,2.4c-2.3,0.8-3.5,3.4-2.6,5.7l23.8,65.3
			C42.4,94.4,44.9,95.6,47.2,94.7z"/>
		<path class="st5" d="M45.8,71.2l-3.5,1.3c-1.2,0.4-2.4-0.2-2.8-1.3l-1.3-3.5c-0.4-1.2,0.2-2.4,1.3-2.8l3.5-1.3
			c1.2-0.4,2.4,0.2,2.8,1.3l1.3,3.5C47.5,69.5,46.9,70.8,45.8,71.2z"/>
		<path class="st6" d="M46.2,70.9c-1.6-2.2-3.1-4.6-4.5-7l-2.3,0.8c-1.2,0.4-1.7,1.7-1.3,2.8l1.3,3.5c0.4,1.2,1.7,1.7,2.8,1.3
			l3.5-1.3C45.9,71.1,46.1,71,46.2,70.9z"/>
		<path class="st7" d="M58.9,66.4l-3.5,1.3c-1.2,0.4-2.4-0.2-2.8-1.3l-1.3-3.5c-0.4-1.2,0.2-2.4,1.3-2.8l3.5-1.3
			c1.2-0.4,2.4,0.2,2.8,1.3l1.3,3.5C60.7,64.7,60.1,66,58.9,66.4z"/>
		<path class="st8" d="M72.1,61.6l-3.5,1.3c-1.2,0.4-2.4-0.2-2.8-1.3l-1.3-3.5c-0.4-1.2,0.2-2.4,1.3-2.8l3.5-1.3
			c1.2-0.4,2.4,0.2,2.8,1.3l1.3,3.5C73.8,59.9,73.2,61.2,72.1,61.6z"/>
		<path class="st9" d="M50.5,84.2L47,85.5c-1.2,0.4-2.4-0.2-2.8-1.3l-1.3-3.5c-0.4-1.2,0.2-2.4,1.3-2.8l3.5-1.3
			c1.2-0.4,2.4,0.2,2.8,1.3l1.3,3.5C52.2,82.5,51.6,83.8,50.5,84.2z"/>
		<path class="st10" d="M63.6,79.4l-3.5,1.3c-1.2,0.4-2.4-0.2-2.8-1.3l-1.3-3.5c-0.4-1.2,0.2-2.4,1.3-2.8l3.5-1.3
			c1.2-0.4,2.4,0.2,2.8,1.3l1.3,3.5C65.4,77.7,64.8,79,63.6,79.4z"/>
		<path class="st9" d="M76.8,74.6l-3.5,1.3c-1.2,0.4-2.4-0.2-2.8-1.3l-1.3-3.5c-0.4-1.2,0.2-2.4,1.3-2.8L74,67
			c1.2-0.4,2.4,0.2,2.8,1.3l1.3,3.5C78.6,72.9,78,74.2,76.8,74.6z"/>
		<path class="st10" d="M39.6,46.7c-0.8-2.3-3.9-3.3-6.8-2.3c-2.9,1.1-4.6,3.8-3.7,6.1c0.8,2.3,3.9,3.3,6.8,2.3
			C38.8,51.8,40.4,49.1,39.6,46.7z"/>
		<path class="st10" d="M57.6,40.2c0.8,2.3,3.9,3.3,6.8,2.3c2.9-1.1,4.6-3.8,3.7-6.1c-0.8-2.3-3.9-3.3-6.8-2.3
			C58.4,35.1,56.8,37.9,57.6,40.2z"/>
		<path d="M65.1,72.6c-0.7-1.9-2.9-2.9-4.8-2.2l-3.5,1.3c-1.9,0.7-2.9,2.8-2.2,4.8l1.3,3.5c0.6,1.5,2,2.5,3.5,2.5
			c0.4,0,0.9-0.1,1.3-0.2l3.5-1.3c0.9-0.3,1.7-1,2.1-1.9c0.4-0.9,0.5-1.9,0.1-2.9L65.1,72.6z M63.5,77.6c0,0.1-0.2,0.3-0.4,0.4
			c0,0,0,0,0,0l-3.5,1.3c-0.4,0.1-0.8-0.1-0.9-0.4l-1.3-3.5c-0.1-0.2,0-0.4,0-0.5c0-0.1,0.2-0.3,0.4-0.4l3.5-1.3c0.1,0,0.2,0,0.2,0
			c0.1,0,0.2,0,0.3,0.1c0.1,0,0.3,0.2,0.4,0.4l1.3,3.5C63.6,77.3,63.6,77.5,63.5,77.6z M73.5,65.6L70,66.8c-0.9,0.3-1.7,1-2.1,1.9
			c-0.4,0.9-0.5,1.9-0.1,2.9l1.3,3.5c0.6,1.5,2,2.5,3.5,2.5c0.4,0,0.9-0.1,1.3-0.2l3.5-1.3c1.9-0.7,2.9-2.8,2.2-4.8l-1.3-3.5
			c-0.3-0.9-1-1.7-1.9-2.1C75.5,65.3,74.4,65.2,73.5,65.6z M75.5,68.8l1.3,3.5c0.1,0.4-0.1,0.8-0.4,0.9l-3.5,1.3
			c-0.4,0.1-0.8-0.1-0.9-0.4l-1.3-3.5c-0.1-0.2,0-0.4,0-0.5c0-0.1,0.2-0.3,0.4-0.4l3.5-1.3c0.1,0,0.2,0,0.2,0c0.1,0,0.2,0,0.3,0.1
			C75.2,68.5,75.4,68.6,75.5,68.8z M84.3,39.6c0.8,2.2,1.1,4.5,0.8,6.8c-0.1,0.8,0.5,1.6,1.3,1.7c0.1,0,0.1,0,0.2,0
			c0.7,0,1.4-0.6,1.5-1.3c0.4-2.8,0-5.6-0.9-8.3c-1-2.6-2.6-5-4.6-6.9c-0.6-0.6-1.6-0.5-2.1,0.1c-0.6,0.6-0.5,1.6,0.1,2.1
			C82.2,35.4,83.5,37.4,84.3,39.6z M52,77.4c-0.7-1.9-2.9-2.9-4.8-2.2l-3.5,1.3c-1.9,0.7-2.9,2.8-2.2,4.8l1.3,3.5
			c0.3,0.9,1,1.7,1.9,2.1c0.5,0.2,1,0.4,1.6,0.4c0.4,0,0.9-0.1,1.3-0.2l3.5-1.3c1.9-0.7,2.9-2.8,2.2-4.8L52,77.4z M50.4,82.4
			c0,0.1-0.2,0.3-0.4,0.4L46.5,84c-0.2,0.1-0.4,0-0.5,0c-0.1,0-0.3-0.2-0.4-0.4l-1.3-3.5c-0.1-0.4,0.1-0.8,0.4-0.9l3.5-1.3
			c0.1,0,0.2,0,0.2,0c0.3,0,0.6,0.2,0.7,0.5l1.3,3.5C50.5,82.1,50.4,82.3,50.4,82.4z M18.8,63.4c-0.8-2.2-1.1-4.5-0.8-6.8
			c0.1-0.8-0.5-1.6-1.3-1.7c-0.8-0.1-1.6,0.5-1.7,1.3c-0.4,2.8,0,5.6,0.9,8.3c1,2.6,2.6,5,4.6,6.9c0.3,0.3,0.7,0.4,1,0.4
			c0.4,0,0.8-0.2,1.1-0.5c0.6-0.6,0.5-1.6-0.1-2.1C20.9,67.6,19.6,65.6,18.8,63.4z M35.7,90.1L13,27.8c-0.8-2.1-0.7-4.4,0.3-6.5
			c1-2.1,2.7-3.6,4.8-4.4L54.9,3.5c2.1-0.8,4.4-0.7,6.5,0.3c2.1,1,3.6,2.7,4.4,4.8l0.9,2.4c0.3,0.8,1.2,1.2,1.9,0.9
			c0.8-0.3,1.2-1.2,0.9-1.9l-0.9-2.4c-1-2.9-3.2-5.2-5.9-6.5c-2.8-1.3-5.9-1.4-8.8-0.4L17.1,14.1c-2.9,1-5.2,3.2-6.5,5.9
			c-1.3,2.8-1.4,5.9-0.4,8.8l22.7,62.3c0.2,0.6,0.8,1,1.4,1c0.2,0,0.3,0,0.5-0.1C35.6,91.8,36,90.9,35.7,90.1z M12.9,65.6
			c-1.3-3.5-1.7-7.2-1.2-10.9c0.1-0.8-0.5-1.6-1.3-1.7c-0.8-0.1-1.6,0.5-1.7,1.3c-0.5,4.1-0.1,8.4,1.4,12.4
			c1.4,3.9,3.8,7.5,6.9,10.4c0.3,0.3,0.7,0.4,1,0.4c0.4,0,0.8-0.2,1.1-0.5c0.6-0.6,0.5-1.6-0.1-2.1C16.2,72.2,14.2,69.1,12.9,65.6z
			 M93,36.4c-1.4-3.9-3.8-7.5-6.9-10.4c-0.6-0.6-1.6-0.5-2.1,0.1c-0.6,0.6-0.5,1.6,0.1,2.1c2.8,2.5,4.8,5.6,6.1,9.2
			c1.3,3.5,1.7,7.2,1.2,10.9c-0.1,0.8,0.5,1.6,1.3,1.7c0.1,0,0.1,0,0.2,0c0.7,0,1.4-0.6,1.5-1.3C94.9,44.6,94.5,40.3,93,36.4z
			 M33.6,19.4L32,17.7c-1-1.1-2.5-1.4-3.9-0.9l-8.2,3c-3.1,1.1-4.7,4.5-3.5,7.6l23.8,65.3c0.5,1.5,1.6,2.7,3.1,3.3
			c0.8,0.4,1.6,0.6,2.5,0.6c0.7,0,1.4-0.1,2-0.4l35.5-12.9c3.1-1.1,4.7-4.5,3.5-7.6L62.9,10.4c-0.5-1.5-1.6-2.7-3.1-3.3
			c-1.4-0.7-3-0.7-4.5-0.2l-8.2,3c-1.4,0.5-2.3,1.8-2.4,3.2l-0.1,2.4c0,0.4-0.3,0.7-0.6,0.9l-9.3,3.4C34.3,19.8,33.9,19.7,33.6,19.4
			z M45,19.1c1.5-0.6,2.5-1.9,2.6-3.6l0.1-2.4c0-0.2,0.2-0.4,0.4-0.5l8.2-3c0.7-0.3,1.5-0.2,2.2,0.1c0.7,0.3,1.2,0.9,1.5,1.6
			l23.8,65.3c0.5,1.5-0.2,3.2-1.7,3.7L46.7,93.3c-0.7,0.3-1.5,0.2-2.2-0.1c-0.7-0.3-1.2-0.9-1.5-1.6L19.2,26.3
			c-0.5-1.5,0.2-3.2,1.7-3.7l8.2-3c0.1,0,0.1,0,0.2,0c0.2,0,0.3,0.1,0.4,0.2l1.6,1.7c1.1,1.2,2.8,1.6,4.3,1L45,19.1z M38.8,16.6
			c0.7-0.3,1.1-1.1,0.8-1.8c-0.3-0.7-1.1-1.1-1.8-0.9c-0.7,0.3-1.1,1.1-0.9,1.8C37.3,16.5,38.1,16.8,38.8,16.6z M33.8,42l0.7,1.9
			c0.2,0.6,0.8,1,1.4,1c0.2,0,0.3,0,0.5-0.1c0.8-0.3,1.2-1.2,0.9-1.9L36.6,41c-0.3-0.8-1.2-1.2-1.9-0.9C33.9,40.4,33.5,41.2,33.8,42
			z M71.9,16.6c-0.3-0.8-1.2-1.2-1.9-0.9c-0.8,0.3-1.2,1.2-0.9,1.9l21,57.6c0.8,2.1,0.7,4.4-0.3,6.5c-1,2.1-2.7,3.6-4.8,4.4
			L48.2,99.5c-3.7,1.3-7.7,0-9.9-3.2c-0.5-0.7-1.4-0.9-2.1-0.4c-0.7,0.5-0.9,1.4-0.4,2.1c2.2,3.2,5.8,5,9.5,5c1.3,0,2.6-0.2,3.9-0.7
			L86,88.9c2.9-1,5.2-3.2,6.5-5.9c1.3-2.8,1.4-5.9,0.4-8.8L71.9,16.6z M43.4,41.8c0.9,0.5,1.8,0.7,2.7,0.7c0.7,0,1.3-0.1,1.9-0.3
			c1.5-0.6,2.8-1.8,3.4-3.3c0.3-0.8-0.1-1.7-0.9-1.9c-0.8-0.3-1.7,0.1-2,0.9c-0.3,0.7-0.8,1.3-1.6,1.5c-0.7,0.3-1.5,0.2-2.2-0.2
			c-0.7-0.4-1.6-0.1-2.1,0.6C42.4,40.4,42.7,41.4,43.4,41.8z M49.9,63.4l1.3,3.5c0.6,1.5,2,2.5,3.5,2.5c0.4,0,0.9-0.1,1.3-0.2
			l3.5-1.3c0.9-0.3,1.7-1,2.1-1.9C62,65,62,64,61.7,63l-1.3-3.5c-0.7-1.9-2.8-2.9-4.8-2.2l-3.5,1.3C50.2,59.3,49.2,61.4,49.9,63.4z
			 M53.2,61.4l3.5-1.3c0.1,0,0.2,0,0.2,0c0.1,0,0.2,0,0.3,0.1c0.1,0,0.3,0.2,0.4,0.4l1.3,3.5c0.1,0.2,0,0.4,0,0.5
			c0,0.1-0.2,0.3-0.4,0.4l-3.5,1.3c-0.4,0.1-0.8-0.1-0.9-0.4l-1.3-3.5C52.6,62,52.8,61.6,53.2,61.4z M56.9,35.7c0.2,0.6,0.8,1,1.4,1
			c0.2,0,0.3,0,0.5-0.1c0.8-0.3,1.2-1.2,0.9-1.9L59,32.8c-0.3-0.8-1.2-1.2-1.9-0.9c-0.8,0.3-1.2,1.2-0.9,1.9L56.9,35.7z M36.8,68.2
			l1.3,3.5c0.6,1.5,2,2.5,3.5,2.5c0.4,0,0.9-0.1,1.3-0.2l3.5-1.3c0.9-0.3,1.7-1,2.1-1.9s0.5-1.9,0.1-2.9l-1.3-3.5
			c-0.7-1.9-2.9-2.9-4.8-2.2L39,63.4C37.1,64.1,36.1,66.2,36.8,68.2z M39.6,66.6c0-0.1,0.2-0.3,0.4-0.4l3.5-1.3c0.1,0,0.2,0,0.2,0
			c0.3,0,0.6,0.2,0.7,0.5l1.3,3.5c0.1,0.2,0,0.4,0,0.5c0,0.1-0.2,0.3-0.4,0.4L41.8,71c-0.4,0.1-0.8-0.1-0.9-0.4l-1.3-3.5
			C39.5,66.9,39.6,66.7,39.6,66.6z M64.3,62c0.3,0.9,1,1.7,1.9,2.1c0.5,0.2,1,0.4,1.6,0.4c0.4,0,0.9-0.1,1.3-0.2l3.5-1.3h0
			c1.9-0.7,2.9-2.8,2.2-4.8l-1.3-3.5c-0.3-0.9-1-1.7-1.9-2.1c-0.9-0.4-1.9-0.5-2.9-0.1l-3.5,1.3c-0.9,0.3-1.7,1-2.1,1.9
			c-0.4,0.9-0.5,1.9-0.1,2.9L64.3,62z M65.9,57c0-0.1,0.2-0.3,0.4-0.4l3.5-1.3c0.1,0,0.2,0,0.2,0c0.1,0,0.2,0,0.3,0.1
			c0.1,0,0.3,0.2,0.4,0.4l1.3,3.5c0.1,0.4-0.1,0.8-0.4,0.9l-3.5,1.3c-0.2,0.1-0.4,0-0.5,0c-0.1,0-0.3-0.2-0.4-0.4l-1.3-3.5
			C65.8,57.3,65.9,57.1,65.9,57z"/>
	</g>
</g>
</svg>
