<?xml version="1.0" encoding="utf-8"?>
<!-- Generator: Adobe Illustrator 24.1.2, SVG Export Plug-In . SVG Version: 6.00 Build 0)  -->
<svg version="1.1" id="Слой_1" xmlns="http://www.w3.org/2000/svg" xmlns:xlink="http://www.w3.org/1999/xlink" x="0px" y="0px"
	 viewBox="0 0 96 96" style="enable-background:new 0 0 96 96;" xml:space="preserve">
<style type="text/css">
	.st0{clip-path:url(#SVGID_2_);}
	.st1{fill:#87D646;}
</style>
<g>
	<defs>
		<rect id="SVGID_1_" y="0" width="96" height="96"/>
	</defs>
	<clipPath id="SVGID_2_">
		<use xlink:href="#SVGID_1_"  style="overflow:visible;"/>
	</clipPath>
	<g class="st0">
		<path class="st1" d="M10.4,56.3c4.6,0,8.3-3.7,8.3-8.3c0-4.6-3.7-8.3-8.3-8.3c-4.6,0-8.3,3.7-8.3,8.3C2.1,52.6,5.8,56.3,10.4,56.3
			z"/>
		<path d="M10.4,58.4C4.7,58.4,0,53.8,0,48s4.7-10.4,10.4-10.4c5.8,0,10.4,4.7,10.4,10.4S16.2,58.4,10.4,58.4z M10.4,41.7
			c-3.5,0-6.3,2.8-6.3,6.3c0,3.5,2.8,6.3,6.3,6.3c3.5,0,6.3-2.8,6.3-6.3C16.7,44.5,13.9,41.7,10.4,41.7z"/>
		<path class="st1" d="M48,56.3c4.6,0,8.3-3.7,8.3-8.3c0-4.6-3.7-8.3-8.3-8.3c-4.6,0-8.3,3.7-8.3,8.3C39.7,52.6,43.4,56.3,48,56.3z"
			/>
		<path d="M48,58.4c-5.8,0-10.4-4.7-10.4-10.4S42.2,37.6,48,37.6S58.4,42.2,58.4,48S53.8,58.4,48,58.4z M48,41.7
			c-3.5,0-6.3,2.8-6.3,6.3c0,3.5,2.8,6.3,6.3,6.3c3.5,0,6.3-2.8,6.3-6.3C54.3,44.5,51.5,41.7,48,41.7z"/>
		<path class="st1" d="M85.6,56.3c4.6,0,8.3-3.7,8.3-8.3c0-4.6-3.7-8.3-8.3-8.3c-4.6,0-8.3,3.7-8.3,8.3C77.2,52.6,81,56.3,85.6,56.3
			z"/>
		<path d="M85.6,58.4c-5.8,0-10.4-4.7-10.4-10.4s4.7-10.4,10.4-10.4C91.3,37.6,96,42.2,96,48S91.3,58.4,85.6,58.4z M85.6,41.7
			c-3.5,0-6.3,2.8-6.3,6.3c0,3.5,2.8,6.3,6.3,6.3c3.5,0,6.3-2.8,6.3-6.3C91.8,44.5,89,41.7,85.6,41.7z"/>
	</g>
</g>
</svg>
