<svg width="96" height="96" viewBox="0 0 96 96" fill="none" xmlns="http://www.w3.org/2000/svg">
<path d="M32.6301 83.8557H34.5249V74.2969C34.5249 72.7266 35.7985 71.4529 37.3689 71.4529C38.9392 71.4529 40.2121 72.7266 40.2121 74.2969V83.8557H46.4677C49.9174 83.8557 52.7233 86.6624 52.7233 90.1113C52.7233 91.6817 51.4504 92.9553 49.8801 92.9553C48.309 92.9553 47.0361 91.6817 47.0361 90.1113C47.0361 89.7979 46.7812 89.543 46.4677 89.543H32.6301C32.3166 89.543 32.061 89.7979 32.061 90.1113C32.061 91.6817 30.788 92.9553 29.2177 92.9553C27.6474 92.9553 26.3737 91.6817 26.3737 90.1113C26.3745 86.6624 29.1804 83.8557 32.6301 83.8557Z" fill="#50E0E0"/>
<path d="M4.90285 91.021L21.2 69.5984C23.083 72.2029 24.1663 75.4241 24.0886 78.9038C23.9085 87.0505 17.2566 93.6899 9.10914 93.8562C7.99953 93.8789 6.91481 93.7837 5.86891 93.5816C4.69923 93.3552 4.18141 91.9695 4.90285 91.021Z" fill="#4A5660"/>
<path d="M21.2 69.5984L4.90285 91.021C4.18141 91.9695 4.69923 93.3552 5.86891 93.5816C6.68336 93.7383 7.52052 93.8306 8.37453 93.8533L23.4229 74.0713C22.927 72.4497 22.1712 70.9417 21.2 69.5984Z" fill="#3D4851"/>
<path d="M37.3688 71.4536C35.7985 71.4536 34.5248 72.7266 34.5248 74.2969V81.8569H36.3713C37.6655 81.8569 38.9472 81.772 40.2121 81.616V74.2969C40.2121 72.7266 38.9391 71.4536 37.3688 71.4536Z" fill="#00BCB9"/>
<path d="M62.0844 14.7561C61.0188 12.4585 59.5591 10.3821 57.791 8.61548C53.9143 4.73877 48.5603 2.34082 42.6438 2.34082C30.8152 2.34082 21.2226 11.9312 21.2226 23.762V58.2642H13.7673C13.7673 69.2227 22.6501 78.1062 33.6093 78.1062H36.3713C47.592 78.1062 57.2527 71.4331 61.6047 61.8413L62.0844 14.7561Z" fill="#3D4851"/>
<path d="M26.8491 23.762C26.8491 12.8848 34.957 3.90234 45.4577 2.52466C44.5371 2.40381 43.5981 2.34082 42.6445 2.34082C30.8152 2.34082 21.2226 11.9312 21.2226 23.762V58.2642H26.8491V23.762Z" fill="#333A41"/>
<path d="M19.393 58.2642H13.7673C13.7673 69.2227 22.6501 78.1062 33.6093 78.1062H36.3713C36.8833 78.1062 37.3901 78.0872 37.8955 78.0601C27.5617 77.3709 19.393 68.773 19.393 58.2642Z" fill="#333A41"/>
<path d="M36.5888 29.0757C37.1828 35.1687 41.0273 38.7781 45.6071 42.293C52.5908 47.6499 61.1235 52.1616 61.6047 61.8413C63.186 58.3564 64.0656 54.4856 64.0656 50.4097V23.762C64.0656 20.5452 63.3567 17.4932 62.0844 14.7561C59.4133 12.7537 56.0962 11.5671 52.5014 11.5671C43.1865 11.5671 35.6909 19.8684 36.5888 29.0757Z" fill="#E8E8E8"/>
<path d="M84.772 23.6521C78.8174 18.1794 70.7234 14.7561 62.0845 14.7561C63.1824 24.6365 58.0298 27.6768 56.7729 32.4258L63.3069 37.032L75.1875 38.907L84.772 23.6521Z" fill="#FF8F71"/>
<path d="M75.1875 34.4729V38.907L83.5283 40.2224L93.739 44.7436C94.1689 44.8938 94.6164 44.562 94.6011 44.1072C94.311 36.1978 90.55 28.96 84.772 23.6521C79.3711 24.301 75.1875 28.8977 75.1875 34.4729Z" fill="#4A5660"/>
<path d="M56.4997 34.4121C56.4521 39.0432 60.4101 42.7119 65.0361 42.5164C83.1035 41.7546 91.2458 43.8831 93.739 44.7436C79.5908 29.8037 56.7729 32.4258 56.7729 32.4258C56.6059 33.0513 56.5071 33.7068 56.4997 34.4121Z" fill="#F75747"/>
<path d="M47.9391 29.4382H51.2972C52.0743 29.4382 52.7035 28.8083 52.7035 28.032C52.7035 27.2549 52.0743 26.625 51.2972 26.625H47.9391C47.1627 26.625 46.5328 27.2549 46.5328 28.032C46.5328 28.8083 47.1627 29.4382 47.9391 29.4382Z" fill="#FF8997"/>
<path d="M1.74612 68.6162L18.9763 44.039C22.3909 39.1684 28.8955 37.601 34.1543 40.3806C40.6502 43.8149 42.4834 52.3029 37.9395 58.0774C31.6883 66.0212 20.6807 74.466 3.01101 71.6008C1.61721 71.3752 0.935329 69.7727 1.74612 68.6162Z" fill="#4A5660"/>
<path d="M8.63675 71.6009C7.24295 71.3753 6.56106 69.7728 7.37185 68.6163L24.6021 44.0391C26.2991 41.6185 28.76 40.0145 31.4524 39.3538C26.8213 38.2149 21.824 39.9771 18.9763 44.0391L1.74612 68.6163C0.935329 69.7728 1.61721 71.3753 3.01101 71.6009C6.47244 72.1627 9.67678 72.2879 12.6416 72.0696C11.346 71.9781 10.0115 71.8243 8.63675 71.6009Z" fill="#3D4851"/>
<path d="M52.9123 20.8081V23.4631C52.9123 24.2402 52.2824 24.8694 51.5053 24.8694C50.7289 24.8694 50.0991 24.2402 50.0991 23.4631V20.8081C50.0991 20.031 50.7289 19.4019 51.5053 19.4019C52.2824 19.4019 52.9123 20.031 52.9123 20.8081Z" fill="black"/>
<path d="M93.2718 46.0767C94.6092 46.5366 96.0506 45.4797 95.9986 44.0632C95.7049 36.0557 92.053 28.4421 85.7161 22.6201C79.5264 16.9314 71.2771 13.5872 62.9583 13.3652C61.8728 11.2441 60.4703 9.31567 58.7762 7.62378C54.4651 3.31201 48.7325 0.9375 42.6358 0.9375C30.0484 0.9375 19.8077 11.1782 19.8077 23.7656V40.9893C19.073 41.6484 18.4029 42.3977 17.8162 43.2349L8.6895 56.2529C8.24345 56.8887 8.39799 57.7654 9.03373 58.2114C9.67021 58.6575 10.5469 58.5037 10.993 57.8672L20.1197 44.8498C24.085 39.1926 32.7759 39.0469 36.9346 44.5576C39.7339 48.2666 39.701 53.5576 36.8255 57.2102C32.3409 62.9099 26.2786 67.4546 19.2627 69.4783C14.3306 70.8948 8.95829 71.1453 3.22782 70.2158C2.86601 70.1572 2.67411 69.7331 2.88945 69.427L7.79887 62.4236C8.24492 61.7878 8.09037 60.9104 7.45463 60.4651C6.81816 60.019 5.94145 60.1728 5.4954 60.8093L0.585979 67.812C-0.797566 69.7851 0.404338 72.6079 2.77738 72.9924C5.26835 73.396 7.63481 73.582 9.87455 73.5828C12.3619 73.5828 14.6961 73.3528 16.886 72.9382L3.77494 90.1721C2.44633 91.9197 3.4351 94.5461 5.59428 94.9651C10.9908 96.0124 16.6839 94.2517 20.5723 90.3706C23.6455 87.3025 25.3916 83.2419 25.4869 78.9375C25.4942 78.5925 25.4905 78.2468 25.4766 77.9011C27.8746 78.8935 30.4578 79.448 33.1106 79.5088V82.4524H32.6221C28.3968 82.4524 24.9595 85.8896 24.9595 90.115C24.9595 92.458 26.866 94.3645 29.2098 94.3645C31.2664 94.3645 32.9869 92.896 33.3765 90.9529H45.7046C46.095 92.8967 47.8155 94.3645 49.8721 94.3645C52.2151 94.3645 54.1224 92.458 54.1224 90.115C54.1224 85.8896 50.6851 82.4524 46.4598 82.4524H41.6111V79.0474C46.2635 78.2065 50.617 76.2422 54.4065 73.2429C55.0159 72.761 55.1185 71.8762 54.6365 71.2668C54.1546 70.6575 53.2698 70.5549 52.6612 71.0369C48.972 73.9563 44.6917 75.791 40.1192 76.4385C37.9585 76.7476 35.7576 76.7029 33.6014 76.7029C30.1172 76.7029 26.7532 75.7214 23.8623 73.9204C22.8919 73.3184 21.9851 72.6204 21.1429 71.8491C21.7911 71.6389 23.7173 70.9006 24.0198 70.771C30.1451 68.1438 36.3128 63.4812 39.8724 57.7588C44.2332 50.7502 40.8318 41.168 33.0894 38.3848C29.6456 37.1462 25.856 37.3975 22.6216 39.052V23.7656C22.6216 12.7288 31.6004 3.75 42.6365 3.75C47.9817 3.75 53.0076 5.83227 56.7884 9.61304C57.2622 10.0862 57.7098 10.5798 58.1309 11.094C56.324 10.4744 54.4036 10.1638 52.4942 10.1638C42.5047 10.1638 34.2122 19.2605 35.1819 29.2156C35.9385 36.9873 42.1685 41.595 48.0264 45.8357C51.7098 48.5024 55.6604 51.2021 58.0789 55.1572C59.2669 57.1011 60.0066 59.3086 60.1685 61.5835C59.1995 63.6431 57.9595 65.5774 56.4771 67.3367C55.9768 67.9307 56.053 68.8184 56.647 69.3186C57.241 69.8188 58.1287 69.7427 58.6289 69.1487C60.3531 67.1016 61.7828 64.8398 62.8785 62.4258C64.5945 58.6436 65.4646 54.602 65.4646 50.4133V43.9094C67.8589 43.8135 70.1858 43.7644 72.3868 43.7644C85.1917 43.7644 91.2576 45.3809 93.2718 46.0767ZM34.5169 85.2656C35.2933 85.2656 35.9231 84.6357 35.9231 83.8586V79.5161C35.9231 79.5161 37.9922 79.4824 38.7972 79.4165V83.8586C38.7972 84.6357 39.427 85.2656 40.2041 85.2656H46.459C49.1331 85.2656 51.3084 87.4409 51.3084 90.115C51.3084 90.9067 50.6639 91.552 49.8714 91.552C49.0789 91.552 48.4344 90.9067 48.4344 90.115C48.4344 89.0259 47.5481 88.1396 46.459 88.1396H32.6214C31.5323 88.1396 30.646 89.0259 30.646 90.115C30.646 90.9067 30.0015 91.552 29.209 91.552C28.4173 91.552 27.772 90.9067 27.772 90.115C27.772 87.4409 29.9473 85.2656 32.6214 85.2656H34.5169ZM6.01396 91.8757C6.02787 91.8574 19.4942 74.1562 19.4942 74.1562C20.398 74.959 22.4715 76.3696 22.5074 76.3923C22.637 77.2141 22.6927 78.0469 22.6744 78.8752C22.5953 82.4509 21.1429 85.8267 18.5845 88.3799C15.3414 91.6172 10.6319 93.0769 6.12748 92.2031C6.0579 92.1899 6.00883 92.1409 5.98613 92.0808C5.96122 92.0149 5.96855 91.9358 6.01396 91.8757ZM72.386 40.9512C70.0306 40.9512 67.5345 41.0061 64.9688 41.1145C61.2232 41.272 57.8614 38.2119 57.898 34.4341C57.9002 34.2034 57.917 33.9734 57.9434 33.7441C58.618 33.7017 59.6016 33.6592 60.824 33.6592C65.7217 33.6592 70.6458 34.2876 75.3626 35.6191C79.9058 36.9009 84.2776 38.8748 88.0987 41.6653C88.2942 41.8088 88.4861 41.9553 88.6788 42.1018C85.0936 41.4946 79.8121 40.9512 72.386 40.9512ZM60.7391 15.5303C60.7486 15.6453 60.7566 15.7588 60.7647 15.8716C60.9002 17.7576 60.8057 19.6707 60.3399 21.5076C59.0406 26.6338 54.0191 30.7668 55.2935 36.4534C55.295 36.4585 55.2957 36.4636 55.2972 36.4687C56.1065 40.0789 59.0354 42.9485 62.6507 43.7183V50.4133C62.6507 52.4341 62.5042 54.605 61.9285 56.5518C61.3177 55.2715 60.7369 53.9934 59.9312 52.8296C57.5332 49.3667 54.1209 46.7966 50.7554 44.3415C48.2806 42.5361 45.7544 40.7842 43.4759 38.729C40.3968 35.9509 38.1607 32.5759 37.9351 28.3359C37.5359 20.8293 43.5293 13.8691 50.9869 13.0591C54.4007 12.6877 57.9119 13.5857 60.7391 15.5303ZM81.7522 22.9541C80.1636 23.551 78.7002 24.4893 77.4844 25.6714C76.2811 26.8411 75.3245 28.2649 74.6895 29.8184C74.357 30.6321 74.1109 31.4839 73.9593 32.3496C68.7671 31.125 64.0503 30.8452 60.8321 30.8452C60.0953 30.8452 59.4427 30.8599 58.8802 30.8811C58.886 30.8708 58.8904 30.8606 58.8955 30.8503C60.3421 28.0078 62.242 25.377 63.0462 22.2466C63.5362 20.3394 63.6929 18.3516 63.6109 16.3865C63.608 16.3257 63.6065 16.2656 63.6036 16.2041C70.1177 16.53 76.5447 18.9287 81.7522 22.9541ZM93.0257 42.0754C90.753 39.9778 88.1858 38.1628 85.4891 36.6885C82.7037 35.1658 79.7381 33.9719 76.6949 33.0747C76.8809 31.834 77.3211 30.6321 77.9759 29.5627C79.0284 27.8423 80.625 26.458 82.492 25.6897C83.0787 25.448 83.6792 25.27 84.3033 25.1521C89.2369 29.8762 92.2808 35.8015 93.0257 42.0754Z" fill="black"/>
</svg>
