<svg width="96" height="96" viewBox="0 0 96 96" fill="none" xmlns="http://www.w3.org/2000/svg">
<path d="M28.3067 78.83C28.5934 82.4696 31.2592 86.2261 35.4738 88.3398C39.6885 90.4535 44.2936 90.3433 47.3818 88.3961C47.0951 84.7565 44.4292 81 40.2146 78.8863C36 76.7726 31.395 76.883 28.3067 78.83Z" fill="#2FC8B4"/>
<path d="M67.6933 78.83C67.4066 82.4696 64.7407 86.2261 60.5261 88.3398C56.3115 90.4535 51.7063 90.3433 48.6182 88.3961C48.9049 84.7565 51.5708 81 55.7854 78.8863C60 76.7726 64.605 76.883 67.6933 78.83Z" fill="#2FC8B4"/>
<path d="M50.7684 63.5475H45.2325V94.5937H50.7684V63.5475Z" fill="#00AE95"/>
<path d="M78.3662 43.4151C87.8764 38.3845 85.3607 24.118 74.7036 22.6434C78.7551 12.6768 67.6577 3.36501 58.546 9.08563C55.2432 -1.15354 40.7566 -1.15354 37.4538 9.08563C28.3421 3.36501 17.2447 12.6768 21.2962 22.6434C10.6391 24.118 8.12361 38.3845 17.6336 43.4151C10.4177 51.3949 17.661 63.9407 28.1797 61.6815C27.7813 72.4328 41.3943 77.3874 47.9999 68.8956C54.6055 77.3876 68.2184 72.4329 67.8201 61.6815C78.3388 63.9409 85.5821 51.3951 78.3662 43.4151Z" fill="#FF5E6B"/>
<path d="M47.9999 59.3774C61.6203 59.3774 72.6617 49.4944 72.6617 37.3031C72.6617 25.1118 61.6203 15.2288 47.9999 15.2288C34.3796 15.2288 23.3381 25.1118 23.3381 37.3031C23.3381 49.4944 34.3796 59.3774 47.9999 59.3774Z" fill="#FFCE1C"/>
<path d="M28.9635 37.3025C28.9635 25.9627 38.517 16.6219 50.8124 15.3722C49.8892 15.2785 48.9511 15.2284 47.9999 15.2284C34.3798 15.2284 23.3385 25.1113 23.3385 37.3025C23.3385 49.4938 34.3798 59.3767 47.9999 59.3767C48.9511 59.3767 49.8892 59.3268 50.8124 59.2329C38.517 57.9832 28.9635 48.6423 28.9635 37.3025Z" fill="#FAA330"/>
<path d="M37.4997 37.8046V35.6497C37.4997 34.873 36.8701 34.2434 36.0935 34.2434C35.3169 34.2434 34.6873 34.873 34.6873 35.6497V37.8046C34.6873 38.5812 35.3169 39.2108 36.0935 39.2108C36.8701 39.2108 37.4997 38.5814 37.4997 37.8046Z" fill="black"/>
<path d="M61.3126 37.8046V35.6497C61.3126 34.873 60.6829 34.2434 59.9063 34.2434C59.1297 34.2434 58.5001 34.873 58.5001 35.6497V37.8046C58.5001 38.5812 59.1297 39.2108 59.9063 39.2108C60.6829 39.2108 61.3126 38.5814 61.3126 37.8046Z" fill="black"/>
<path d="M47.9999 40.3612C49.5509 40.3612 51.008 39.7121 51.9974 38.5802C52.5085 37.9956 52.4489 37.1072 51.8641 36.5959C51.2793 36.0846 50.3911 36.1444 49.8798 36.7292C49.4247 37.2499 48.7394 37.5486 47.9999 37.5486C47.2604 37.5486 46.5753 37.2499 46.12 36.7292C45.6091 36.1444 44.7207 36.0847 44.1357 36.5959C43.5509 37.107 43.4913 37.9954 44.0024 38.5802C44.9919 39.7121 46.4487 40.3612 47.9999 40.3612Z" fill="black"/>
<path d="M19.79 34.6254L22.0475 35.0919C21.9723 35.8226 21.9324 36.5595 21.9324 37.3025C21.9324 41.654 23.255 45.7322 25.5549 49.2302L23.3015 50.5554C22.6321 50.9491 22.4086 51.8109 22.8022 52.4805C23.179 53.1213 24.0545 53.3754 24.7272 52.9798L27.2491 51.4965C30.0648 54.8283 33.845 57.464 38.2116 59.0634L37.4382 61.6164C37.213 62.3596 37.633 63.1447 38.3763 63.3701C39.1255 63.5966 39.887 63.1603 40.1298 62.4318L40.8978 59.897C43.1564 60.4738 45.5388 60.7829 47.9999 60.7829C50.461 60.7829 52.8434 60.4739 55.1022 59.897C55.1022 59.897 55.869 62.4283 55.8702 62.432C56.092 63.1642 56.8945 63.5908 57.6239 63.3701C58.3671 63.1449 58.7871 62.3596 58.5619 61.6164L57.7885 59.0632C62.1552 57.4638 65.9353 54.8281 68.751 51.4963L71.2729 52.9796C71.9348 53.3686 72.8083 53.1427 73.1979 52.4803C73.5917 51.8109 73.3682 50.949 72.6986 50.5552L70.4453 49.23C72.7451 45.732 74.0678 41.654 74.0678 37.3024C74.0678 36.5569 74.0273 35.82 73.9513 35.0919L76.2099 34.6252C76.9706 34.4681 77.4598 33.7241 77.3025 32.9634C77.1454 32.2029 76.4012 31.7137 75.6409 31.8709L73.4747 32.3184C72.2754 27.3409 69.3195 22.947 65.2219 19.692L66.5957 17.7478C67.044 17.1135 66.8931 16.236 66.2588 15.7879C65.6245 15.3398 64.747 15.4905 64.2988 16.1248L62.9282 18.0645C59.0567 15.6195 54.4174 14.0972 49.4063 13.8561V10.7511C49.4063 9.97447 48.7767 9.34485 48.0001 9.34485C47.2234 9.34485 46.5938 9.97447 46.5938 10.7511V13.8561C41.6751 14.091 37.0118 15.5556 33.0616 18.0499L31.7013 16.1248C31.253 15.4905 30.3753 15.3396 29.7413 15.7879C29.107 16.236 28.9561 17.1135 29.4044 17.7478L30.7685 19.6783C29.6356 20.5802 28.5794 21.5764 27.616 22.6635C27.101 23.2448 27.1546 24.1335 27.7359 24.6486C28.3171 25.1636 29.2058 25.11 29.7209 24.5288C34.3038 19.3575 41.1475 16.6343 47.9999 16.6343C60.8228 16.6343 71.2551 25.9058 71.2551 37.3022C71.2551 48.6986 60.8228 57.9704 47.9999 57.9704C35.177 57.9704 24.7449 48.699 24.7449 37.3025C24.7449 34.3402 25.436 31.4799 26.7989 28.8013C27.1512 28.1091 26.8756 27.2623 26.1834 26.9102C25.4909 26.5581 24.6445 26.8337 24.2922 27.5258C23.5049 29.0732 22.913 30.6742 22.5187 32.3173L20.3591 31.8711C19.5989 31.7141 18.8546 32.2031 18.6972 32.9636C18.5403 33.7243 19.0293 34.4683 19.79 34.6254Z" fill="black"/>
<path d="M15.5484 43.7836C13.0785 47.3408 12.6255 51.8348 14.4159 55.8681C16.5365 60.6451 21.5831 63.7641 26.8177 63.307C27.0705 66.1188 28.2281 68.7008 30.1612 70.7069C32.5485 73.1841 35.9047 74.605 39.3695 74.605C40.9342 74.605 42.4331 74.3175 43.8258 73.7704V79.5542C42.9191 78.8162 41.9182 78.1677 40.8451 77.6297C38.6272 76.5175 36.2186 75.9295 33.8795 75.9295C31.5189 75.9295 29.3326 76.5212 27.5568 77.6408C27.1149 77.9194 26.8638 78.4199 26.9049 78.9407C27.2424 83.2273 30.2842 87.3105 34.8434 89.5971C37.0604 90.7088 39.4683 91.2966 41.8072 91.2966C42.4957 91.2966 43.1699 91.2456 43.8258 91.1456V94.5938C43.8258 95.3704 44.4554 96 45.2321 96H50.768C51.5446 96 52.1742 95.3704 52.1742 94.5938V91.1456C52.8301 91.2456 53.5043 91.2966 54.1932 91.2966C56.5315 91.2966 58.9394 90.7089 61.1566 89.5971C65.7156 87.3107 68.7576 83.2273 69.0953 78.9407C69.1364 78.42 68.8853 77.9194 68.4434 77.6408C66.6676 76.5212 64.4813 75.9295 62.1207 75.9295C59.7816 75.9295 57.373 76.5175 55.1549 77.6297C54.0818 78.1679 53.081 78.8164 52.1744 79.5542V73.7706C53.5672 74.3177 55.0658 74.6052 56.6307 74.6052C60.0957 74.6052 63.4521 73.1845 65.8392 70.7074C67.7723 68.7016 68.9298 66.1191 69.1825 63.3072C74.4492 63.7673 79.4504 60.6751 81.5843 55.8696C83.3751 51.8361 82.9219 47.3416 80.4516 43.7838C84.3902 41.0092 86.3434 36.3337 85.4828 31.4519C84.6222 26.5708 81.1885 22.8457 76.5392 21.5848C77.4582 18.131 76.8801 14.561 74.8741 11.58C72.5292 8.09567 68.5304 5.93118 64.4378 5.93118C62.6487 5.93118 60.9164 6.32061 59.2687 7.09142C57.2191 2.73374 52.955 0 47.9999 0C43.0449 0 38.7808 2.73374 36.7312 7.09124C35.0836 6.32043 33.3513 5.93099 31.5622 5.93099C27.4695 5.93099 23.4705 8.0953 21.1256 11.5794C19.1194 14.5607 18.5415 18.1303 19.4606 21.5846C14.8116 22.8453 11.3779 26.5704 10.5172 31.4516C9.65662 36.3333 11.6098 41.009 15.5484 43.7836ZM41.8072 88.4839H41.807C39.9041 88.4839 37.9319 87.9994 36.1044 87.0829C32.8006 85.426 30.4237 82.5561 29.831 79.5945C31.0087 79.0347 32.3908 78.7418 33.8795 78.7418C35.783 78.7418 37.7559 79.2265 39.5844 80.1435C41.2595 80.9835 42.7171 82.1389 43.8258 83.5015V85.0397L36.5006 81.3662C35.8063 81.0182 34.9614 81.2987 34.6132 81.9928C34.265 82.6872 34.5455 83.532 35.2398 83.8802L43.8258 88.186V88.2915C43.1801 88.4194 42.5047 88.4839 41.8072 88.4839ZM56.4155 80.1435C58.2442 79.2265 60.2168 78.7418 62.1205 78.7418C63.6093 78.7418 64.9913 79.0347 66.169 79.5945C65.5761 82.5563 63.1994 85.4261 59.8956 87.0829C58.0677 87.9996 56.0958 88.4839 54.1928 88.4839C53.4952 88.4839 52.8196 88.4194 52.174 88.2917V88.1861L60.76 83.8804C61.4543 83.5322 61.7348 82.6872 61.3866 81.993C61.0386 81.2987 60.1938 81.0182 59.4993 81.3664L52.174 85.0399V83.5016C53.2827 82.1389 54.7403 80.9835 56.4155 80.1435ZM49.3615 93.1873H46.6381V72.2009C47.0816 71.8682 47.503 71.5024 47.899 71.1147C47.9322 71.0821 47.9669 71.0515 47.9999 71.0185C48.0324 71.0509 48.0665 71.0811 48.0993 71.1132C48.496 71.5007 48.9179 71.8677 49.3615 72.2009V93.1873ZM13.2872 31.94C13.8786 28.586 16.3438 24.7485 21.4888 24.0363C22.3837 23.9124 22.9398 22.9524 22.599 22.1137C21.3429 19.0237 21.6483 15.8403 23.459 13.1495C25.2881 10.4317 28.3931 8.7433 31.5622 8.7433C33.3549 8.7433 35.0855 9.25911 36.7059 10.2765C37.4729 10.758 38.5154 10.3753 38.7922 9.51729C40.3867 4.57387 44.5942 2.81249 47.9999 2.81249C51.4057 2.81249 55.613 4.57387 57.2077 9.51711C57.4861 10.3802 58.5256 10.7589 59.2938 10.2767C60.9143 9.25929 62.645 8.74348 64.4376 8.74348C67.6064 8.74348 70.7112 10.4319 72.5404 13.1499C74.3511 15.8407 74.6567 19.0239 73.4011 22.1135C73.0581 22.9575 73.6135 23.9122 74.5109 24.0363C79.656 24.7483 82.1213 28.5858 82.7127 31.9398C83.304 35.2938 82.3002 39.743 77.709 42.1719C76.9056 42.5969 76.7149 43.6857 77.3232 44.3583C79.9667 47.2816 80.5986 51.1582 79.0135 54.728C77.148 58.9295 72.6107 61.2717 68.1154 60.3066C67.2303 60.1165 66.3813 60.8305 66.4148 61.7335C66.5423 65.1738 65.0706 67.4507 63.8136 68.7552C61.9538 70.6851 59.3356 71.7921 56.6303 71.7921C54.5954 71.7921 52.6987 71.1623 51.0991 69.9827C51.0937 69.9788 51.0882 69.9747 51.083 69.9706C50.341 69.4172 49.678 68.7623 49.1099 68.032C48.5686 67.3362 47.4507 67.3109 46.8899 68.032C46.3214 68.7631 45.6571 69.4156 44.9163 69.9711C44.9112 69.9751 44.9062 69.9788 44.9011 69.9826C43.3014 71.1623 41.4046 71.7921 39.3695 71.7921C36.6644 71.7921 34.0464 70.6851 32.1864 68.755C30.9292 67.4504 29.4575 65.1734 29.5848 61.7337C29.6182 60.8298 28.7685 60.1165 27.8842 60.3066C23.3514 61.2799 18.8644 58.9566 16.9865 54.7266C15.4018 51.157 16.0337 47.281 18.6765 44.3583C19.2855 43.6848 19.091 42.595 18.2912 42.172C13.6997 39.7434 12.6956 35.294 13.2872 31.94Z" fill="black"/>
</svg>
