<?xml version="1.0" encoding="utf-8"?>
<!-- Generator: Adobe Illustrator 24.1.2, SVG Export Plug-In . SVG Version: 6.00 Build 0)  -->
<svg version="1.1" id="Слой_1" xmlns="http://www.w3.org/2000/svg" xmlns:xlink="http://www.w3.org/1999/xlink" x="0px" y="0px"
	 viewBox="0 0 24 24" style="enable-background:new 0 0 24 24;" xml:space="preserve">
<style type="text/css">
	.st0{clip-path:url(#SVGID_2_);}
	.st1{fill:#7024D4;}
	.st2{fill:#6520BF;}
	.st3{fill:#FFFFFF;}
</style>
<g>
	<defs>
		<rect id="SVGID_1_" y="0" width="24" height="24"/>
	</defs>
	<clipPath id="SVGID_2_">
		<use xlink:href="#SVGID_1_"  style="overflow:visible;"/>
	</clipPath>
	<g class="st0">
		<path class="st1" d="M24,12c0,6.6-5.4,12-12,12S0,18.6,0,12S5.4,0,12,0S24,5.4,24,12z"/>
		<path class="st2" d="M12.5,22.3c2.6-1.9,1.2-4.6,1.2-4.6s-4.4-7.4-5-7.4C5.1,7.8,7.2,1,7.2,1C3,2.8,0,7.1,0,12
			c0,6.3,4.9,11.5,11.1,12C11.4,23.4,11.8,22.8,12.5,22.3z"/>
		<path class="st3" d="M18.2,10.2h-3.6c-0.5,0-0.9-0.4-0.9-0.9V5.8C13.8,4.8,13,4,12,4c-1,0-1.8,0.8-1.8,1.8v3.6
			c0,0.5-0.4,0.9-0.9,0.9H5.8C4.8,10.2,4,11,4,12s0.8,1.8,1.8,1.8h3.6c0.5,0,0.9,0.4,0.9,0.9v3.6c0,1,0.8,1.8,1.8,1.8
			c1,0,1.8-0.8,1.8-1.8v-3.6c0-0.5,0.4-0.9,0.9-0.9h3.6c1,0,1.8-0.8,1.8-1.8S19.2,10.2,18.2,10.2z"/>
	</g>
</g>
</svg>
