<svg width="24" height="24" viewBox="0 0 24 24" fill="none" xmlns="http://www.w3.org/2000/svg">
<path d="M14.0553 0.621047C13.8356 0.237094 13.4277 0 12.9853 0H11.0146C10.5723 0 10.1644 0.237094 9.9447 0.621047C9.65932 1.12003 9.30176 1.86656 9.16699 2.66105H14.8329C14.6982 1.86666 14.3406 1.12003 14.0553 0.621047Z" fill="#858384"/>
<path d="M21.4994 5.40725C21.6156 4.98041 21.4948 4.52437 21.182 4.21157L19.7885 2.81807C19.4757 2.50523 19.0196 2.38448 18.5928 2.50073C18.0382 2.65171 17.2575 2.92682 16.6005 3.39332L20.6069 7.39972C21.0733 6.74263 21.3483 5.96188 21.4994 5.40725Z" fill="#858384"/>
<path d="M23.379 14.0553C23.7629 13.8356 24 13.4277 24 12.9853V11.0146C24 10.5723 23.7629 10.1644 23.379 9.9447C22.88 9.65932 22.1335 9.30176 21.339 9.16699V14.8329C22.1334 14.6982 22.88 14.3406 23.379 14.0553Z" fill="#858384"/>
<path d="M18.5927 21.4995C19.0195 21.6157 19.4756 21.4949 19.7884 21.1821L21.1819 19.7886C21.4947 19.4758 21.6155 19.0198 21.4992 18.593C21.3482 18.0383 21.0731 17.2576 20.6066 16.6006L16.6002 20.607C17.2574 21.0734 18.0381 21.3484 18.5927 21.4995Z" fill="#858384"/>
<path d="M9.94469 23.3789C10.1643 23.7628 10.5723 23.9999 11.0146 23.9999H12.9853C13.4277 23.9999 13.8356 23.7628 14.0552 23.3789C14.3406 22.8799 14.6982 22.1334 14.8329 21.3389H9.16699C9.3018 22.1333 9.65932 22.8799 9.94469 23.3789Z" fill="#858384"/>
<path d="M2.50047 18.5926C2.38422 19.0194 2.50506 19.4755 2.81781 19.7883L4.21131 21.1818C4.52416 21.4945 4.98021 21.6153 5.407 21.4991C5.96167 21.3481 6.74238 21.073 7.39938 20.6065L3.39297 16.6001C2.92656 17.2572 2.6515 18.038 2.50047 18.5926Z" fill="#858384"/>
<path d="M0.621047 9.94469C0.237094 10.1643 0 10.5723 0 11.0146V12.9853C0 13.4277 0.237094 13.8356 0.621047 14.0552C1.12003 14.3406 1.86656 14.6982 2.66105 14.8329V9.16699C1.86666 9.3018 1.12003 9.65932 0.621047 9.94469Z" fill="#858384"/>
<path d="M5.40718 2.50047C4.98034 2.38422 4.52429 2.50506 4.2115 2.81781L2.81795 4.21131C2.50511 4.52416 2.38436 4.98021 2.50061 5.407C2.65159 5.96167 2.9267 6.74238 3.3932 7.39938L7.39961 3.39297C6.74256 2.92656 5.96181 2.6515 5.40718 2.50047Z" fill="#858384"/>
<path d="M12 2.24292C6.61129 2.24292 2.24292 6.61129 2.24292 12C2.24292 17.3886 6.61129 21.757 12 21.757C17.3886 21.757 21.757 17.3886 21.757 12C21.757 6.61129 17.3886 2.24292 12 2.24292ZM12 16.1302C9.71887 16.1302 7.86975 14.281 7.86975 12C7.86975 9.71892 9.71892 7.86975 12 7.86975C14.281 7.86975 16.1302 9.71892 16.1302 12C16.1302 14.281 14.281 16.1302 12 16.1302Z" fill="#BAB8B9"/>
<path d="M4.1745 11.9999C4.1745 6.93722 8.03048 2.77542 12.9658 2.29045C12.648 2.25923 12.3259 2.24292 12 2.24292C6.61129 2.24292 2.24292 6.61125 2.24292 12C2.24292 17.3886 6.61129 21.757 12 21.757C12.3259 21.757 12.648 21.7407 12.9658 21.7094C8.03048 21.2244 4.1745 17.0626 4.1745 11.9999Z" fill="#9E9C9D"/>
<path d="M9.36301 5.83119C9.16295 5.83119 9.00085 5.66904 9.00085 5.46903V4.99179C9.00085 4.79178 9.16295 4.62964 9.36301 4.62964C9.56307 4.62964 9.72517 4.79178 9.72517 4.99179V5.46903C9.72517 5.66904 9.56307 5.83119 9.36301 5.83119Z" fill="#3A484A"/>
<path d="M14.6371 5.83119C14.437 5.83119 14.2749 5.66904 14.2749 5.46903V4.99179C14.2749 4.79178 14.437 4.62964 14.6371 4.62964C14.8371 4.62964 14.9992 4.79178 14.9992 4.99179V5.46903C14.9992 5.66904 14.8371 5.83119 14.6371 5.83119Z" fill="#3A484A"/>
<path d="M12.0001 6.08603C11.6419 6.08603 11.3053 5.93593 11.0765 5.67428C10.9449 5.52367 10.9603 5.29487 11.1109 5.16325C11.2615 5.03162 11.4903 5.04695 11.622 5.19756C11.7131 5.30186 11.8509 5.36172 12.0001 5.36172C12.1492 5.36172 12.287 5.3019 12.3782 5.19756C12.5098 5.04695 12.7386 5.03158 12.8892 5.16325C13.0398 5.29487 13.0552 5.52367 12.9235 5.67428C12.6948 5.93593 12.3582 6.08603 12.0001 6.08603Z" fill="#3A484A"/>
</svg>
