<?xml version="1.0" encoding="utf-8"?>
<!-- Generator: Adobe Illustrator 24.1.2, SVG Export Plug-In . SVG Version: 6.00 Build 0)  -->
<svg version="1.1" id="Слой_1" xmlns="http://www.w3.org/2000/svg" xmlns:xlink="http://www.w3.org/1999/xlink" x="0px" y="0px"
	 viewBox="0 0 320 496" style="enable-background:new 0 0 320 496;" xml:space="preserve">
<style type="text/css">
	.st0{fill:#FFFFFF;}
	.st1{clip-path:url(#SVGID_2_);}
	.st2{fill:#F9EE80;}
	.st3{fill:#F4E74D;}
	.st4{fill:#76E7E7;}
	.st5{fill:#212121;}
	.st6{clip-path:url(#SVGID_4_);}
	.st7{fill:#FCD2A5;}
	.st8{fill:#FFF1CE;}
	.st9{fill:#FFA1AC;}
	.st10{fill:#333942;}
	.st11{clip-path:url(#SVGID_6_);}
	.st12{fill:#EEDB00;}
	.st13{fill:#FF83B4;}
	.st14{fill:#B0F0EF;}
	.st15{clip-path:url(#SVGID_8_);}
	.st16{fill:#F59E18;}
	.st17{fill:#FAB659;}
	.st18{fill:#F8E86A;}
	.st19{clip-path:url(#SVGID_10_);}
	.st20{fill:#FD6F71;}
	.st21{fill:#E34B4C;}
	.st22{fill:#EFEDEE;}
	.st23{fill:#D2D2D2;}
</style>
<g>
	<path class="st0" d="M38,43h106c4.4,0,8,3.6,8,8v106c0,4.4-3.6,8-8,8H38c-4.4,0-8-3.6-8-8V51C30,46.6,33.6,43,38,43z"/>
	<g>
		<defs>
			<rect id="SVGID_1_" x="76" y="67" width="30" height="30"/>
		</defs>
		<clipPath id="SVGID_2_">
			<use xlink:href="#SVGID_1_"  style="overflow:visible;"/>
		</clipPath>
		<g class="st1">
			<path class="st2" d="M91.8,68.2l0.8,1.6l1.7,0.3c1.1,0.2,1.5,1.5,0.7,2.3l-1.3,1.2l0.3,1.7c0.2,1.1-1,2-1.9,1.4l-1.5-0.8
				l-1.5,0.8c-1,0.5-2.1-0.3-1.9-1.4l0.3-1.7l-1.3-1.2c-0.8-0.8-0.4-2.2,0.7-2.3l1.7-0.3l0.8-1.6C89.9,67.2,91.3,67.2,91.8,68.2z"/>
			<path class="st3" d="M89.8,75.1c0.1-0.5-0.1-1-0.5-1.4l-0.6-0.5c-0.7-0.7-0.3-2,0.7-2.1l0.8-0.1c0.5-0.1,1-0.4,1.2-0.8l0.8-1.3
				l-0.3-0.7c-0.5-1-1.9-1-2.4,0l-0.8,1.6L86.9,70c-1.1,0.2-1.5,1.5-0.7,2.3l1.3,1.2l-0.3,1.7c-0.2,1.1,1,2,1.9,1.4l0.6-0.3
				L89.8,75.1z"/>
			<path class="st2" d="M82.5,84.3l0.8,1.6l1.7,0.3c1.1,0.2,1.5,1.5,0.7,2.3l-1.3,1.2l0.3,1.7c0.2,1.1-1,2-1.9,1.4L81.3,92l-1.5,0.8
				c-1,0.5-2.1-0.3-1.9-1.4l0.3-1.7l-1.3-1.2c-0.8-0.8-0.4-2.2,0.7-2.3l1.7-0.3l0.8-1.6C80.6,83.2,82,83.2,82.5,84.3z"/>
			<path class="st3" d="M80.5,91.2c0.1-0.5-0.1-1-0.5-1.4l-0.6-0.5c-0.7-0.7-0.3-2,0.7-2.1l0.8-0.1c0.5-0.1,1-0.4,1.2-0.8l0.8-1.3
				l-0.3-0.7c-0.5-1-1.9-1-2.4,0l-0.8,1.6l-1.7,0.3c-1.1,0.2-1.5,1.5-0.7,2.3l1.3,1.2l-0.3,1.7c-0.2,1.1,1,2,1.9,1.4l0.6-0.3
				L80.5,91.2z"/>
			<path class="st2" d="M101.9,84.3l0.8,1.6l1.7,0.3c1.1,0.2,1.5,1.5,0.7,2.3l-1.3,1.2l0.3,1.7c0.2,1.1-1,2-1.9,1.4l-1.5-0.8
				l-1.5,0.8c-1,0.5-2.1-0.3-1.9-1.4l0.3-1.7l-1.3-1.2c-0.8-0.8-0.4-2.2,0.7-2.3l1.7-0.3l0.8-1.6C100,83.2,101.4,83.2,101.9,84.3z"
				/>
			<path class="st3" d="M99.9,91.2c0.1-0.5-0.1-1-0.5-1.4l-0.6-0.5c-0.7-0.7-0.3-2,0.7-2.1l0.8-0.1c0.5-0.1,0.9-0.4,1.2-0.8l0.8-1.3
				l-0.3-0.7c-0.5-1-1.9-1-2.4,0l-0.8,1.6L97,86.1c-1.1,0.2-1.5,1.5-0.7,2.3l1.3,1.2l-0.3,1.7c-0.2,1.1,1,2,1.9,1.4l0.6-0.3
				L99.9,91.2z"/>
			<path class="st4" d="M83.6,73.7l-2.3-0.2c-0.5,0-1,0.3-1,0.9c0,0.5,0.3,1,0.8,1c-1.6,1.7-2.7,3.8-3.1,6.2c-0.1,0.5,0.3,1,0.8,1.1
				c0.7,0.1,1-0.3,1.1-0.8c0.3-2,1.2-3.7,2.5-5.1c0,0-0.1,1,0.9,1c0.5,0,0.9-0.4,0.9-0.9l0.1-2.1C84.5,73.9,84,73.7,83.6,73.7z"/>
			<path class="st4" d="M86.1,93.9L87,96c0.2,0.5,0.8,0.7,1.2,0.5c0.5-0.2,0.7-0.7,0.5-1.2c2.2,0.6,4.6,0.5,6.8-0.4
				c0.5-0.2,0.7-0.8,0.5-1.2c-0.3-0.6-0.8-0.7-1.2-0.5c-1.8,0.7-3.8,0.8-5.7,0.3c0,0,0.9-0.5,0.4-1.3c-0.2-0.4-0.8-0.6-1.2-0.4
				l-1.9,1C85.9,93,85.9,93.6,86.1,93.9z"/>
			<path class="st4" d="M102.7,81.8l1.3-1.9c0.3-0.4,0.2-1-0.2-1.3c-0.4-0.3-1-0.2-1.3,0.2c-0.6-2.3-1.9-4.3-3.8-5.8
				c-0.4-0.3-1-0.3-1.3,0.2c-0.4,0.5-0.2,1,0.2,1.3c1.5,1.2,2.6,2.9,3.1,4.8c0,0-0.9-0.6-1.4,0.3c-0.2,0.4-0.1,1,0.3,1.3l1.8,1.2
				C102.1,82.4,102.5,82.1,102.7,81.8z"/>
		</g>
	</g>
	<path class="st5" d="M71.8,122.3h1c0.8,0,1.3,0.1,2.4,1.9l0.8,1.3c0.4,0.6,0.5,0.8,0.8,0.8c0.3,0,0.5-0.2,0.5-0.5
		c0-0.2,0-0.3-0.4-0.9l-0.8-1.3c-0.1-0.1-0.3-0.5-0.5-0.7c-0.3-0.4-0.7-0.6-0.9-0.8c0.3-0.1,0.9-0.2,1.5-0.6
		c0.3-0.3,0.8-0.8,0.8-1.7c0-0.9-0.4-1.6-1.1-2c-0.6-0.3-1.5-0.3-1.7-0.3h-2.7c-0.9,0-1,0.1-1,1v6.8c0,0.2,0,0.5,0,0.6
		c0.1,0.2,0.3,0.4,0.5,0.4c0.2,0,0.5-0.1,0.5-0.4c0-0.1,0-0.2,0-0.6V122.3z M73.9,118.5c0.4,0,1.2,0,1.6,0.3
		c0.4,0.3,0.6,0.7,0.6,1.1c0,1.5-1.6,1.5-2.2,1.5h-2v-2.9H73.9z M83,123.3c0.4,0,0.9,0,0.9-0.7c0-0.5-0.3-2.8-2.8-2.8
		c-2,0-2.9,1.4-2.9,3.2c0,1.8,0.9,3.3,3,3.3c2.3,0,2.6-1.6,2.6-1.8c0-0.2-0.2-0.4-0.4-0.4c-0.3,0-0.4,0.2-0.4,0.3
		c-0.4,0.6-0.7,1.1-1.8,1.1c-1,0-1.9-0.6-1.9-2.3H83z M79.3,122.6c0.1-0.5,0.3-2,1.8-2c1.4,0,1.7,1.3,1.8,2H79.3z M90.1,124.4
		c0-1.3-1.3-1.6-2.2-1.8c-1.4-0.3-1.8-0.6-1.8-1.1c0-0.6,0.6-0.9,1.4-0.9c1.5,0,1.3,1.2,1.9,1.2c0.4,0,0.4-0.3,0.4-0.4
		c0-0.2-0.3-1.5-2.4-1.5c-1.6,0-2.3,0.8-2.3,1.8c0,0.5,0.3,0.9,0.5,1.1c0.3,0.3,0.7,0.4,2,0.8c0.6,0.2,1.4,0.3,1.4,1.1
		c0,0.5-0.5,1-1.5,1s-1.4-0.4-1.6-1c-0.1-0.2-0.2-0.4-0.5-0.4c-0.3,0-0.5,0.2-0.5,0.4c0,0.4,0.3,0.8,0.5,1.1c0.4,0.4,1,0.7,2,0.7
		C89.8,126.3,90.1,124.9,90.1,124.4z M91.7,120h-0.3c-0.1,0-0.6,0-0.6,0.4c0,0,0,0.4,0.5,0.4h0.4v3.8c0,0.8,0,1.8,1.5,1.8
		c0.6,0,1.2-0.1,1.2-0.5c0-0.2-0.2-0.4-0.4-0.4c-0.1,0-0.5,0.1-0.6,0.1c-0.6,0-0.6-0.4-0.6-1.1v-3.7h0.6c0.3,0,0.6-0.1,0.6-0.4
		c0-0.4-0.4-0.4-0.6-0.4h-0.6v-1.1c0-0.4,0-0.9-0.5-0.9c-0.2,0-0.4,0.1-0.4,0.2c-0.1,0.2-0.1,0.3-0.1,0.7V120z M100.6,123.1
		c0-2.3-1.4-3.3-2.9-3.3c-1.8,0-2.9,1.2-2.9,3.4c0,1.7,1,3.1,2.9,3.1C99.2,126.3,100.6,125.4,100.6,123.1z M99.5,123.1
		c0,1.5-0.7,2.4-1.8,2.4s-1.9-0.9-1.9-2.4c0-1.5,0.7-2.4,1.9-2.4C98.8,120.7,99.5,121.5,99.5,123.1z M102,125.5c0,0.4,0,0.6,0.2,0.7
		c0.1,0.1,0.2,0.1,0.4,0.1c0.2,0,0.5-0.1,0.5-0.6v-2.3c0-1.4,0.2-2.6,1.3-2.6c0.5,0,0.6,0.2,0.9,0.2c0.2,0,0.4-0.2,0.4-0.5
		c0-0.4-0.7-0.7-1.2-0.7c-0.8,0-1.1,0.5-1.5,1.1v-0.5c0-0.3,0-0.7-0.4-0.7c-0.5,0-0.5,0.4-0.5,0.7V125.5z M110.9,123.3
		c0.4,0,0.9,0,0.9-0.7c0-0.5-0.3-2.8-2.8-2.8c-2,0-2.9,1.4-2.9,3.2c0,1.8,0.9,3.3,3,3.3c2.3,0,2.6-1.6,2.6-1.8
		c0-0.2-0.2-0.4-0.4-0.4c-0.3,0-0.4,0.2-0.4,0.3c-0.4,0.6-0.7,1.1-1.8,1.1c-1,0-1.9-0.6-1.9-2.3H110.9z M107.2,122.6
		c0.1-0.5,0.3-2,1.8-2c1.4,0,1.7,1.3,1.8,2H107.2z M64.1,136.7h2c1,0,1.5-0.3,1.8-0.4c0.8-0.4,1.2-1.4,1.2-2.2c0-0.8-0.3-1.6-0.9-2
		c-0.6-0.4-1.3-0.5-2-0.5H64c-0.9,0-1.1,0-1.1,1v6.8c0,0.4,0,0.6,0.1,0.8c0.1,0.1,0.3,0.2,0.4,0.2c0.2,0,0.4-0.2,0.5-0.3
		c0.1-0.2,0.1-0.4,0.1-0.7V136.7z M65.7,132.5c0.5,0,1.2,0,1.6,0.4c0.3,0.3,0.4,0.7,0.4,1.2c0,1.5-1.4,1.6-2.1,1.6h-1.7v-3.2H65.7z
		 M70.3,138c0,0.5,0,0.9,0.3,1.4c0.3,0.7,1.2,0.9,1.8,0.9c1.2,0,1.7-0.7,2-1.1c0,0.9,0.1,1.1,0.5,1.1c0.4,0,0.5-0.3,0.5-0.8v-4.8
		c0-0.6-0.1-0.9-0.5-0.9c-0.4,0-0.5,0.3-0.5,0.9v1.9c0,1.4-0.1,1.6-0.3,1.9c-0.3,0.5-0.9,0.9-1.5,0.9c-0.4,0-0.9-0.2-1.1-0.6
		c-0.2-0.3-0.2-0.8-0.2-1.2v-2.9c0-0.6-0.1-0.9-0.5-0.9c-0.4,0-0.5,0.2-0.5,0.9V138z M77.3,139.5c0,0.4,0,0.6,0.2,0.7
		c0.1,0.1,0.2,0.1,0.4,0.1c0.2,0,0.5-0.1,0.5-0.6v-2.3c0-1.4,0.2-2.6,1.3-2.6c0.5,0,0.6,0.2,0.9,0.2c0.2,0,0.4-0.2,0.4-0.5
		c0-0.4-0.7-0.7-1.2-0.7c-0.8,0-1.1,0.5-1.5,1.1v-0.5c0-0.3,0-0.7-0.4-0.7c-0.5,0-0.5,0.4-0.5,0.7V139.5z M87.1,138.4
		c0-0.3-0.3-0.5-0.5-0.5c-0.3,0-0.5,0.4-0.7,0.7c-0.3,0.6-0.9,0.9-1.6,0.9c-1.2,0-1.9-0.9-1.9-2.5c0-1.5,0.8-2.4,1.9-2.4
		c1.1,0,1.5,0.7,1.6,1c0.2,0.4,0.4,0.4,0.5,0.4c0.2,0,0.5-0.2,0.5-0.5c0-0.5-0.7-1.8-2.6-1.8c-2.4,0-3,1.8-3,3.3
		c0,0.9,0.2,1.5,0.4,1.9c0.3,0.5,0.9,1.3,2.6,1.3C86.4,140.3,87.1,138.7,87.1,138.4z M93.5,136.2c0-0.3,0-1.1-0.4-1.6
		c-0.4-0.5-1-0.8-1.7-0.8c-1,0-1.5,0.5-2,1v-2.5c0-0.4,0-0.9-0.5-0.9c-0.5,0-0.5,0.5-0.5,0.9v7.2c0,0.4,0,0.9,0.5,0.9
		c0.5,0,0.5-0.3,0.5-0.9v-2.1c0-1.3,0.1-1.6,0.3-1.9c0.3-0.5,0.9-0.9,1.5-0.9c0.4,0,0.9,0.2,1.1,0.6c0.2,0.3,0.2,0.8,0.2,1.2v3
		c0,0.7,0.2,0.9,0.5,0.9c0.4,0,0.5-0.1,0.5-0.9V136.2z M99.3,139.3c0.1,0.4,0.3,1,0.7,1c0.3,0,0.5-0.2,0.5-0.4
		c0-0.2-0.1-0.5-0.1-0.5c-0.1-0.2-0.2-0.5-0.2-1c0-0.3,0-1.6,0-2c0-1.4-0.2-2.6-2.5-2.6c-2.3,0-2.7,1.3-2.7,1.7
		c0,0.3,0.2,0.4,0.5,0.4c0.3,0,0.4-0.2,0.5-0.5c0.3-0.6,1-0.9,1.8-0.9c1.4,0,1.4,0.8,1.4,1.6c-0.3,0.1-0.4,0.1-0.6,0.2
		c-0.2,0.1-1.5,0.3-1.8,0.3c-0.7,0.1-2,0.4-2,1.8c0,0.9,0.6,1.8,2,1.8C98.2,140.3,99,139.6,99.3,139.3z M99.2,137
		c0,0.7,0,1.3-0.3,1.7c-0.4,0.6-1.2,0.9-1.9,0.9c-0.9,0-1.2-0.6-1.2-1c0-0.2,0.1-0.7,0.8-0.9c0.5-0.1,1.1-0.2,1.8-0.4
		C98.9,137.1,99.1,137,99.2,137z M106.7,138.4c0-1.3-1.3-1.6-2.2-1.8c-1.4-0.3-1.8-0.6-1.8-1.1c0-0.6,0.6-0.9,1.4-0.9
		c1.5,0,1.3,1.2,1.9,1.2c0.4,0,0.4-0.3,0.4-0.4c0-0.2-0.3-1.5-2.4-1.5c-1.6,0-2.3,0.8-2.3,1.8c0,0.5,0.3,0.9,0.5,1.1
		c0.3,0.3,0.7,0.4,2,0.8c0.6,0.2,1.4,0.3,1.4,1.1c0,0.5-0.5,1-1.5,1c-1,0-1.4-0.4-1.6-1c-0.1-0.2-0.2-0.4-0.5-0.4
		c-0.3,0-0.5,0.2-0.5,0.4c0,0.4,0.3,0.8,0.5,1.1c0.4,0.4,1,0.7,2,0.7C106.4,140.3,106.7,138.9,106.7,138.4z M112.6,137.3
		c0.4,0,0.9,0,0.9-0.7c0-0.5-0.3-2.8-2.8-2.8c-2,0-2.9,1.4-2.9,3.2c0,1.8,0.9,3.3,3,3.3c2.3,0,2.6-1.6,2.6-1.8
		c0-0.2-0.2-0.4-0.4-0.4c-0.3,0-0.4,0.2-0.4,0.3c-0.4,0.6-0.7,1.1-1.8,1.1c-1,0-1.9-0.6-1.9-2.3H112.6z M108.8,136.6
		c0.1-0.5,0.3-2,1.8-2c1.4,0,1.7,1.3,1.8,2H108.8z M119.6,138.4c0-1.3-1.3-1.6-2.2-1.8c-1.4-0.3-1.8-0.6-1.8-1.1
		c0-0.6,0.6-0.9,1.4-0.9c1.5,0,1.3,1.2,1.9,1.2c0.4,0,0.4-0.3,0.4-0.4c0-0.2-0.3-1.5-2.4-1.5c-1.6,0-2.3,0.8-2.3,1.8
		c0,0.5,0.3,0.9,0.5,1.1c0.3,0.3,0.7,0.4,2,0.8c0.6,0.2,1.4,0.3,1.4,1.1c0,0.5-0.5,1-1.5,1s-1.4-0.4-1.6-1c-0.1-0.2-0.2-0.4-0.5-0.4
		c-0.3,0-0.5,0.2-0.5,0.4c0,0.4,0.3,0.8,0.5,1.1c0.4,0.4,1,0.7,2,0.7C119.3,140.3,119.6,138.9,119.6,138.4z"/>
</g>
<g>
	<path class="st0" d="M176,43h106c4.4,0,8,3.6,8,8v106c0,4.4-3.6,8-8,8H176c-4.4,0-8-3.6-8-8V51C168,46.6,171.6,43,176,43z"/>
	<path class="st5" d="M222.3,118.5h2c0.6,0,0.8-0.1,0.8-0.5c0-0.3-0.2-0.5-0.8-0.5h-5.1c-0.6,0-0.8,0.1-0.8,0.5
		c0,0.3,0.2,0.5,0.8,0.5h1.9v6.9c0,0.7,0.2,0.9,0.6,0.9c0.5,0,0.6-0.3,0.6-0.9V118.5z M229.2,123.3c0.4,0,0.9,0,0.9-0.7
		c0-0.5-0.3-2.8-2.8-2.8c-2,0-2.9,1.4-2.9,3.2c0,1.8,0.9,3.3,3,3.3c2.3,0,2.6-1.6,2.6-1.8c0-0.2-0.2-0.4-0.4-0.4
		c-0.3,0-0.4,0.2-0.4,0.3c-0.4,0.6-0.7,1.1-1.8,1.1c-1,0-1.9-0.6-1.9-2.3H229.2z M225.4,122.6c0.1-0.5,0.3-2,1.8-2
		c1.4,0,1.7,1.3,1.8,2H225.4z M232.6,118.3c0-0.6-0.2-0.9-0.5-0.9c-0.4,0-0.5,0.2-0.5,0.9v7.2c0,0.4,0,0.9,0.5,0.9
		c0.4,0,0.5-0.3,0.5-0.9V118.3z M235.4,118.3c0-0.6-0.2-0.9-0.5-0.9c-0.4,0-0.5,0.2-0.5,0.9v7.2c0,0.4,0,0.9,0.5,0.9
		c0.4,0,0.5-0.3,0.5-0.9V118.3z M212.9,139.3c0.1,0.4,0.3,1,0.7,1c0.3,0,0.5-0.2,0.5-0.4c0-0.2-0.1-0.5-0.1-0.5
		c-0.1-0.2-0.2-0.5-0.2-1c0-0.3,0-1.6,0-2c0-1.4-0.2-2.6-2.5-2.6c-2.3,0-2.7,1.3-2.7,1.7c0,0.3,0.2,0.4,0.5,0.4
		c0.3,0,0.4-0.2,0.5-0.5c0.3-0.6,1-0.9,1.8-0.9c1.4,0,1.4,0.8,1.4,1.6c-0.3,0.1-0.4,0.1-0.6,0.2c-0.2,0.1-1.5,0.3-1.8,0.3
		c-0.7,0.1-2,0.4-2,1.8c0,0.9,0.6,1.8,2,1.8C211.8,140.3,212.6,139.6,212.9,139.3z M212.8,137c0,0.7,0,1.3-0.3,1.7
		c-0.4,0.6-1.2,0.9-1.9,0.9c-0.9,0-1.2-0.6-1.2-1c0-0.2,0.1-0.7,0.8-0.9c0.5-0.1,1.1-0.2,1.8-0.4C212.4,137.1,212.7,137,212.8,137z
		 M219.2,134h-0.5c-0.1,0-0.6,0-0.6,0.4c0,0.4,0.5,0.4,0.6,0.4h0.6v4.7c0,0.6,0.1,0.9,0.5,0.9c0.4,0,0.5-0.3,0.5-0.9v-4.7h0.6
		c0.2,0,0.6,0,0.6-0.4c0-0.4-0.4-0.4-0.6-0.4h-0.6v-0.5c0-0.7,0.1-1.2,0.9-1.2c0.1,0,0.5,0.1,0.6,0.1c0.2,0,0.3-0.2,0.3-0.4
		c0-0.4-0.5-0.5-1.2-0.5c-0.7,0-1.7,0.1-1.7,1.9V134z M222.6,139.5c0,0.4,0,0.6,0.2,0.7c0.1,0.1,0.2,0.1,0.4,0.1
		c0.2,0,0.5-0.1,0.5-0.6v-2.3c0-1.4,0.2-2.6,1.3-2.6c0.5,0,0.6,0.2,0.9,0.2c0.2,0,0.4-0.2,0.4-0.5c0-0.4-0.7-0.7-1.2-0.7
		c-0.8,0-1.1,0.5-1.5,1.1v-0.5c0-0.3,0-0.7-0.4-0.7c-0.5,0-0.5,0.4-0.5,0.7V139.5z M228.2,134.7c0-0.4,0-0.9-0.5-0.9
		c-0.4,0-0.5,0.2-0.5,0.9v4.8c0,0.4,0,0.9,0.5,0.9c0.3,0,0.5-0.1,0.5-0.9V134.7z M228.2,132.2c0-0.3-0.3-0.6-0.6-0.6
		c-0.3,0-0.6,0.3-0.6,0.6c0,0.3,0.3,0.6,0.6,0.6C228,132.8,228.2,132.5,228.2,132.2z M234.4,137.3c0.4,0,0.9,0,0.9-0.7
		c0-0.5-0.3-2.8-2.8-2.8c-2,0-2.9,1.4-2.9,3.2c0,1.8,0.9,3.3,3,3.3c2.3,0,2.6-1.6,2.6-1.8c0-0.2-0.2-0.4-0.4-0.4
		c-0.3,0-0.4,0.2-0.4,0.3c-0.4,0.6-0.7,1.1-1.8,1.1c-1,0-1.9-0.6-1.9-2.3H234.4z M230.7,136.6c0.1-0.5,0.3-2,1.8-2
		c1.4,0,1.7,1.3,1.8,2H230.7z M241.9,136.2c0-0.4,0-1.2-0.4-1.6c-0.4-0.5-1-0.8-1.8-0.8c-1.1,0-1.6,0.6-2,1.1c0-0.5,0-0.7-0.1-0.8
		c0-0.1-0.2-0.2-0.4-0.2c-0.2,0-0.3,0.1-0.4,0.1c-0.1,0.1-0.1,0.3-0.1,0.7v4.8c0,0.3,0,0.6,0.1,0.7c0.1,0.1,0.2,0.1,0.4,0.1
		c0.2,0,0.3-0.1,0.4-0.1c0.1-0.1,0.2-0.4,0.2-0.7v-2c0-1.3,0.1-1.6,0.3-1.9c0.3-0.5,0.9-0.9,1.5-0.9c0.4,0,0.9,0.2,1.1,0.6
		c0.1,0.2,0.2,0.6,0.2,1.2v3c0,0.3,0,0.6,0.1,0.7c0.1,0.1,0.3,0.1,0.4,0.1c0.2,0,0.3-0.1,0.4-0.1c0.1-0.1,0.1-0.4,0.1-0.7V136.2z
		 M248.2,139.3v0.4c0,0.2,0,0.7,0.5,0.7c0.1,0,0.3,0,0.4-0.1c0.1-0.1,0.1-0.3,0.1-0.7v-7.2c0-0.4,0-0.9-0.5-0.9
		c-0.5,0-0.5,0.5-0.5,0.9v2.6c-0.1-0.2-0.8-1.1-2.2-1.1c-2.1,0-2.7,1.9-2.7,3.2c0,1.2,0.5,3.3,2.8,3.3
		C247.3,140.3,247.9,139.6,248.2,139.3z M246.2,139.5c-0.8,0-1.9-0.6-1.9-2.5c0-1.4,0.7-2.4,1.9-2.4c0.6,0,2,0.4,2,2.5
		C248.2,138.9,247.1,139.5,246.2,139.5z"/>
	<g>
		<defs>
			<rect id="SVGID_3_" x="214" y="67" width="30" height="30"/>
		</defs>
		<clipPath id="SVGID_4_">
			<use xlink:href="#SVGID_3_"  style="overflow:visible;"/>
		</clipPath>
		<g class="st6">
			<path class="st7" d="M241.7,92.2c-0.1,1.5-1.6,2.6-3,2.1c-2.4-0.8-4.8-1.9-6.9-3.3c-0.3-0.2-0.7-0.4-0.8-0.8
				c-0.2-0.5,0-1.2,0.3-1.7c1.1-1.9,2.8-3.4,4.7-4.4c1-0.5,2.2-0.9,3.3-1.1c0.7-0.1,2.2-0.5,2.7,0.2c0.3,0.4,0.1,1,0.1,1.4
				C242.1,85.2,241.9,89.2,241.7,92.2z"/>
			<path class="st8" d="M243.6,81.2c0-6.4-6.5-11.6-14.6-11.6c-8.1,0-14.6,5.2-14.6,11.6c0,6.4,6.5,11.6,14.6,11.6
				c2.5,0,5.2-0.5,7.5-1.7c0.4-0.2,0.8-0.1,1,0.2c0.8,1,1.6,2,2.4,2.9c0.9-0.2,1.7-1.1,1.8-2.1c0.1-1.8,0.2-4.1,0.3-5.6
				c0-0.1,0-0.2,0.1-0.4C243,84.7,243.6,82.9,243.6,81.2z"/>
			<path class="st7" d="M219.9,72.1c-3.4,2.1-5.5,5.4-5.5,9.1c0,5,4,9.3,9.7,10.9C215.9,85.7,217.9,74.8,219.9,72.1z"/>
			<path class="st9" d="M220.6,78.5c0,0.8-0.8,1.4-1.8,1.4c-1,0-1.8-0.6-1.8-1.4c0-0.8,0.8-1.4,1.8-1.4
				C219.8,77,220.6,77.7,220.6,78.5z"/>
			<path class="st9" d="M229.6,78.5c0,0.8,0.8,1.4,1.8,1.4c1,0,1.8-0.6,1.8-1.4c0-0.8-0.8-1.4-1.8-1.4
				C230.4,77,229.6,77.7,229.6,78.5z"/>
			<path class="st10" d="M226.9,77.9c0-1.1-0.8-1.2-1.8-1.2c-1,0-1.8,0.1-1.8,1.2c0,1.1,0.8,2,1.8,2C226.1,79.9,226.9,79,226.9,77.9
				z"/>
			<path d="M220.5,75.7c-0.7,0-1.3,0.6-1.3,1.3c0,0.2,0.2,0.4,0.4,0.4l0,0c0.2,0,0.4-0.2,0.4-0.4c0-0.2,0.2-0.4,0.4-0.4
				c0.2,0,0.4,0.2,0.4,0.4c0,0.2,0.2,0.4,0.4,0.4l0,0c0.2,0,0.4-0.2,0.4-0.4C221.8,76.3,221.3,75.7,220.5,75.7z"/>
			<path d="M230.6,77.5c0.2,0,0.4-0.2,0.4-0.4c0-0.7-0.6-1.3-1.3-1.3c-0.7,0-1.3,0.6-1.3,1.3c0,0.2,0.2,0.4,0.4,0.4l0,0
				c0.2,0,0.4-0.2,0.4-0.4c0-0.2,0.2-0.4,0.4-0.4c0.2,0,0.4,0.2,0.4,0.4C230.1,77.3,230.3,77.5,230.6,77.5
				C230.6,77.5,230.6,77.5,230.6,77.5z"/>
		</g>
	</g>
</g>
<g>
	<path class="st0" d="M38,180h106c4.4,0,8,3.6,8,8v106c0,4.4-3.6,8-8,8H38c-4.4,0-8-3.6-8-8V188C30,183.6,33.6,180,38,180z"/>
	<path class="st5" d="M74.6,259.3h1c0.8,0,1.3,0.1,2.4,1.9l0.8,1.3c0.4,0.6,0.5,0.8,0.8,0.8c0.3,0,0.5-0.2,0.5-0.5
		c0-0.2,0-0.3-0.4-0.9l-0.8-1.3c-0.1-0.1-0.3-0.5-0.5-0.7c-0.3-0.4-0.7-0.6-0.9-0.8c0.3-0.1,0.9-0.2,1.5-0.6
		c0.3-0.3,0.8-0.8,0.8-1.7c0-0.9-0.4-1.6-1.1-2c-0.6-0.3-1.5-0.3-1.7-0.3h-2.7c-0.9,0-1,0.1-1,1v6.8c0,0.2,0,0.5,0,0.6
		c0.1,0.2,0.3,0.4,0.5,0.4c0.2,0,0.5-0.1,0.5-0.4c0-0.1,0-0.2,0-0.6V259.3z M76.6,255.5c0.4,0,1.2,0,1.6,0.3
		c0.4,0.3,0.6,0.7,0.6,1.1c0,1.5-1.6,1.5-2.2,1.5h-2v-2.9H76.6z M85.5,262.3c0.1,0.4,0.3,1,0.7,1c0.3,0,0.5-0.2,0.5-0.4
		c0-0.2-0.1-0.5-0.1-0.5c-0.1-0.2-0.2-0.5-0.2-1c0-0.3,0-1.6,0-2c0-1.4-0.2-2.6-2.5-2.6c-2.3,0-2.7,1.3-2.7,1.7
		c0,0.3,0.2,0.4,0.5,0.4c0.3,0,0.4-0.2,0.5-0.5c0.3-0.6,1-0.9,1.8-0.9c1.4,0,1.4,0.8,1.4,1.6c-0.3,0.1-0.4,0.1-0.6,0.2
		c-0.2,0.1-1.5,0.3-1.8,0.3c-0.7,0.1-2,0.4-2,1.8c0,0.9,0.6,1.8,2,1.8C84.4,263.3,85.2,262.6,85.5,262.3z M85.4,260
		c0,0.7,0,1.3-0.3,1.7c-0.4,0.6-1.2,0.9-1.9,0.9c-0.9,0-1.2-0.6-1.2-1c0-0.2,0.1-0.7,0.8-0.9c0.5-0.1,1.1-0.2,1.8-0.4
		C85,260.1,85.3,260,85.4,260z M88.6,257h-0.3c-0.1,0-0.6,0-0.6,0.4c0,0,0,0.4,0.5,0.4h0.4v3.8c0,0.8,0,1.8,1.5,1.8
		c0.6,0,1.2-0.1,1.2-0.5c0-0.2-0.2-0.4-0.4-0.4c-0.1,0-0.5,0.1-0.6,0.1c-0.6,0-0.6-0.4-0.6-1.1v-3.7h0.6c0.3,0,0.6-0.1,0.6-0.4
		c0-0.4-0.4-0.4-0.6-0.4h-0.6v-1.1c0-0.4,0-0.9-0.5-0.9c-0.2,0-0.4,0.1-0.4,0.2c-0.1,0.2-0.1,0.3-0.1,0.7V257z M96.4,260.3
		c0.4,0,0.9,0,0.9-0.7c0-0.5-0.3-2.8-2.8-2.8c-2,0-2.9,1.4-2.9,3.2c0,1.8,0.9,3.3,3,3.3c2.3,0,2.6-1.6,2.6-1.8
		c0-0.2-0.2-0.4-0.4-0.4c-0.3,0-0.4,0.2-0.4,0.3c-0.4,0.6-0.7,1.1-1.8,1.1c-1,0-1.9-0.6-1.9-2.3H96.4z M92.7,259.6
		c0.1-0.5,0.3-2,1.8-2c1.4,0,1.7,1.3,1.8,2H92.7z M107.9,261.3c0.2-0.3,0.8-1.4,0.8-1.8c0-0.3-0.2-0.5-0.5-0.5
		c-0.2,0-0.3,0.1-0.4,0.3c-0.1,0.2-0.5,1-0.6,1.2c-0.5-0.5-0.6-0.7-1.8-2.1c1.1-0.6,1.8-1.2,1.8-2.1c0-0.7-0.5-1.9-2.1-1.9
		c-1.5,0-2.1,1.1-2.1,1.9c0,0.6,0.3,1.2,0.9,1.9c-0.9,0.5-2,1.1-2,2.5c0,1.1,0.9,2.5,2.8,2.5c1.4,0,2-0.7,2.5-1.2
		c0.1,0.1,0.3,0.3,0.7,0.7c0.6,0.5,0.7,0.5,0.8,0.5c0.2,0,0.5-0.2,0.5-0.5c0-0.2-0.1-0.3-0.3-0.5
		C108.4,261.8,108.4,261.7,107.9,261.3z M104.5,259c0.4,0.6,1.5,1.8,2.1,2.4c-0.2,0.3-0.8,1.1-1.8,1.1c-1,0-1.7-0.9-1.7-1.8
		S103.7,259.4,104.5,259z M104.9,257.8c-0.1-0.1-0.4-0.6-0.5-0.7c-0.1-0.2-0.3-0.5-0.3-0.8c0-0.5,0.4-1,1.1-1c0.6,0,1.1,0.5,1.1,1
		C106.2,257,105.6,257.4,104.9,257.8z M73.3,273.3h1c0.8,0,1.3,0.1,2.4,1.9l0.8,1.3c0.4,0.6,0.5,0.8,0.8,0.8c0.3,0,0.5-0.2,0.5-0.5
		c0-0.2,0-0.3-0.4-0.9l-0.8-1.3c-0.1-0.1-0.3-0.5-0.5-0.7c-0.3-0.4-0.7-0.6-0.9-0.8c0.3-0.1,0.9-0.2,1.5-0.6
		c0.3-0.3,0.8-0.8,0.8-1.7c0-0.9-0.4-1.6-1.1-2c-0.6-0.3-1.5-0.3-1.7-0.3h-2.7c-0.9,0-1,0.1-1,1v6.8c0,0.2,0,0.5,0,0.6
		c0.1,0.2,0.3,0.4,0.5,0.4c0.2,0,0.5-0.1,0.5-0.4c0-0.1,0-0.2,0-0.6V273.3z M75.4,269.5c0.4,0,1.2,0,1.6,0.3
		c0.4,0.3,0.6,0.7,0.6,1.1c0,1.5-1.6,1.5-2.2,1.5h-2v-2.9H75.4z M84.5,274.3c0.4,0,0.9,0,0.9-0.7c0-0.5-0.3-2.8-2.8-2.8
		c-2,0-2.9,1.4-2.9,3.2c0,1.8,0.9,3.3,3,3.3c2.3,0,2.6-1.6,2.6-1.8c0-0.2-0.2-0.4-0.4-0.4c-0.3,0-0.4,0.2-0.4,0.3
		c-0.4,0.6-0.7,1.1-1.8,1.1c-1,0-1.9-0.6-1.9-2.3H84.5z M80.8,273.6c0.1-0.5,0.3-2,1.8-2c1.4,0,1.7,1.3,1.8,2H80.8z M88.9,276
		l-1.7-4.5c-0.2-0.4-0.2-0.6-0.6-0.6s-0.5,0.3-0.5,0.5c0,0.2,0,0.2,0.2,0.6l1.9,4.7c0.2,0.5,0.3,0.8,0.7,0.8c0.4,0,0.5-0.3,0.7-0.8
		l1.9-4.7c0.1-0.3,0.2-0.4,0.2-0.6c0-0.2-0.2-0.5-0.5-0.5c-0.3,0-0.4,0.2-0.6,0.6L88.9,276z M94,271.7c0-0.4,0-0.9-0.5-0.9
		c-0.4,0-0.5,0.2-0.5,0.9v4.8c0,0.4,0,0.9,0.5,0.9c0.3,0,0.5-0.1,0.5-0.9V271.7z M94.1,269.2c0-0.3-0.3-0.6-0.6-0.6
		s-0.6,0.3-0.6,0.6c0,0.3,0.3,0.6,0.6,0.6S94.1,269.5,94.1,269.2z M100.3,274.3c0.4,0,0.9,0,0.9-0.7c0-0.5-0.3-2.8-2.8-2.8
		c-2,0-2.9,1.4-2.9,3.2c0,1.8,0.9,3.3,3,3.3c2.3,0,2.6-1.6,2.6-1.8c0-0.2-0.2-0.4-0.4-0.4c-0.3,0-0.4,0.2-0.4,0.3
		c-0.4,0.6-0.7,1.1-1.8,1.1c-1,0-1.9-0.6-1.9-2.3H100.3z M96.6,273.6c0.1-0.5,0.3-2,1.8-2c1.4,0,1.7,1.3,1.8,2H96.6z M106.4,272.4
		l1.1,4.1c0.1,0.5,0.2,0.9,0.7,0.9c0.5,0,0.6-0.3,0.7-0.8l1.6-4.7c0.1-0.3,0.1-0.4,0.1-0.5c0-0.2-0.2-0.5-0.5-0.5
		c-0.4,0-0.4,0.2-0.6,0.7l-1.4,4.5l-1.2-4.3c-0.1-0.5-0.2-0.8-0.7-0.8s-0.5,0.3-0.7,0.8l-1.2,4.3l-1.4-4.5c-0.1-0.4-0.2-0.7-0.6-0.7
		c-0.3,0-0.5,0.2-0.5,0.5c0,0.1,0,0.2,0.1,0.5l1.6,4.7c0.2,0.5,0.3,0.8,0.7,0.8c0.5,0,0.6-0.4,0.7-0.9L106.4,272.4z"/>
	<g>
		<defs>
			<rect id="SVGID_5_" x="76" y="205" width="30" height="30"/>
		</defs>
		<clipPath id="SVGID_6_">
			<use xlink:href="#SVGID_5_"  style="overflow:visible;"/>
		</clipPath>
		<g class="st11">
			<path class="st3" d="M84,219.2l0.8,1.7c0.3,0.5,0.7,0.9,1.3,1l1.8,0.3c1.1,0.2,1.5,1.5,0.7,2.3l-1.3,1.3c-0.4,0.4-0.6,1-0.5,1.6
				l0.3,1.8c0.2,1.1-1,1.9-2,1.4l-1.6-0.9c-0.5-0.3-1.1-0.3-1.6,0l-1.7,0.8c-1,0.5-2.1-0.3-1.9-1.4l0.3-1.8c0.1-0.6-0.1-1.2-0.5-1.6
				l-1.3-1.3c-0.8-0.8-0.3-2.1,0.8-2.3l1.8-0.2c0.6-0.1,1.1-0.4,1.3-1l0.8-1.7C82.1,218.2,83.5,218.2,84,219.2z"/>
			<path class="st12" d="M88,222.1l-1.8-0.3c-0.6-0.1-1.1-0.5-1.3-1l-0.8-1.7c-0.5-1-1.9-1-2.4,0l-0.7,1.4c0.3,0.4,0.7,1,1.1,1.5
				c0.7,0.8,1.1,2,0.9,3.1c-0.2,1.1-0.3,2.7,0.1,4.3c0.2,0,0.4,0.1,0.5,0.2l1.6,0.9c1,0.5,2.1-0.3,2-1.4l-0.3-1.8
				c-0.1-0.6,0.1-1.2,0.5-1.6l1.3-1.3C89.5,223.6,89.1,222.3,88,222.1z"/>
			<path class="st3" d="M100.5,219.4l0.8,1.7c0.3,0.5,0.7,0.9,1.3,1l1.8,0.3c1.1,0.2,1.5,1.5,0.7,2.3l-1.3,1.3
				c-0.4,0.4-0.6,1-0.5,1.6l0.3,1.8c0.2,1.1-1,1.9-2,1.4l-1.6-0.9c-0.5-0.3-1.1-0.3-1.6,0l-1.7,0.8c-1,0.5-2.1-0.3-1.9-1.4l0.3-1.8
				c0.1-0.6-0.1-1.2-0.5-1.6l-1.3-1.3c-0.8-0.8-0.3-2.1,0.8-2.3l1.8-0.2c0.6-0.1,1.1-0.4,1.3-1l0.8-1.7
				C98.6,218.3,100,218.4,100.5,219.4z"/>
			<path class="st12" d="M101.1,220.8l-0.7-1.4c-0.5-1-1.9-1-2.4,0l-0.8,1.7c-0.3,0.5-0.8,0.9-1.3,1l-1.8,0.2
				c-1.1,0.1-1.6,1.5-0.8,2.3l1.3,1.3c0.4,0.4,0.6,1,0.5,1.6l-0.3,1.8c-0.2,1.1,0.9,1.9,1.9,1.4l1.7-0.8c0.3-0.1,0.5-0.2,0.8-0.2
				c0.3-1.5,0.2-3.2,0-4.2c-0.2-1.1,0.2-2.3,0.9-3.1C100.4,221.9,100.8,221.2,101.1,220.8z"/>
			<path class="st2" d="M92.6,213.3l1,2.1c0.3,0.7,0.9,1.1,1.7,1.2l2.3,0.4c1.4,0.2,1.9,2,0.9,2.9l-1.7,1.6c-0.5,0.5-0.8,1.3-0.7,2
				l0.4,2.3c0.2,1.4-1.3,2.5-2.5,1.8l-2.1-1.1c-0.7-0.4-1.4-0.4-2.1,0l-2.1,1.1c-1.3,0.6-2.7-0.4-2.5-1.8l0.4-2.3
				c0.1-0.7-0.1-1.5-0.6-2l-1.7-1.7c-1-1-0.4-2.7,1-2.9l2.3-0.3c0.7-0.1,1.4-0.6,1.7-1.2l1.1-2.1C90.2,212,92,212,92.6,213.3z"/>
			<path class="st13" d="M87.7,220.2c0-0.5-0.5-1-1.2-1c-0.7,0-1.2,0.4-1.2,1c0,0.5,0.5,1,1.2,1C87.2,221.1,87.7,220.7,87.7,220.2z"
				/>
			<path class="st13" d="M96.7,220.2c0-0.5-0.5-1-1.2-1c-0.7,0-1.2,0.4-1.2,1c0,0.5,0.5,1,1.2,1C96.1,221.1,96.7,220.7,96.7,220.2z"
				/>
			<path class="st14" d="M82,209.6l0.3,0.5c0.3,0.5,0.7,1,1.2,1.2l0.5,0.3c0.5,0.3,0.5,1.1,0,1.4l-0.5,0.3c-0.5,0.3-1,0.7-1.2,1.2
				L82,215c-0.3,0.5-1.1,0.5-1.4,0l-0.3-0.5c-0.3-0.5-0.7-1-1.2-1.2l-0.5-0.3c-0.5-0.3-0.5-1.1,0-1.4l0.5-0.3c0.5-0.3,1-0.7,1.2-1.2
				l0.3-0.5C80.9,209.1,81.7,209.1,82,209.6z"/>
			<path class="st14" d="M101.6,212.6l0.2,0.4c0.2,0.4,0.5,0.7,0.9,0.9l0.4,0.2c0.4,0.2,0.4,0.7,0,0.9l-0.4,0.2
				c-0.4,0.2-0.7,0.5-0.9,0.9l-0.2,0.4c-0.2,0.4-0.7,0.4-0.9,0l-0.2-0.4c-0.2-0.4-0.5-0.7-0.9-0.9l-0.4-0.2c-0.4-0.2-0.4-0.7,0-0.9
				l0.4-0.2c0.4-0.2,0.7-0.5,0.9-0.9l0.2-0.4C100.8,212.2,101.4,212.2,101.6,212.6z"/>
			<path d="M94.6,218.4c-0.2,0-0.4,0.2-0.4,0.4v0.7c0,0.2,0.2,0.4,0.4,0.4c0.2,0,0.4-0.2,0.4-0.4v-0.7
				C95.1,218.6,94.9,218.4,94.6,218.4z"/>
			<path d="M87.4,218.4c-0.2,0-0.4,0.2-0.4,0.4v0.7c0,0.2,0.2,0.4,0.4,0.4c0.2,0,0.4-0.2,0.4-0.4v-0.7
				C87.8,218.6,87.6,218.4,87.4,218.4z"/>
			<path d="M91.9,219c-0.1,0-0.4-0.2-0.6,0.1c-0.1,0.1-0.2,0.2-0.3,0.2c-0.1,0-0.2,0-0.3-0.2c-0.1-0.2-0.4-0.3-0.6-0.1
				c-0.2,0.1-0.3,0.4-0.1,0.6c0.2,0.3,0.6,0.6,1,0.6c0.4,0,0.8-0.2,1-0.6C92.2,219.4,92.1,219.1,91.9,219z"/>
		</g>
	</g>
</g>
<g>
	<path class="st0" d="M176,180h106c4.4,0,8,3.6,8,8v106c0,4.4-3.6,8-8,8H176c-4.4,0-8-3.6-8-8V188C168,183.6,171.6,180,176,180z"/>
	<path class="st5" d="M211.1,259.7h2c1,0,1.5-0.3,1.8-0.4c0.8-0.4,1.2-1.4,1.2-2.2c0-0.8-0.3-1.6-0.9-2c-0.6-0.4-1.3-0.5-2-0.5H211
		c-0.9,0-1.1,0-1.1,1v6.8c0,0.4,0,0.6,0.1,0.8c0.1,0.1,0.3,0.2,0.4,0.2c0.2,0,0.4-0.2,0.5-0.3c0.1-0.2,0.1-0.4,0.1-0.7V259.7z
		 M212.7,255.5c0.5,0,1.2,0,1.6,0.4c0.3,0.3,0.4,0.7,0.4,1.2c0,1.5-1.4,1.6-2.1,1.6h-1.7v-3.2H212.7z M217.4,262.5
		c0,0.4,0,0.6,0.2,0.7c0.1,0.1,0.2,0.1,0.4,0.1c0.2,0,0.5-0.1,0.5-0.6v-2.3c0-1.4,0.2-2.6,1.3-2.6c0.5,0,0.6,0.2,0.9,0.2
		c0.2,0,0.4-0.2,0.4-0.5c0-0.4-0.7-0.7-1.2-0.7c-0.8,0-1.1,0.5-1.5,1.1v-0.5c0-0.3,0-0.7-0.4-0.7c-0.5,0-0.5,0.4-0.5,0.7V262.5z
		 M223,257.7c0-0.4,0-0.9-0.5-0.9c-0.4,0-0.5,0.2-0.5,0.9v4.8c0,0.4,0,0.9,0.5,0.9c0.3,0,0.5-0.1,0.5-0.9V257.7z M223,255.2
		c0-0.3-0.3-0.6-0.6-0.6s-0.6,0.3-0.6,0.6c0,0.3,0.3,0.6,0.6,0.6S223,255.5,223,255.2z M227,262l-1.7-4.5c-0.2-0.4-0.2-0.6-0.6-0.6
		c-0.3,0-0.5,0.3-0.5,0.5c0,0.2,0,0.2,0.2,0.6l1.9,4.7c0.2,0.5,0.3,0.8,0.7,0.8c0.4,0,0.5-0.3,0.7-0.8l1.9-4.7
		c0.1-0.3,0.2-0.4,0.2-0.6c0-0.2-0.2-0.5-0.5-0.5c-0.3,0-0.4,0.2-0.6,0.6L227,262z M234.8,262.3c0.1,0.4,0.3,1,0.7,1
		c0.3,0,0.5-0.2,0.5-0.4c0-0.2-0.1-0.5-0.1-0.5c-0.1-0.2-0.2-0.5-0.2-1c0-0.3,0-1.6,0-2c0-1.4-0.2-2.6-2.5-2.6
		c-2.3,0-2.7,1.3-2.7,1.7c0,0.3,0.2,0.4,0.5,0.4c0.3,0,0.4-0.2,0.5-0.5c0.3-0.6,1-0.9,1.8-0.9c1.4,0,1.4,0.8,1.4,1.6
		c-0.3,0.1-0.4,0.1-0.6,0.2c-0.2,0.1-1.5,0.3-1.8,0.3c-0.7,0.1-2,0.4-2,1.8c0,0.9,0.6,1.8,2,1.8
		C233.7,263.3,234.4,262.6,234.8,262.3z M234.7,260c0,0.7,0,1.3-0.3,1.7c-0.4,0.6-1.2,0.9-1.9,0.9c-0.9,0-1.2-0.6-1.2-1
		c0-0.2,0.1-0.7,0.8-0.9c0.5-0.1,1.1-0.2,1.8-0.4C234.3,260.1,234.5,260,234.7,260z M242.7,261.4c0-0.3-0.3-0.5-0.5-0.5
		c-0.3,0-0.5,0.4-0.7,0.7c-0.3,0.6-0.9,0.9-1.6,0.9c-1.2,0-1.9-0.9-1.9-2.5c0-1.5,0.8-2.4,1.9-2.4c1.1,0,1.5,0.7,1.6,1
		c0.2,0.4,0.4,0.4,0.5,0.4c0.2,0,0.5-0.2,0.5-0.5c0-0.5-0.7-1.8-2.6-1.8c-2.4,0-3,1.8-3,3.3c0,0.9,0.2,1.5,0.4,1.9
		c0.3,0.5,0.9,1.3,2.6,1.3C242.1,263.3,242.7,261.7,242.7,261.4z M245.5,263.2l-0.3,0.8c-0.2,0.4-0.4,0.8-0.9,0.8
		c-0.1,0-0.4,0-0.5,0c-0.3,0-0.4,0.2-0.4,0.4c0,0.5,0.6,0.5,1,0.5c1,0,1.4-0.4,1.8-1.5l2.5-6.4c0.1-0.3,0.1-0.4,0.1-0.5
		c0-0.2-0.2-0.4-0.5-0.4c-0.3,0-0.4,0.1-0.6,0.7l-1.8,4.6l-1.7-4.6c-0.1-0.3-0.2-0.6-0.6-0.6c-0.3,0-0.5,0.3-0.5,0.5
		c0,0.1,0,0.3,0.1,0.5L245.5,263.2z M215.1,273.7h2c1,0,1.5-0.3,1.8-0.4c0.8-0.4,1.2-1.4,1.2-2.2c0-0.8-0.3-1.6-0.9-2
		c-0.6-0.4-1.3-0.5-2-0.5H215c-0.9,0-1.1,0-1.1,1v6.8c0,0.4,0,0.6,0.1,0.8c0.1,0.1,0.3,0.2,0.4,0.2c0.2,0,0.4-0.2,0.5-0.3
		c0.1-0.2,0.1-0.4,0.1-0.7V273.7z M216.7,269.5c0.5,0,1.2,0,1.6,0.4c0.3,0.3,0.4,0.7,0.4,1.2c0,1.5-1.4,1.6-2.1,1.6h-1.7v-3.2H216.7
		z M226.3,274.1c0-2.3-1.4-3.3-2.9-3.3c-1.8,0-2.9,1.2-2.9,3.4c0,1.7,1,3.1,2.9,3.1C224.9,277.3,226.3,276.4,226.3,274.1z
		 M225.2,274.1c0,1.5-0.7,2.4-1.8,2.4c-1.2,0-1.9-0.9-1.9-2.4c0-1.5,0.7-2.4,1.9-2.4C224.5,271.7,225.2,272.5,225.2,274.1z
		 M228.7,269.3c0-0.6-0.2-0.9-0.5-0.9c-0.4,0-0.5,0.2-0.5,0.9v7.2c0,0.4,0,0.9,0.5,0.9c0.4,0,0.5-0.3,0.5-0.9V269.3z M231.6,271.7
		c0-0.4,0-0.9-0.5-0.9c-0.4,0-0.5,0.2-0.5,0.9v4.8c0,0.4,0,0.9,0.5,0.9c0.3,0,0.5-0.1,0.5-0.9V271.7z M231.7,269.2
		c0-0.3-0.3-0.6-0.6-0.6c-0.3,0-0.6,0.3-0.6,0.6c0,0.3,0.3,0.6,0.6,0.6C231.4,269.8,231.7,269.5,231.7,269.2z M238.7,275.4
		c0-0.3-0.3-0.5-0.5-0.5c-0.3,0-0.5,0.4-0.7,0.7c-0.3,0.6-0.9,0.9-1.6,0.9c-1.2,0-1.9-0.9-1.9-2.5c0-1.5,0.8-2.4,1.9-2.4
		c1.1,0,1.5,0.7,1.6,1c0.2,0.4,0.4,0.4,0.5,0.4c0.2,0,0.5-0.2,0.5-0.5c0-0.5-0.7-1.8-2.6-1.8c-2.4,0-3,1.8-3,3.3
		c0,0.9,0.2,1.5,0.4,1.9c0.3,0.5,0.9,1.3,2.6,1.3C238.1,277.3,238.7,275.7,238.7,275.4z M241.5,277.2l-0.3,0.8
		c-0.2,0.4-0.4,0.8-0.9,0.8c-0.1,0-0.4,0-0.5,0c-0.3,0-0.4,0.2-0.4,0.4c0,0.5,0.6,0.5,1,0.5c1,0,1.4-0.4,1.8-1.5l2.5-6.4
		c0.1-0.3,0.1-0.4,0.1-0.5c0-0.2-0.2-0.4-0.5-0.4s-0.4,0.1-0.6,0.7l-1.8,4.6l-1.7-4.6c-0.1-0.3-0.2-0.6-0.6-0.6
		c-0.3,0-0.5,0.3-0.5,0.5c0,0.1,0,0.3,0.1,0.5L241.5,277.2z"/>
</g>
<g>
	<path class="st0" d="M38,317h106c4.4,0,8,3.6,8,8v106c0,4.4-3.6,8-8,8H38c-4.4,0-8-3.6-8-8V325C30,320.6,33.6,317,38,317z"/>
	<path class="st5" d="M70.8,392.5h2c0.6,0,0.8-0.1,0.8-0.5c0-0.3-0.2-0.5-0.8-0.5h-5.1c-0.6,0-0.8,0.1-0.8,0.5
		c0,0.3,0.2,0.5,0.8,0.5h1.9v6.9c0,0.7,0.2,0.9,0.6,0.9c0.5,0,0.6-0.3,0.6-0.9V392.5z M77.6,397.3c0.4,0,0.9,0,0.9-0.7
		c0-0.5-0.3-2.8-2.8-2.8c-2,0-2.9,1.4-2.9,3.2c0,1.8,0.9,3.3,3,3.3c2.3,0,2.6-1.6,2.6-1.8c0-0.2-0.2-0.4-0.4-0.4
		c-0.3,0-0.4,0.2-0.4,0.3c-0.4,0.6-0.7,1.1-1.8,1.1c-1,0-1.9-0.6-1.9-2.3H77.6z M73.9,396.6c0.1-0.5,0.3-2,1.8-2
		c1.4,0,1.7,1.3,1.8,2H73.9z M80,399.5c0,0.4,0,0.6,0.2,0.7c0.1,0.1,0.2,0.1,0.4,0.1c0.2,0,0.5-0.1,0.5-0.6v-2.3
		c0-1.4,0.2-2.6,1.3-2.6c0.5,0,0.6,0.2,0.9,0.2c0.2,0,0.4-0.2,0.4-0.5c0-0.4-0.7-0.7-1.2-0.7c-0.8,0-1.1,0.5-1.5,1.1v-0.5
		c0-0.3,0-0.7-0.4-0.7c-0.5,0-0.5,0.4-0.5,0.7V399.5z M93.2,395.9c0-0.3,0-0.7-0.2-1.2c-0.3-0.7-1.1-0.9-1.7-0.9
		c-1.2,0-1.7,0.8-1.9,1.1c-0.4-1-1.4-1.1-1.8-1.1c-0.9,0-1.5,0.5-1.9,1c0-0.8,0-1-0.5-1c-0.5,0-0.5,0.5-0.5,0.9v4.8
		c0,0.7,0.2,0.9,0.5,0.9c0.4,0,0.5-0.3,0.5-0.9V397c0-1,0.2-2.2,1.5-2.2c1.1,0,1.1,1,1.1,1.4v3.3c0,0.7,0.2,0.9,0.5,0.9
		c0.4,0,0.5-0.3,0.5-0.9v-2.9c0-0.4,0-0.7,0.3-1.2c0.3-0.4,0.8-0.6,1.2-0.6c1.1,0,1.1,1,1.1,1.5v3.2c0,0.4,0,0.9,0.5,0.9
		c0.4,0,0.5-0.2,0.5-0.9V395.9z M99.6,398.4c0-1.3-1.3-1.6-2.2-1.8c-1.4-0.3-1.8-0.6-1.8-1.1c0-0.6,0.6-0.9,1.4-0.9
		c1.5,0,1.3,1.2,1.9,1.2c0.4,0,0.4-0.3,0.4-0.4c0-0.2-0.3-1.5-2.4-1.5c-1.6,0-2.3,0.8-2.3,1.8c0,0.5,0.3,0.9,0.5,1.1
		c0.3,0.3,0.7,0.4,2,0.8c0.6,0.2,1.4,0.3,1.4,1.1c0,0.5-0.5,1-1.5,1c-1,0-1.4-0.4-1.6-1c-0.1-0.2-0.2-0.4-0.5-0.4
		c-0.3,0-0.5,0.2-0.5,0.4c0,0.4,0.3,0.8,0.5,1.1c0.4,0.4,1,0.7,2,0.7C99.3,400.3,99.6,398.9,99.6,398.4z M109.8,397.1
		c0-2.3-1.4-3.3-2.9-3.3c-1.8,0-2.9,1.2-2.9,3.4c0,1.7,1,3.1,2.9,3.1C108.5,400.3,109.8,399.4,109.8,397.1z M108.8,397.1
		c0,1.5-0.7,2.4-1.8,2.4c-1.2,0-1.9-0.9-1.9-2.4c0-1.5,0.7-2.4,1.9-2.4C108,394.7,108.8,395.5,108.8,397.1z M111.5,394H111
		c-0.1,0-0.6,0-0.6,0.4c0,0.4,0.5,0.4,0.6,0.4h0.6v4.7c0,0.6,0.1,0.9,0.5,0.9c0.4,0,0.5-0.3,0.5-0.9v-4.7h0.6c0.2,0,0.6,0,0.6-0.4
		c0-0.4-0.4-0.4-0.6-0.4h-0.6v-0.5c0-0.7,0.1-1.2,0.9-1.2c0.1,0,0.5,0.1,0.6,0.1c0.2,0,0.3-0.2,0.3-0.4c0-0.4-0.5-0.5-1.2-0.5
		c-0.7,0-1.7,0.1-1.7,1.9V394z M82.3,406.4c0-0.4,0-0.6-0.2-0.8c-0.1-0.1-0.3-0.2-0.4-0.2c-0.2,0-0.3,0.1-0.4,0.2
		c-0.2,0.2-0.2,0.4-0.2,0.8v4.5c0,2.5,1.2,3.4,3.5,3.4c2.7,0,3.3-1.7,3.3-3.5v-4.5c0-0.4,0-0.6-0.2-0.8c-0.1-0.1-0.3-0.2-0.4-0.2
		c-0.2,0-0.3,0.1-0.4,0.2c-0.2,0.2-0.2,0.4-0.2,0.8v4.6c0,1-0.2,2.4-2.2,2.4c-2.3,0-2.3-1.7-2.3-2.4V406.4z M94.5,412.4
		c0-1.3-1.3-1.6-2.2-1.8c-1.4-0.3-1.8-0.6-1.8-1.1c0-0.6,0.6-0.9,1.4-0.9c1.5,0,1.3,1.2,1.9,1.2c0.4,0,0.4-0.3,0.4-0.4
		c0-0.2-0.3-1.5-2.4-1.5c-1.6,0-2.3,0.8-2.3,1.8c0,0.5,0.3,0.9,0.5,1.1c0.3,0.3,0.7,0.4,2,0.8c0.6,0.2,1.4,0.3,1.4,1.1
		c0,0.5-0.5,1-1.5,1s-1.4-0.4-1.6-1c-0.1-0.2-0.2-0.4-0.5-0.4c-0.3,0-0.5,0.2-0.5,0.4c0,0.4,0.3,0.8,0.5,1.1c0.4,0.4,1,0.7,2,0.7
		C94.3,414.3,94.5,412.9,94.5,412.4z M100.4,411.3c0.4,0,0.9,0,0.9-0.7c0-0.5-0.3-2.8-2.8-2.8c-2,0-2.9,1.4-2.9,3.2
		c0,1.8,0.9,3.3,3,3.3c2.3,0,2.6-1.6,2.6-1.8c0-0.2-0.2-0.4-0.4-0.4c-0.3,0-0.4,0.2-0.4,0.3c-0.4,0.6-0.7,1.1-1.8,1.1
		c-1,0-1.9-0.6-1.9-2.3H100.4z M96.7,410.6c0.1-0.5,0.3-2,1.8-2c1.4,0,1.7,1.3,1.8,2H96.7z"/>
	<g>
		<defs>
			<rect id="SVGID_7_" x="76" y="342" width="30" height="30"/>
		</defs>
		<clipPath id="SVGID_8_">
			<use xlink:href="#SVGID_7_"  style="overflow:visible;"/>
		</clipPath>
		<g class="st15">
			<path class="st16" d="M82.6,343.9l-1.4-0.6h-1.9c-1.6,0-2.9,1.3-2.9,2.9v0.8c0,0.3,0.2,0.5,0.5,0.5h5.3l1.8-2.6L82.6,343.9z"/>
			<path class="st17" d="M85.1,370.7c-1.6,0-2.9-1.3-2.9-2.9v-16.8v-3.6v-1.3c0-1.6-1.3-2.9-2.9-2.9h20.5c1.6,0,2.9,1.3,2.9,2.9
				v23.3l-17.4,1.2H85.1z"/>
			<path class="st18" d="M105.1,366.5H88.4c-0.3,0-0.5,0.2-0.5,0.5v0.8c0,1.6-1.3,2.9-2.9,2.9h17.6c1.6,0,2.9-1.3,2.9-2.9V367
				C105.6,366.8,105.3,366.5,105.1,366.5z"/>
			<path d="M87.9,349v-0.9c0-0.2-0.2-0.4-0.4-0.4c-0.2,0-0.4,0.2-0.4,0.4v0.9c0,0.2,0.2,0.4,0.4,0.4C87.7,349.5,87.9,349.3,87.9,349
				z"/>
			<path d="M97.9,349v-0.9c0-0.2-0.2-0.4-0.4-0.4c-0.2,0-0.4,0.2-0.4,0.4v0.9c0,0.2,0.2,0.4,0.4,0.4C97.7,349.5,97.9,349.3,97.9,349
				z"/>
			<path d="M92.4,350c0.6,0,1.2-0.3,1.6-0.7c0.2-0.2,0.1-0.5,0-0.6c-0.2-0.2-0.5-0.1-0.6,0c-0.2,0.3-0.5,0.4-0.9,0.4
				c-0.4,0-0.7-0.1-0.9-0.4c-0.2-0.2-0.4-0.2-0.6,0c-0.2,0.2-0.2,0.4,0,0.6C91.3,349.7,91.8,350,92.4,350z"/>
			<path d="M85.9,354c0,0.2,0.2,0.4,0.4,0.4h12.1c0.2,0,0.4-0.2,0.4-0.4s-0.2-0.4-0.4-0.4H86.4C86.1,353.5,85.9,353.7,85.9,354z"/>
			<path d="M86.4,357.1h12.1c0.2,0,0.4-0.2,0.4-0.4c0-0.2-0.2-0.4-0.4-0.4H86.4c-0.2,0-0.4,0.2-0.4,0.4
				C85.9,356.9,86.1,357.1,86.4,357.1z"/>
			<path d="M86.4,359.7h12.1c0.2,0,0.4-0.2,0.4-0.4c0-0.2-0.2-0.4-0.4-0.4H86.4c-0.2,0-0.4,0.2-0.4,0.4
				C85.9,359.5,86.1,359.7,86.4,359.7z"/>
			<path d="M98.5,363.8h-4.6c-0.2,0-0.4,0.2-0.4,0.4c0,0.2,0.2,0.4,0.4,0.4h4.6c0.2,0,0.4-0.2,0.4-0.4C99,364,98.8,363.8,98.5,363.8
				z"/>
		</g>
	</g>
</g>
<g>
	<path class="st0" d="M176,317h106c4.4,0,8,3.6,8,8v106c0,4.4-3.6,8-8,8H176c-4.4,0-8-3.6-8-8V325C168,320.6,171.6,317,176,317z"/>
	<path class="st5" d="M207.7,397.7c0-0.5-0.3-1.3-0.8-1.7c-0.4-0.3-1-0.5-2.4-0.9c-0.8-0.2-1.9-0.5-1.9-1.5c0-0.7,0.7-1.4,1.8-1.4
		c0.5,0,1,0.1,1.3,0.3c0.4,0.3,0.5,0.5,0.6,0.9c0.1,0.3,0.2,0.6,0.6,0.6c0.3,0,0.5-0.3,0.5-0.6c0-0.3-0.1-0.6-0.3-0.9
		c-0.6-1-1.7-1.2-2.6-1.2c-1.5,0-2.9,0.8-2.9,2.4c0,0.9,0.5,1.4,0.8,1.7c0.5,0.4,0.9,0.5,2.5,0.9c0.6,0.1,1.7,0.4,1.7,1.5
		c0,1.1-1.1,1.6-2.1,1.6c-1.5,0-1.9-1-2-1.4c-0.2-0.6-0.3-0.8-0.6-0.8c-0.3,0-0.5,0.2-0.5,0.5c0,0.5,0.3,1.2,0.8,1.7
		c0.6,0.7,1.6,0.8,2.4,0.8C206.6,400.4,207.7,399.1,207.7,397.7z M209.1,398c0,0.5,0,0.9,0.3,1.4c0.3,0.7,1.2,0.9,1.8,0.9
		c1.2,0,1.7-0.7,2-1.1c0,0.9,0.1,1.1,0.5,1.1c0.4,0,0.5-0.3,0.5-0.8v-4.8c0-0.6-0.1-0.9-0.5-0.9c-0.4,0-0.5,0.3-0.5,0.9v1.9
		c0,1.4-0.1,1.6-0.3,1.9c-0.3,0.5-0.9,0.9-1.5,0.9c-0.4,0-0.9-0.2-1.1-0.6c-0.2-0.3-0.2-0.8-0.2-1.2v-2.9c0-0.6-0.1-0.9-0.5-0.9
		c-0.4,0-0.5,0.2-0.5,0.9V398z M217,394.9v-0.4c0-0.2,0-0.7-0.5-0.7c-0.1,0-0.3,0-0.4,0.1c-0.1,0.1-0.1,0.3-0.1,0.7v7.2
		c0,0.4,0,0.9,0.5,0.9c0.5,0,0.5-0.5,0.5-0.9v-2.6c0.1,0.2,0.8,1.1,2.2,1.1c2.1,0,2.7-1.9,2.7-3.2c0-1.2-0.5-3.3-2.8-3.3
		C217.9,393.8,217.3,394.6,217,394.9z M219,394.7c0.8,0,1.9,0.6,1.9,2.5c0,1.4-0.7,2.4-1.9,2.4c-0.6,0-2-0.4-2-2.5
		C217,395.3,218.1,394.7,219,394.7z M224.4,394.9v-0.4c0-0.2,0-0.7-0.5-0.7c-0.1,0-0.3,0-0.4,0.1c-0.1,0.1-0.1,0.3-0.1,0.7v7.2
		c0,0.4,0,0.9,0.5,0.9c0.5,0,0.5-0.5,0.5-0.9v-2.6c0.1,0.2,0.8,1.1,2.2,1.1c2.1,0,2.7-1.9,2.7-3.2c0-1.2-0.5-3.3-2.8-3.3
		C225.3,393.8,224.7,394.6,224.4,394.9z M226.4,394.7c0.8,0,1.9,0.6,1.9,2.5c0,1.4-0.7,2.4-1.9,2.4c-0.6,0-2-0.4-2-2.5
		C224.4,395.3,225.5,394.7,226.4,394.7z M236.3,397.1c0-2.3-1.4-3.3-2.9-3.3c-1.8,0-2.9,1.2-2.9,3.4c0,1.7,1,3.1,2.9,3.1
		C234.9,400.3,236.3,399.4,236.3,397.1z M235.2,397.1c0,1.5-0.7,2.4-1.8,2.4c-1.2,0-1.9-0.9-1.9-2.4c0-1.5,0.7-2.4,1.9-2.4
		C234.5,394.7,235.2,395.5,235.2,397.1z M237.7,399.5c0,0.4,0,0.6,0.2,0.7c0.1,0.1,0.2,0.1,0.4,0.1c0.2,0,0.5-0.1,0.5-0.6v-2.3
		c0-1.4,0.2-2.6,1.3-2.6c0.5,0,0.6,0.2,0.9,0.2c0.2,0,0.4-0.2,0.4-0.5c0-0.4-0.7-0.7-1.2-0.7c-0.8,0-1.1,0.5-1.5,1.1v-0.5
		c0-0.3,0-0.7-0.4-0.7c-0.5,0-0.5,0.4-0.5,0.7V399.5z M243.1,394h-0.3c-0.1,0-0.6,0-0.6,0.4c0,0,0,0.4,0.5,0.4h0.4v3.8
		c0,0.8,0,1.8,1.5,1.8c0.6,0,1.2-0.1,1.2-0.5c0-0.2-0.2-0.4-0.4-0.4c-0.1,0-0.5,0.1-0.6,0.1c-0.6,0-0.6-0.4-0.6-1.1v-3.7h0.6
		c0.3,0,0.6-0.1,0.6-0.4c0-0.4-0.4-0.4-0.6-0.4h-0.6v-1.1c0-0.4,0-0.9-0.5-0.9c-0.2,0-0.4,0.1-0.4,0.2c-0.1,0.2-0.1,0.3-0.1,0.7V394
		z M255.6,398.3c0.2-0.3,0.8-1.4,0.8-1.8c0-0.3-0.2-0.5-0.5-0.5c-0.2,0-0.3,0.1-0.4,0.3c-0.1,0.2-0.5,1-0.6,1.2
		c-0.5-0.5-0.6-0.7-1.8-2.1c1.1-0.6,1.8-1.2,1.8-2.1c0-0.7-0.5-1.9-2.1-1.9c-1.5,0-2.1,1.1-2.1,1.9c0,0.6,0.3,1.2,0.9,1.9
		c-0.9,0.5-2,1.1-2,2.5c0,1.1,0.9,2.5,2.8,2.5c1.4,0,2-0.7,2.5-1.2c0.1,0.1,0.3,0.3,0.7,0.7c0.6,0.5,0.7,0.5,0.8,0.5
		c0.2,0,0.5-0.2,0.5-0.5c0-0.2-0.1-0.3-0.3-0.5C256.1,398.8,256.1,398.7,255.6,398.3z M252.2,396c0.4,0.6,1.5,1.8,2.1,2.4
		c-0.2,0.3-0.8,1.1-1.8,1.1c-1,0-1.7-0.9-1.7-1.8S251.5,396.4,252.2,396z M252.6,394.8c-0.1-0.1-0.4-0.6-0.5-0.7
		c-0.1-0.2-0.3-0.5-0.3-0.8c0-0.5,0.4-1,1.1-1c0.6,0,1.1,0.5,1.1,1C254,394,253.3,394.4,252.6,394.8z M204,406.5h3.6
		c0.4,0,0.8,0,0.8-0.5c0-0.5-0.4-0.5-0.8-0.5h-3.8c-0.9,0-1,0.1-1,1v6.8c0,0.4,0,0.6,0.1,0.8c0.1,0.1,0.3,0.2,0.4,0.2
		c0.2,0,0.3-0.1,0.4-0.2c0.1-0.1,0.2-0.4,0.2-0.8v-3.1h3c0.3,0,0.8,0,0.8-0.5c0-0.5-0.4-0.5-0.8-0.5h-3V406.5z M213.4,411.3
		c0.4,0,0.9,0,0.9-0.7c0-0.5-0.3-2.8-2.8-2.8c-2,0-2.9,1.4-2.9,3.2c0,1.8,0.9,3.3,3,3.3c2.3,0,2.6-1.6,2.6-1.8
		c0-0.2-0.2-0.4-0.4-0.4c-0.3,0-0.4,0.2-0.4,0.3c-0.4,0.6-0.7,1.1-1.8,1.1c-1,0-1.9-0.6-1.9-2.3H213.4z M209.6,410.6
		c0.1-0.5,0.3-2,1.8-2c1.4,0,1.7,1.3,1.8,2H209.6z M220.1,411.3c0.4,0,0.9,0,0.9-0.7c0-0.5-0.3-2.8-2.8-2.8c-2,0-2.9,1.4-2.9,3.2
		c0,1.8,0.9,3.3,3,3.3c2.3,0,2.6-1.6,2.6-1.8c0-0.2-0.2-0.4-0.4-0.4c-0.3,0-0.4,0.2-0.4,0.3c-0.4,0.6-0.7,1.1-1.8,1.1
		c-1,0-1.9-0.6-1.9-2.3H220.1z M216.4,410.6c0.1-0.5,0.3-2,1.8-2c1.4,0,1.7,1.3,1.8,2H216.4z M227,413.3v0.4c0,0.2,0,0.7,0.5,0.7
		c0.1,0,0.3,0,0.4-0.1c0.1-0.1,0.1-0.3,0.1-0.7v-7.2c0-0.4,0-0.9-0.5-0.9c-0.5,0-0.5,0.5-0.5,0.9v2.6c-0.1-0.2-0.8-1.1-2.2-1.1
		c-2.1,0-2.7,1.9-2.7,3.2c0,1.2,0.5,3.3,2.8,3.3C226.2,414.3,226.7,413.6,227,413.3z M225,413.5c-0.8,0-1.9-0.6-1.9-2.5
		c0-1.4,0.7-2.4,1.9-2.4c0.6,0,2,0.4,2,2.5C227,412.9,226,413.5,225,413.5z M230.8,413.3c0.3,0.4,0.9,1.1,2.2,1.1
		c2.3,0,2.8-2.1,2.8-3.3c0-1.3-0.6-3.2-2.7-3.2c-1.4,0-2.1,0.9-2.2,1.1v-2.6c0-0.4,0-0.9-0.5-0.9c-0.5,0-0.5,0.5-0.5,0.9v7.2
		c0,0.3,0,0.6,0.1,0.7c0.1,0.1,0.2,0.1,0.4,0.1c0.5,0,0.5-0.5,0.5-0.7V413.3z M232.8,413.5c-0.9,0-2-0.6-2-2.4c0-2.1,1.4-2.5,2-2.5
		c1.2,0,1.9,1,1.9,2.4C234.7,412.9,233.6,413.5,232.8,413.5z M241.3,413.3c0.1,0.4,0.3,1,0.7,1c0.3,0,0.5-0.2,0.5-0.4
		c0-0.2-0.1-0.5-0.1-0.5c-0.1-0.2-0.2-0.5-0.2-1c0-0.3,0-1.6,0-2c0-1.4-0.2-2.6-2.5-2.6c-2.3,0-2.7,1.3-2.7,1.7
		c0,0.3,0.2,0.4,0.5,0.4c0.3,0,0.4-0.2,0.5-0.5c0.3-0.6,1-0.9,1.8-0.9c1.4,0,1.4,0.8,1.4,1.6c-0.3,0.1-0.4,0.1-0.6,0.2
		c-0.2,0.1-1.5,0.3-1.8,0.3c-0.7,0.1-2,0.4-2,1.8c0,0.9,0.6,1.8,2,1.8C240.2,414.3,241,413.6,241.3,413.3z M241.2,411
		c0,0.7,0,1.3-0.3,1.7c-0.4,0.6-1.2,0.9-1.9,0.9c-0.9,0-1.2-0.6-1.2-1c0-0.2,0.1-0.7,0.8-0.9c0.5-0.1,1.1-0.2,1.8-0.4
		C240.8,411.1,241.1,411,241.2,411z M249.3,412.4c0-0.3-0.3-0.5-0.5-0.5c-0.3,0-0.5,0.4-0.7,0.7c-0.3,0.6-0.9,0.9-1.6,0.9
		c-1.2,0-1.9-0.9-1.9-2.5c0-1.5,0.8-2.4,1.9-2.4c1.1,0,1.5,0.7,1.6,1c0.2,0.4,0.4,0.4,0.5,0.4c0.2,0,0.5-0.2,0.5-0.5
		c0-0.5-0.7-1.8-2.6-1.8c-2.4,0-3,1.8-3,3.3c0,0.9,0.2,1.5,0.4,1.9c0.3,0.5,0.9,1.3,2.6,1.3C248.6,414.3,249.3,412.7,249.3,412.4z
		 M252.7,411l1.9,2.9c0.2,0.3,0.4,0.5,0.6,0.5c0.2,0,0.5-0.2,0.5-0.5c0-0.1,0-0.2-0.3-0.7l-2-2.9l1.6-1.5c0.2-0.2,0.3-0.3,0.3-0.5
		c0-0.2-0.2-0.5-0.5-0.5c-0.2,0-0.2,0-0.6,0.4l-2.5,2.4v-4.2c0-0.7-0.1-0.9-0.5-0.9c-0.5,0-0.5,0.6-0.5,1v7c0,0.5,0,0.9,0.5,0.9
		c0.5,0,0.5-0.5,0.5-0.9v-1.7L252.7,411z"/>
	<g>
		<defs>
			<rect id="SVGID_9_" x="214" y="342" width="30" height="30"/>
		</defs>
		<clipPath id="SVGID_10_">
			<use xlink:href="#SVGID_9_"  style="overflow:visible;"/>
		</clipPath>
		<g class="st19">
			<path class="st20" d="M221.6,344.4c-2.1,1.3-3.9,3-5.2,5.2l1.6,3.3l3.6-0.6c0.7-1.1,1.6-2,2.7-2.7l1.3-3.6L221.6,344.4z"/>
			<path class="st20" d="M224.4,364.3c-1.1-0.7-2-1.6-2.7-2.7l-2.8-1.1l-2.4,3.9c1.3,2.1,3,3.9,5.2,5.2l3.6-1.1L224.4,364.3z"/>
			<path class="st20" d="M236.4,344.4c2.1,1.3,3.9,3,5.2,5.2l-1.6,3.3l-3.6-0.6c-0.7-1.1-1.6-2-2.7-2.7l-1.3-3.6L236.4,344.4z"/>
			<path class="st20" d="M233.6,364.3c1.1-0.7,2-1.6,2.7-2.7l2.8-1.1l2.4,3.9c-1.3,2.1-3,3.9-5.2,5.2l-3.6-1.1L233.6,364.3z"/>
			<path class="st21" d="M218.2,349.6c1.1-1.9,2.7-3.5,4.5-4.8l-1.1-0.4c-2,1.2-3.7,2.8-4.9,4.8c-0.1,0.1-0.2,0.3-0.2,0.4l0.9,1.8
				C217.6,350.8,217.9,350.2,218.2,349.6z"/>
			<path class="st22" d="M236.4,344.4l-2.8,5.2c-1.3-0.8-2.9-1.3-4.6-1.3s-3.3,0.5-4.6,1.3l-2.8-5.2c2.2-1.3,4.7-2,7.4-2
				C231.7,342.4,234.2,343.2,236.4,344.4z"/>
			<path class="st22" d="M243.6,357c0,2.7-0.7,5.2-2,7.4l-5.2-2.8c0.8-1.3,1.3-2.9,1.3-4.6s-0.5-3.3-1.3-4.6l5.2-2.8
				C242.8,351.8,243.6,354.3,243.6,357z"/>
			<path class="st21" d="M218.2,364.4c-0.3-0.5-0.6-1-0.8-1.6l-1,1.6c0.8,1.3,1.8,2.5,2.9,3.6c0.7,0.6,1.4,1.2,2.3,1.6l1.2-0.4
				C220.9,368,219.3,366.3,218.2,364.4z"/>
			<path class="st22" d="M236.4,369.6c-2.2,1.3-4.7,2-7.4,2c-2.7,0-5.2-0.7-7.4-2l2.8-5.2c1.3,0.8,2.9,1.3,4.6,1.3s3.3-0.5,4.6-1.3
				L236.4,369.6z"/>
			<path class="st22" d="M220.4,357c0,1.7,0.5,3.3,1.3,4.6l-5.2,2.8c-1.3-2.2-2-4.7-2-7.4s0.7-5.2,2-7.4l5.2,2.8
				C220.8,353.7,220.4,355.3,220.4,357z"/>
			<path class="st23" d="M216.4,364.4l1.4-0.7c-1-2-1.6-4.3-1.6-6.6s0.6-4.7,1.6-6.6l-1.4-0.7c-1.3,2.2-2,4.7-2,7.4
				c0,0.9,0.1,1.8,0.3,2.7C215,361.3,215.6,362.9,216.4,364.4z"/>
			<path class="st23" d="M222.1,345.3c0.4-0.3,0.9-0.6,1.3-0.9c1.9-1.1,4.1-1.8,6.5-2c-0.1,0-0.1,0-0.2,0c-0.1,0-0.3,0-0.4,0
				c-0.1,0-0.2,0-0.2,0c-1,0-2,0.1-2.9,0.3c-1.6,0.3-3.1,0.9-4.4,1.7L222.1,345.3z"/>
			<path class="st23" d="M229.4,371.6C229.4,371.6,229.4,371.6,229.4,371.6c0.2,0,0.4,0,0.5,0c-2.4-0.1-4.6-0.8-6.5-2
				c-0.4-0.3-0.9-0.6-1.3-0.9l-0.5,0.9c0.1,0,0.1,0.1,0.2,0.1c0.3,0.2,0.6,0.3,0.8,0.4c1.1,0.5,2.2,0.9,3.4,1.1
				c1,0.2,1.9,0.3,2.9,0.3C229.1,371.6,229.3,371.6,229.4,371.6z"/>
			<path d="M225.4,346.2c0.2,0,0.4-0.2,0.4-0.4v-0.7c0-0.2-0.2-0.4-0.4-0.4c-0.2,0-0.4,0.2-0.4,0.4v0.7
				C224.9,346,225.1,346.2,225.4,346.2z"/>
			<path d="M232.6,346.2c0.2,0,0.4-0.2,0.4-0.4v-0.7c0-0.2-0.2-0.4-0.4-0.4c-0.2,0-0.4,0.2-0.4,0.4v0.7
				C232.2,346,232.4,346.2,232.6,346.2z"/>
			<path d="M229,346.6c0.5,0,0.9-0.2,1.2-0.5c0.2-0.2,0.1-0.5,0-0.6c-0.2-0.2-0.5-0.1-0.6,0c-0.1,0.2-0.3,0.2-0.6,0.2
				s-0.4-0.1-0.6-0.2c-0.2-0.2-0.4-0.2-0.6,0c-0.2,0.2-0.2,0.4,0,0.6C228.1,346.4,228.5,346.6,229,346.6z"/>
		</g>
	</g>
</g>
</svg>
