<?xml version="1.0" encoding="utf-8"?>
<!-- Generator: Adobe Illustrator 24.1.2, SVG Export Plug-In . SVG Version: 6.00 Build 0)  -->
<svg version="1.1" id="Слой_1" xmlns="http://www.w3.org/2000/svg" xmlns:xlink="http://www.w3.org/1999/xlink" x="0px" y="0px"
	 viewBox="0 0 124 95" style="enable-background:new 0 0 124 95;" xml:space="preserve">
<style type="text/css">
	.st0{fill:#E84393;}
	.st1{clip-path:url(#SVGID_2_);}
	.st2{fill:#81D4FA;}
	.st3{fill:#B3E5FC;}
	.st4{fill:#85D3FA;}
	.st5{fill:#7024D4;}
	.st6{opacity:0.1;enable-background:new    ;}
	.st7{fill:#404B58;}
</style>
<path class="st0" d="M87.8,24.8c0.5,0.3,0.3,1.8-0.5,3.8c-0.5,1.3-0.1,2.8,1,3.6c1.7,1.3,2.6,2.5,2.3,3.1c-0.3,0.5-1.8,0.3-3.8-0.5
	c-1.3-0.5-2.8-0.1-3.6,1c-1.3,1.7-2.5,2.6-3.1,2.3c-0.5-0.3-0.3-1.8,0.5-3.8c0.5-1.3,0.1-2.8-1-3.6c-1.7-1.3-2.6-2.5-2.3-3.1
	c0.3-0.5,1.8-0.3,3.8,0.5c1.3,0.5,2.8,0.1,3.6-1C86.1,25.4,87.3,24.4,87.8,24.8z"/>
<path class="st0" d="M82.2,14.1c0.9-1.6,0.4-3.6-1.2-4.5c-1.6-0.9-3.6-0.4-4.5,1.2c-0.9,1.6-0.4,3.6,1.2,4.5
	C79.3,16.2,81.3,15.7,82.2,14.1z"/>
<path class="st0" d="M106.5,9.3c0.7,0.4,0.4,2.5-0.7,5.3c-0.7,1.8-0.2,3.8,1.3,5c2.3,1.9,3.6,3.5,3.2,4.2c-0.4,0.8-2.5,0.4-5.3-0.7
	c-1.8-0.7-3.8-0.2-5,1.3c-1.8,2.3-3.5,3.6-4.2,3.2c-0.7-0.4-0.4-2.5,0.7-5.3c0.7-1.8,0.2-3.8-1.3-5c-2.3-1.9-3.6-3.5-3.2-4.2
	c0.4-0.8,2.5-0.4,5.3,0.7c1.8,0.7,3.8,0.2,5-1.3C104.1,10.2,105.7,8.8,106.5,9.3z"/>
<path class="st0" d="M105.8,45.7c0.9-1.6,0.4-3.6-1.2-4.5c-1.6-0.9-3.6-0.4-4.5,1.2c-0.9,1.6-0.4,3.6,1.2,4.5
	C102.9,47.9,104.9,47.3,105.8,45.7z"/>
<path class="st0" d="M117.4,53.9c0.5,0.3,0.3,1.8-0.5,3.8c-0.5,1.3-0.1,2.8,1,3.6c1.7,1.3,2.6,2.5,2.3,3.1c-0.3,0.5-1.8,0.3-3.8-0.5
	c-1.3-0.5-2.8-0.1-3.6,1c-1.3,1.7-2.5,2.6-3.1,2.3c-0.5-0.3-0.3-1.8,0.5-3.8c0.5-1.3,0.1-2.8-1-3.6c-1.7-1.3-2.6-2.5-2.3-3.1
	c0.3-0.5,1.8-0.3,3.8,0.5c1.3,0.5,2.8,0.1,3.6-1C115.6,54.5,116.8,53.6,117.4,53.9z"/>
<g>
	<defs>
		<rect id="SVGID_1_" y="0" width="94.6" height="95"/>
	</defs>
	<clipPath id="SVGID_2_">
		<use xlink:href="#SVGID_1_"  style="overflow:visible;"/>
	</clipPath>
	<g class="st1">
		<path class="st2" d="M17,14.4c-0.6-0.6-1-1.4-1-2.4c0-1.9,1.5-3.4,3.3-3.4h29.5c1.8,0,3.3,1.5,3.3,3.4c0,1.9-1.5,3.4-3.3,3.4H19.4
			C18.5,15.4,17.6,15,17,14.4z"/>
		<path class="st3" d="M34.9,92.5L2.5,59.9c-3.3-3.4-3.3-8.8,0-12.2L42.2,7.9l44.5,44.7L47,92.5C43.7,95.8,38.2,95.8,34.9,92.5z"/>
		<path class="st4" d="M22.2,28l44.5,44.7l2-2L24.1,26L22.2,28z"/>
		<path class="st2" d="M42.2,7.9L27.4,22.8c0,2,0.8,4,2.4,5.5c3.1,3,8,2.9,11-0.1l1.5-1.5c1.1-1.1,2.8-1.1,3.8,0l6.7,6.7
			c1.1,1.1,1.1,2.8,0,3.9l-8.6,8.7c-3.1,3.1-3.2,8.3,0,11.4c3.1,3,8,3,11-0.1l8.8-8.8c1.1-1.1,2.8-1.1,3.8,0l3.1,3.2c0,0,0,0,0,0
			c2,2.2,2,5.6-0.1,7.7L40.6,89.6c-2.4,2.4-6.2,2.4-8.5,0l2.8,2.8c3.3,3.4,8.8,3.4,12.1,0l39.7-39.8L42.2,7.9z"/>
		<path class="st5" d="M78.8,84.9c0,2.2,0.9,4.2,2.3,5.6c1.4,1.4,3.4,2.3,5.6,2.3c4.4,0,7.9-3.5,7.9-7.9V60.4
			c0-7.1-2.8-13.9-7.8-18.9L47.8,2.4c-3.1-3.2-8.3-3.2-11.4,0c-1.9,1.9-2.5,4.6-2.1,7c0.3,1.4-0.2,2.9-1.2,3.9L31.6,15
			c-3.1,3.1-3.2,8.3,0,11.4c3.1,3,8,2.9,11-0.1l1.5-1.5c1.1-1.1,2.8-1.1,3.8,0l6.7,6.7c1.1,1.1,1.1,2.8,0,3.9l-8.6,8.7
			c-3.1,3.1-3.2,8.3,0,11.4c3.1,3,8,3,11-0.1l8.8-8.8c1.1-1.1,2.8-1.1,3.8,0l3.1,3.2c3.9,4.1,6.1,9.6,6.1,15.4L78.8,84.9z"/>
		<path class="st6" d="M47.8,24.8l-2.7-2.7c-1.1-1.1-2.8-1.1-3.8,0l-1.2,1.2c-2.8,2.8-7.1,3.1-10.2,0.8c0.4,0.9,0.9,1.7,1.7,2.4
			c3.1,3,8,3,11-0.1l1.5-1.5C45.1,23.8,46.7,23.8,47.8,24.8z M87.2,42c3.1,4.5,4.8,9.8,4.8,15.4v24.4c0,4.4-3.5,7.9-7.9,7.9
			c-1.7,0-3.4-0.6-4.7-1.5c0.4,0.8,0.9,1.6,1.6,2.3c1.4,1.4,3.4,2.3,5.6,2.3c4.4,0,7.9-3.5,7.9-7.9V60.4C94.6,53.6,91.9,47,87.2,42z
			 M63,43.8l-8.5,8.6c-2.8,2.8-7.1,3.1-10.2,0.8c0.4,0.9,0.9,1.7,1.7,2.4c3.1,3,8,3,11-0.1l8.8-8.8c1-1,2.7-1.1,3.7-0.1l-2.6-2.7
			C65.8,42.7,64.1,42.7,63,43.8z"/>
		<path class="st7" d="M25.3,50.8c-0.4,0-0.7-0.1-1-0.4c-0.5-0.5-0.5-1.4,0-2l1.7-1.7c0.5-0.5,1.4-0.5,2,0c0.5,0.5,0.5,1.4,0,2
			l-1.7,1.7C26.1,50.7,25.7,50.8,25.3,50.8z"/>
		<path class="st7" d="M31.2,63.7c-1.6-1.6-1.6-4.2,0-5.8l2.1-2.1c0.4-0.4,1.1-0.4,1.5,0L39,60c0.4,0.4,0.4,1.1,0,1.5l-2.1,2.1
			C35.3,65.3,32.7,65.3,31.2,63.7z"/>
		<path class="st7" d="M45.3,70.9c-0.4,0-0.7-0.1-1-0.4c-0.5-0.5-0.5-1.4,0-2l1.7-1.7c0.5-0.5,1.4-0.5,2,0c0.5,0.5,0.5,1.4,0,2
			l-1.7,1.7C46,70.8,45.7,70.9,45.3,70.9z"/>
		<path class="st2" d="M3.4,46.9l-0.9,0.9c-3.3,3.4-3.3,8.8,0,12.2l32.4,32.5c3.3,3.4,8.8,3.4,12.1,0l0.9-0.9L3.4,46.9z"/>
	</g>
</g>
</svg>
