<?xml version="1.0" encoding="utf-8"?>
<!-- Generator: Adobe Illustrator 24.1.2, SVG Export Plug-In . SVG Version: 6.00 Build 0)  -->
<svg version="1.1" id="Слой_1" xmlns="http://www.w3.org/2000/svg" xmlns:xlink="http://www.w3.org/1999/xlink" x="0px" y="0px"
	 viewBox="0 0 104 96" style="enable-background:new 0 0 104 96;" xml:space="preserve">
<style type="text/css">
	.st0{fill:#E84393;}
	.st1{clip-path:url(#SVGID_2_);}
	.st2{fill:#E8AFE5;}
	.st3{fill:#E894E4;}
	.st4{fill:#6EE4FF;}
	.st5{fill:#61CAFF;}
	.st6{fill:#FFE176;}
	.st7{fill:#4B3F4E;}
</style>
<path class="st0" d="M37.6,48.2c0.6,0.4,0.4,2.1-0.5,4.4c-0.6,1.5-0.1,3.2,1.1,4.1c1.9,1.5,3,2.9,2.6,3.5c-0.4,0.6-2.1,0.4-4.3-0.5
	c-1.5-0.6-3.1-0.1-4.1,1.1c-1.5,1.9-2.9,3-3.5,2.6c-0.6-0.4-0.4-2.1,0.5-4.4c0.6-1.5,0.1-3.2-1.1-4.1c-1.9-1.5-3-2.9-2.6-3.5
	c0.4-0.6,2.1-0.4,4.3,0.5c1.5,0.6,3.1,0.1,4.1-1.1C35.6,48.9,37,47.8,37.6,48.2z"/>
<path class="st0" d="M39.6,17.6c0.4,0.3,0.3,1.5-0.4,3.2c-0.4,1.1-0.1,2.3,0.8,3c1.4,1.1,2.2,2.1,1.9,2.5c-0.3,0.4-1.5,0.3-3.1-0.4
	c-1.1-0.4-2.3-0.1-3,0.8c-1.1,1.4-2.1,2.2-2.5,1.9c-0.4-0.3-0.3-1.5,0.4-3.2c0.4-1.1,0.1-2.3-0.8-3c-1.4-1.1-2.2-2.1-1.9-2.5
	c0.3-0.4,1.5-0.3,3.1,0.4c1.1,0.4,2.3,0.1,3-0.8C38.2,18.1,39.1,17.3,39.6,17.6z"/>
<path class="st0" d="M20.8,45.6c0.7-1.3,0.3-3-1-3.7c-1.3-0.8-3-0.3-3.7,1c-0.7,1.3-0.3,3,1,3.7C18.4,47.3,20.1,46.9,20.8,45.6z"/>
<path class="st0" d="M52.9,10.2c0.7-1.3,0.3-3-1-3.7c-1.3-0.8-3-0.3-3.7,1c-0.7,1.3-0.3,3,1,3.7S52.2,11.5,52.9,10.2z"/>
<path class="st0" d="M23.3,69.8c0.4,0.3,0.3,1.5-0.4,3.2c-0.4,1.1-0.1,2.3,0.8,3c1.4,1.1,2.2,2.1,1.9,2.5c-0.3,0.4-1.5,0.3-3.1-0.4
	c-1.1-0.4-2.3-0.1-3,0.8c-1.1,1.4-2.1,2.2-2.5,1.9c-0.4-0.3-0.3-1.5,0.4-3.2c0.4-1.1,0.1-2.3-0.8-3c-1.4-1.1-2.2-2.1-1.9-2.5
	c0.3-0.4,1.5-0.3,3.1,0.4c1.1,0.4,2.3,0.1,3-0.8C21.9,70.3,22.9,69.5,23.3,69.8z"/>
<g>
	<defs>
		<rect id="SVGID_1_" x="26" y="17.7" width="78" height="78.3"/>
	</defs>
	<clipPath id="SVGID_2_">
		<use xlink:href="#SVGID_1_"  style="overflow:visible;"/>
	</clipPath>
	<g class="st1">
		<path class="st2" d="M65.6,55.1l-8,2.7l-8,8l4.8,2.8l7.9-2.8l8-8L65.6,55.1z"/>
		<path class="st2" d="M51.4,70.7l-9.6,3.1l-8,8l3.3,3.3l9.5-3.3l8-8L51.4,70.7z"/>
		<path class="st2" d="M37,85.2l-10.9,4.7c-0.3,0.8-0.1,1.8,0.6,2.5l2.9,2.9c1,1,2.5,1,3.5,0l5.4-5.4L37,85.2z"/>
		<path class="st3" d="M65.6,55.1L64,55.6l1.4,0.4c0.2,0,0.3,0.2,0.3,0.3l1.4,4.6l3.2-3.3L65.6,55.1z"/>
		<path class="st4" d="M75.4,52.7l-5,5H57.7l11.4-11.4L75.4,52.7z"/>
		<path class="st4" d="M62.4,65.8l-8,8H41.7l8-8H62.4z"/>
		<path class="st4" d="M46.4,81.9l-8,8H26.1c0.1-0.4,0.3-0.7,0.6-1l7-7H46.4z"/>
		<path class="st5" d="M75.4,52.7l-6.4-6.4l-8.3,8.3l4.6,1.4c0.2,0,0.3,0.2,0.3,0.3l0.4,1.4h4.3L75.4,52.7z"/>
		<path class="st6" d="M103,47.1l-4.8-6.4c-1-1.4-1.3-3.2-0.8-4.8l2.6-7.6c1.4-4.1-2.5-8-6.6-6.6l-7.5,2.6c-1.6,0.6-3.4,0.3-4.8-0.8
			l-6.4-4.8c-3.5-2.6-8.4-0.1-8.3,4.3l0.1,8c0,1.7-0.8,3.3-2.2,4.3l-6.5,4.6c-3.5,2.5-2.7,8,1.5,9.3l7.6,2.4
			c1.6,0.5,2.9,1.8,3.4,3.4l2.4,7.6c1.3,4.1,6.7,5,9.2,1.5l4.6-6.5c1-1.4,2.6-2.2,4.3-2.2l8,0.1C103,55.5,105.5,50.6,103,47.1z"/>
		<path class="st7" d="M75,33.4c-0.3,0-0.6-0.1-0.8-0.3c-0.5-0.5-0.5-1.2,0-1.7l1.3-1.3c0.5-0.5,1.2-0.5,1.7,0
			c0.5,0.5,0.5,1.2,0,1.7l-1.3,1.3C75.6,33.3,75.3,33.4,75,33.4z"/>
		<path class="st7" d="M89.5,47.9c-0.3,0-0.6-0.1-0.8-0.3c-0.5-0.5-0.5-1.2,0-1.7l1.3-1.3c0.5-0.5,1.2-0.5,1.7,0
			c0.5,0.5,0.5,1.2,0,1.7l-1.3,1.3C90.1,47.8,89.8,47.9,89.5,47.9z"/>
		<path class="st7" d="M83.9,42.4c-1.2,0-2.3-0.5-3.2-1.4c-0.9-0.9-1.4-2.2-1.3-3.5c0-0.7,0.6-1.1,1.3-1.1c0.6,0,1.1,0.6,1.1,1.3
			c0,0.6,0.2,1.2,0.7,1.7c0.5,0.5,1.1,0.7,1.7,0.7c0.6,0,1.2,0.4,1.3,1.1c0,0.7-0.4,1.2-1.1,1.3C84.1,42.4,84,42.4,83.9,42.4z"/>
	</g>
</g>
</svg>
