<?xml version="1.0" encoding="utf-8"?>
<!-- Generator: Adobe Illustrator 24.1.2, SVG Export Plug-In . SVG Version: 6.00 Build 0)  -->
<svg version="1.1" id="Слой_1" xmlns="http://www.w3.org/2000/svg" xmlns:xlink="http://www.w3.org/1999/xlink" x="0px" y="0px"
	 viewBox="0 0 111 104" style="enable-background:new 0 0 111 104;" xml:space="preserve">
<style type="text/css">
	.st0{fill:#E84393;}
	.st1{clip-path:url(#SVGID_2_);}
	.st2{fill:#5B9675;}
	.st3{opacity:0.15;fill:#2C6245;enable-background:new    ;}
	.st4{fill:#F8E47C;}
	.st5{opacity:0.15;fill:#C97B00;enable-background:new    ;}
	.st6{fill:#72CDA2;}
	.st7{fill:#FFFFFF;}
	.st8{opacity:0.1;enable-background:new    ;}
	.st9{fill:#E38892;}
	.st10{fill:#495059;}
</style>
<g>
	<path class="st0" d="M38.1,48.9c0.6,0.4,0.4,2.1-0.5,4.4c-0.6,1.5-0.1,3.2,1.1,4.2c1.9,1.6,3,2.9,2.7,3.6c-0.4,0.6-2.1,0.4-4.4-0.6
		c-1.5-0.6-3.2-0.1-4.2,1.1c-1.5,2-2.9,3-3.5,2.7c-0.6-0.4-0.4-2.1,0.5-4.4c0.6-1.5,0.1-3.2-1.1-4.2c-1.9-1.6-3-2.9-2.7-3.6
		c0.4-0.6,2.1-0.4,4.4,0.6c1.5,0.6,3.2,0.1,4.2-1.1C36.1,49.6,37.5,48.5,38.1,48.9z"/>
	<path class="st0" d="M40.2,17.8c0.5,0.3,0.3,1.5-0.4,3.2c-0.4,1.1-0.1,2.3,0.8,3c1.4,1.1,2.2,2.1,1.9,2.6c-0.3,0.5-1.5,0.3-3.2-0.4
		c-1.1-0.4-2.3-0.1-3,0.8c-1.1,1.4-2.1,2.2-2.6,1.9c-0.5-0.3-0.3-1.5,0.4-3.2c0.4-1.1,0.1-2.3-0.8-3c-1.4-1.1-2.2-2.1-1.9-2.6
		c0.3-0.5,1.5-0.3,3.2,0.4c1.1,0.4,2.3,0.1,3-0.8C38.7,18.4,39.7,17.6,40.2,17.8z"/>
	<path class="st0" d="M21.1,46.2c0.8-1.3,0.3-3-1-3.8c-1.3-0.8-3-0.3-3.8,1c-0.8,1.3-0.3,3,1,3.8C18.7,48,20.4,47.6,21.1,46.2z"/>
	<path class="st0" d="M53.7,10.3c0.8-1.3,0.3-3-1-3.8c-1.3-0.8-3-0.3-3.8,1c-0.8,1.3-0.3,3,1,3.8C51.3,12.1,52.9,11.7,53.7,10.3z"/>
	<path class="st0" d="M23.7,70.8c0.5,0.3,0.3,1.5-0.4,3.2c-0.4,1.1-0.1,2.3,0.8,3c1.4,1.1,2.2,2.1,1.9,2.6c-0.3,0.5-1.5,0.3-3.2-0.4
		c-1.1-0.4-2.3-0.1-3,0.8c-1.1,1.4-2.1,2.2-2.6,1.9c-0.5-0.3-0.3-1.5,0.4-3.2c0.4-1.1,0.1-2.3-0.8-3c-1.4-1.1-2.2-2.1-1.9-2.6
		c0.3-0.5,1.5-0.3,3.2,0.4c1.1,0.4,2.3,0.1,3-0.8C22.2,71.3,23.2,70.5,23.7,70.8z"/>
	<g>
		<defs>
			<rect id="SVGID_1_" x="27.9" y="16.6" width="79.1" height="79.4"/>
		</defs>
		<clipPath id="SVGID_2_">
			<use xlink:href="#SVGID_1_"  style="overflow:visible;"/>
		</clipPath>
		<g class="st1">
			<path class="st2" d="M34.4,96c1.7,0,3.4-0.6,4.6-1.9l26.1-26.2c2.6-2.6,2.6-6.8,0-9.3c-2.6-2.6-6.7-2.6-9.3,0L29.8,84.7
				c-2.6,2.6-2.6,6.8,0,9.3C31.1,95.4,32.8,96,34.4,96z"/>
			<path class="st3" d="M28.7,92.7c10.5-3.2,18.5-12.5,21.4-17.8c0.4-0.8,0.3-1.7-0.3-2.4c-1.3-1.4-2.5-2.8-3.5-4.4l9.5-9.5
				c2.6-2.6,6.9-2.7,9.5,0c2.5,2.6,2.4,6.7-0.1,9.2L39.1,94.1c-1.3,1.3-3,1.9-4.6,1.9c-1.7,0-3.4-0.6-4.6-1.9
				C29.4,93.6,29,93.2,28.7,92.7z"/>
			<path class="st4" d="M39.1,94.1c-1.3,1.3-3,1.9-4.6,1.9c-1.7,0-3.4-0.6-4.6-1.9c-2.6-2.6-2.6-6.8,0-9.3l4.9-4.9
				c3.1,3.1,6.5,6.5,9.3,9.3L39.1,94.1z"/>
			<path class="st5" d="M43.9,89.2l-4.9,4.9c-1.3,1.3-3,1.9-4.6,1.9c-1.7,0-3.4-0.6-4.6-1.9c-0.4-0.4-0.8-0.9-1.1-1.4
				c4.5-1.4,8.6-3.9,12-6.8C41.8,87.1,42.9,88.2,43.9,89.2z"/>
			<path class="st6" d="M75.8,79.1c-17.2,0-31.2-14-31.2-31.3c0-17.3,13.9-31.3,31.2-31.3s31.2,14,31.2,31.3
				C107,65.1,93.1,79.1,75.8,79.1z"/>
			<path class="st3" d="M75.8,79.1c-11.6,0-21.7-6.3-27.1-15.8c38.3,17,51.4-27,31.7-46.5c15,2.3,26.5,15.3,26.5,30.9
				C107,65.1,93.1,79.1,75.8,79.1z"/>
			<path class="st7" d="M75.8,70.2c-12.3,0-22.3-10-22.3-22.4c0-12.4,10-22.4,22.3-22.4s22.3,10,22.3,22.4
				C98.1,60.2,88.1,70.2,75.8,70.2z"/>
			<path class="st8" d="M75.8,25.5c4.2,0,8.2,1.2,11.6,3.3c-13.4-3.4-32.1,3.8-32.8,26c-0.7-2.2-1.1-4.5-1.1-6.9
				C53.6,35.5,63.5,25.5,75.8,25.5z"/>
			<path class="st4" d="M79.4,34.4c9,0,16.6,6.2,18.7,14.6c-0.6,11.8-10.3,21.2-22.3,21.2c-3.4,0-6.6-0.8-9.5-2.1
				c-3.9-3.5-6.3-8.7-6.3-14.3C60.1,43,68.7,34.4,79.4,34.4z"/>
			<path class="st9" d="M90.7,60.7c-2.3,0-4.2-1.5-4.2-3.4s1.9-3.4,4.2-3.4c2.3,0,4.2,1.5,4.2,3.4S93.1,60.7,90.7,60.7z"/>
			<path class="st9" d="M68,60.7c-2.3,0-4.2-1.5-4.2-3.4S65.7,54,68,54c2.3,0,4.2,1.5,4.2,3.4S70.3,60.7,68,60.7z"/>
			<path class="st10" d="M90,54.6c0.6,0,1.2-0.5,1.2-1.2v-1.8c0-0.6-0.5-1.2-1.2-1.2s-1.2,0.5-1.2,1.2v1.8
				C88.9,54,89.4,54.6,90,54.6z"/>
			<path class="st10" d="M79.4,57.8c1.7,0,3-1.4,3-3.1v-2.2c0-0.5-0.4-0.8-0.8-0.8h-4.4c-0.5,0-0.8,0.4-0.8,0.8v2.2
				C76.3,56.5,77.7,57.8,79.4,57.8z"/>
			<path class="st10" d="M68.7,54.6c0.6,0,1.2-0.5,1.2-1.2v-1.8c0-0.6-0.5-1.2-1.2-1.2c-0.6,0-1.2,0.5-1.2,1.2v1.8
				C67.5,54,68.1,54.6,68.7,54.6z"/>
			<path class="st5" d="M86.7,35.8c5.6,2.3,9.9,7.2,11.4,13.2c-0.6,11.8-10.3,21.2-22.3,21.2c-3.4,0-6.6-0.8-9.5-2.1
				c-0.2-0.2-0.3-0.3-0.5-0.5C97.9,73.1,98.3,45.4,86.7,35.8z"/>
		</g>
	</g>
</g>
</svg>
