<svg xmlns="http://www.w3.org/2000/svg" viewBox="0 0 24 19.37"><defs><style>.cls-1{fill:#3a484a;}.cls-2{fill:#506366;}.cls-3{fill:#7cb777;}.cls-4{fill:#efedee;}.cls-5{fill:#85e7ff;}.cls-6{fill:#57d0e6;}.cls-7{fill:#fadc60;}.cls-8{fill:#f2c42c;}</style></defs><g id="Слой_2" data-name="Слой 2"><g id="Слой_1-2" data-name="Слой 1"><path class="cls-1" d="M21.83,12.77a4.21,4.21,0,0,1-3.21,2.41c-2.55.51-3.3-3.67-3.3-3.67L17,9.69l2.64.25,2.17,1.65Z"/><path class="cls-2" d="M19.08,4,16.82,5.51l-1.5,6H17a5.22,5.22,0,0,1,5.23,1.7.65.65,0,0,0,1.09-.14C24.59,10.23,24.53,4,19.08,4Z"/><path class="cls-3" d="M12.77,0c.69,1.06-.65,2.07-1.2,2.41l-.21.13v1L12.78,5l3,.42,2.57-.14A12.89,12.89,0,0,1,19.08,4C18.27,1.94,16.53,0,12.77,0Z"/><path class="cls-4" d="M18.35,5.29a6.22,6.22,0,0,0-7-2.74l-1.66,2L8,12.45l2,.17h0l-.75,3.71,4.05.87,4.21-.87,1.09-1.15C15.73,12,17.29,7.48,18.35,5.29Z"/><path class="cls-5" d="M12.77,0C5.81,0,1.17,7,.19,15.83L1.79,17l5.55-6.65,4-7.82h0C11.42,2.51,13.61,1.3,12.77,0Z"/><path class="cls-6" d="M2,16.71c0-.3,0-.59.08-.88C3,7.81,6.93,1.29,12.86.17l0-.08h0L12.77,0C5.81,0,1.17,7,.19,15.83L1.79,17Z"/><path class="cls-7" d="M18.45,18,12,15.66l-1.74-2.21L10,12.62h0a3.06,3.06,0,0,1,.43-3.37l0,0c2.67-3,3.3-6.68.88-6.68C3.72,4.73,5,15.12.19,15.83A34.22,34.22,0,0,0,0,19.37H19.46Z"/><path class="cls-2" d="M19.46,19.37c-9.7,0-9.44-6.75-9.44-6.75h0a3,3,0,0,0,.91,1.08,9.69,9.69,0,0,0,7.69,1.48S19.46,15.69,19.46,19.37Z"/><path class="cls-1" d="M13.45,8a.36.36,0,0,1-.32-.51,1.47,1.47,0,0,1,.93-.81,1.51,1.51,0,0,1,1.23.15.36.36,0,0,1,.11.5.37.37,0,0,1-.5.12.77.77,0,0,0-.63-.08.75.75,0,0,0-.48.42A.39.39,0,0,1,13.45,8Z"/><path class="cls-8" d="M2.29,14.61a3.36,3.36,0,0,1-2.1,1.22A34.22,34.22,0,0,0,0,19.37H1.93a34.22,34.22,0,0,1,.19-3.54C2.17,15.42,2.22,15,2.29,14.61Z"/></g></g></svg>