<svg xmlns="http://www.w3.org/2000/svg" viewBox="0 0 23.21 24"><defs><style>.cls-1{fill:#ffcd00;}.cls-2{fill:#ffeb99;}.cls-3{fill:#ffde55;}.cls-4{fill:#ff7956;}.cls-5{fill:#ff6243;}.cls-6{fill:#d7f3ff;}.cls-7{fill:#bdebff;}.cls-8{fill:#ff9478;}.cls-9{fill:#444346;}.cls-10{fill:#f46262;}</style></defs><g id="Слой_2" data-name="Слой 2"><g id="Слой_1-2" data-name="Слой 1"><path class="cls-1" d="M11.6,3.82c0,2.11-4,3.83-6.11,3.83A3.83,3.83,0,0,1,5.49,0C7.6,0,11.6,1.71,11.6,3.82Z"/><path class="cls-1" d="M21.54,3.82a3.83,3.83,0,0,1-3.82,3.83c-2.11,0-6.12-1.72-6.12-3.83S15.61,0,17.72,0A3.82,3.82,0,0,1,21.54,3.82Z"/><path class="cls-2" d="M14.21,8.63H9V3.89a2.61,2.61,0,0,1,5.21,0Z"/><path class="cls-3" d="M14.21,3.89c0-.05,0-.1,0-.15H9a.76.76,0,0,0,0,.15V8.63h5.2V3.89Z"/><path class="cls-4" d="M21,24H2.22a.79.79,0,0,1-.79-.8V9.43a.79.79,0,0,1,.79-.8H21a.8.8,0,0,1,.8.8V23.2A.8.8,0,0,1,21,24Z"/><path class="cls-5" d="M21,8.63H2.22a.79.79,0,0,0-.79.8v3.18H21.78V9.43A.8.8,0,0,0,21,8.63Z"/><path class="cls-6" d="M16.91,19.92a2.7,2.7,0,0,0-2.7,2.7A2.66,2.66,0,0,0,14.58,24h4.66a2.66,2.66,0,0,0,.37-1.38A2.7,2.7,0,0,0,16.91,19.92Z"/><path class="cls-6" d="M21.78,10.65a2.76,2.76,0,0,0-1.28-.32,2.71,2.71,0,0,0,0,5.41,2.76,2.76,0,0,0,1.28-.32Z"/><path class="cls-7" d="M17.83,12.61h4v-2a2.76,2.76,0,0,0-1.28-.32A2.7,2.7,0,0,0,17.83,12.61Z"/><path class="cls-2" d="M7.78,8.63h7.64V24H7.78Z"/><path class="cls-3" d="M7.78,8.63h7.64v4H7.78Z"/><path class="cls-3" d="M7.78,8.63H10.2V24H7.78Z"/><path class="cls-5" d="M3.84,23.2V9.43a.8.8,0,0,1,.8-.8H2.22a.79.79,0,0,0-.79.8V23.2a.79.79,0,0,0,.79.8H4.64A.8.8,0,0,1,3.84,23.2Z"/><path class="cls-8" d="M22.41,11.17H.8a.8.8,0,0,1-.8-.8V6.9a.8.8,0,0,1,.8-.8H22.41a.8.8,0,0,1,.8.8v3.47A.8.8,0,0,1,22.41,11.17Z"/><path class="cls-4" d="M2.41,10.37V6.9a.8.8,0,0,1,.8-.8H.8a.8.8,0,0,0-.8.8v3.47a.8.8,0,0,0,.8.8H3.21A.8.8,0,0,1,2.41,10.37Z"/><path class="cls-2" d="M17.67,11.17H5.54V6.07a.87.87,0,0,1,.87-.88H16.79a.87.87,0,0,1,.88.88Z"/><path class="cls-9" d="M11.6,9.32a.83.83,0,0,1-.83-.83V8a.15.15,0,0,1,.15-.14h1.37a.14.14,0,0,1,.14.14v.48A.83.83,0,0,1,11.6,9.32Z"/><path class="cls-3" d="M8.66,5.19H6.25a.71.71,0,0,0-.71.72v5.26H8V5.91A.71.71,0,0,1,8.66,5.19Z"/><path class="cls-9" d="M15.42,7.81a.34.34,0,0,1-.3-.17.5.5,0,0,0-.88,0,.36.36,0,0,1-.48.13.35.35,0,0,1-.13-.48,1.21,1.21,0,0,1,2.1,0,.36.36,0,0,1-.13.48A.39.39,0,0,1,15.42,7.81Z"/><path class="cls-9" d="M9.27,7.81A.34.34,0,0,1,9,7.64a.5.5,0,0,0-.88,0,.36.36,0,0,1-.48.13.35.35,0,0,1-.13-.48,1.21,1.21,0,0,1,2.1,0,.36.36,0,0,1-.13.48A.39.39,0,0,1,9.27,7.81Z"/><path class="cls-10" d="M15,9.3H14.4A.35.35,0,0,1,14.05,9a.35.35,0,0,1,.35-.35H15A.34.34,0,0,1,15.3,9,.35.35,0,0,1,15,9.3Z"/><path class="cls-10" d="M8.8,9.3H8.25A.35.35,0,0,1,7.9,9a.35.35,0,0,1,.35-.35H8.8A.34.34,0,0,1,9.15,9,.35.35,0,0,1,8.8,9.3Z"/><path class="cls-6" d="M3.21,14.32A2.67,2.67,0,0,0,1.43,15v4.06a2.68,2.68,0,0,0,1.78.68,2.71,2.71,0,1,0,0-5.41Z"/><path class="cls-7" d="M3.84,19.65V14.39a2.59,2.59,0,0,0-.63-.07A2.67,2.67,0,0,0,1.43,15v4.06a2.68,2.68,0,0,0,1.78.68A2.59,2.59,0,0,0,3.84,19.65Z"/></g></g></svg>