<svg xmlns="http://www.w3.org/2000/svg" xmlns:xlink="http://www.w3.org/1999/xlink" viewBox="0 0 24 19.51"><defs><style>.cls-1{fill:none;}.cls-2{clip-path:url(#clip-path);}.cls-3{fill:#3a484a;}.cls-4{fill:#506366;}.cls-5{fill:#7cb777;}.cls-6{fill:#efedee;}.cls-7{fill:#85e7ff;}.cls-8{fill:#57d0e6;}.cls-9{fill:#fadc60;}.cls-10{fill:#f2c42c;}</style><clipPath id="clip-path" transform="translate(0 -2.25)"><rect class="cls-1" width="24" height="24"/></clipPath></defs><g id="Слой_2" data-name="Слой 2"><g id="Слой_1-2" data-name="Слой 1"><g class="cls-2"><path class="cls-3" d="M21.54,14.7a1.16,1.16,0,0,1-.12.55,4.24,4.24,0,0,1-3,2.08c-1.58.32-2.45-1.23-2.87-2.39a2,2,0,0,1,.5-2.06,2.41,2.41,0,0,1,2-.76l.43,0a3.33,3.33,0,0,1,1.68.66l.69.52A1.72,1.72,0,0,1,21.54,14.7Z" transform="translate(0 -2.25)"/><path class="cls-4" d="M20.06,6.57a2.85,2.85,0,0,0-2.17.56l-.08,0a3.61,3.61,0,0,0-1.46,2.1l-.75,3a1.2,1.2,0,0,0,1.16,1.5l.21,0a5.06,5.06,0,0,1,5,1.67A.63.63,0,0,0,23,15.28C24.12,12.75,24.16,7.42,20.06,6.57Z" transform="translate(0 -2.25)"/><path class="cls-5" d="M15.61,3.09c-1.17-.46-3,1.17-4,1.85a.44.44,0,0,0-.21.37v.32a1,1,0,0,0,.28.69l.46.48a2.67,2.67,0,0,0,1.54.79l1.65.23a2.9,2.9,0,0,0,.72,0l1.36-.07a2.1,2.1,0,0,0,1.3-1c.21-.37.09-.54-.1-.92A5.56,5.56,0,0,0,15.61,3.09Z" transform="translate(0 -2.25)"/><path class="cls-6" d="M17,11.28c.41-2.31.54-5-1.6-6a5.55,5.55,0,0,0-2.6-.47,3.36,3.36,0,0,0-2.31,1.35,4.64,4.64,0,0,0-.93,1.95l-1.1,5.12a1.31,1.31,0,0,0,1.17,1.57l.47,0h0l-.19.93A2.77,2.77,0,0,0,12,19l.57.12a3.21,3.21,0,0,0,1.38,0l3-.62a1.25,1.25,0,0,0,.66-.37,1.45,1.45,0,0,0,.1-1.75A7.24,7.24,0,0,1,17,11.28Z" transform="translate(0 -2.25)"/><path class="cls-7" d="M11.93,4.7c1.24-1-.15-2.18-1.66-1.78C5.07,4.32,1.6,10.1.63,17.24a1.23,1.23,0,0,0,.5,1.16,1.25,1.25,0,0,0,1.72-.21l4.06-4.85a7.48,7.48,0,0,0,1-1.47l3.5-6.8h0A5.3,5.3,0,0,0,11.93,4.7Z" transform="translate(0 -2.25)"/><path class="cls-8" d="M2.27,18.89a.36.36,0,0,0,.07-.17c0-.25.05-.5.07-.75C3.27,10.21,7,3.91,12.76,2.78a.06.06,0,0,0,0-.09h0a.14.14,0,0,0-.13-.08C6.14,2.66,1.74,9.06.63,17.24a1.23,1.23,0,0,0,.5,1.16l.73.54A.31.31,0,0,0,2.27,18.89Z" transform="translate(0 -2.25)"/><path class="cls-9" d="M18.39,20.23a.68.68,0,0,0-.34-.26l-4.58-1.64A5.56,5.56,0,0,1,11,16.55l-.62-.78a.91.91,0,0,1-.13-.26l-.17-.66h0a3,3,0,0,1,.42-3.27l0,0A8.67,8.67,0,0,0,12.84,6.9c.11-1.79-2.43-1.71-3.9-.68-4.15,2.94-4.35,9.21-7,11.18a3,3,0,0,0-1.5,2,1.87,1.87,0,0,0,1.89,2H17.8A.73.73,0,0,0,18.39,20.23Z" transform="translate(0 -2.25)"/><path class="cls-4" d="M18.57,17.5c1,1.39-.72,4-2.38,3.63-6.31-1.24-6.11-6.27-6.11-6.28h0A3,3,0,0,0,11,15.9a9,9,0,0,0,6.31,1.58C18,17.42,18.15,16.88,18.57,17.5Z" transform="translate(0 -2.25)"/><path class="cls-10" d="M2.41,18c0-.35-.44-.59-.74-.41a2.83,2.83,0,0,1-.71.31.64.64,0,0,0-.47.53c-.06.68-.1,1.37-.12,2.06a.91.91,0,0,0,.92.94,1,1,0,0,0,1-.94C2.27,19.62,2.32,18.78,2.41,18Z" transform="translate(0 -2.25)"/><path d="M13.27,10.35a.35.35,0,0,0,.46-.17.75.75,0,0,1,.47-.4.74.74,0,0,1,.62.07.35.35,0,0,0,.48-.11.35.35,0,0,0-.11-.49,1.47,1.47,0,0,0-2.1.64A.35.35,0,0,0,13.27,10.35Z" transform="translate(0 -2.25)"/><path d="M22.18,7.21c-1.54-1.32-3.45-2.5-5.09-3.71a7.17,7.17,0,0,0-4.34-1.25,9.67,9.67,0,0,0-3.95.82A10.93,10.93,0,0,0,5.5,5.35a18.19,18.19,0,0,0-4.37,7.83.35.35,0,0,0,.24.44.36.36,0,0,0,.43-.24A17.59,17.59,0,0,1,6,5.85,9.42,9.42,0,0,1,12.54,3s0,.14,0,.15c.06.49-.38.91-.71,1.2h0a4.22,4.22,0,0,1-.59.42.94.94,0,0,1-.15.06,8.81,8.81,0,0,0-1.29.5l-.45.24A.37.37,0,0,0,9.26,6a.35.35,0,0,0,.48.13l.49-.25a6.13,6.13,0,0,1,.8-.33,1.23,1.23,0,0,1,.8-.06,1.13,1.13,0,0,1,.66,1.17,4.38,4.38,0,0,1-.32,1.57,12.28,12.28,0,0,1-2.05,3.26,3.28,3.28,0,0,0-.39,3.43h0A6.34,6.34,0,0,0,11,18.49,7.48,7.48,0,0,0,14.5,21s0,0,0,0H2.34A1.54,1.54,0,0,1,.77,19.42c0-.39,0-.77.09-1.15h0a4.11,4.11,0,0,0,2.38-1.79A18.9,18.9,0,0,0,4.9,13c.88-2.14,1.86-4.57,3.77-6.16a.36.36,0,0,0,0-.49.35.35,0,0,0-.49,0c-2,1.7-3.06,4.22-4,6.43a15.77,15.77,0,0,1-1.69,3.45h0A3.31,3.31,0,0,1,1,17.5s0,0,0,0A25.36,25.36,0,0,1,1.4,15a.35.35,0,0,0-.27-.42.34.34,0,0,0-.42.26,28.38,28.38,0,0,0-.52,3.13A30.52,30.52,0,0,0,0,21.4a.35.35,0,0,0,.35.35h18.9a.35.35,0,0,0,.35-.35v0A15.74,15.74,0,0,0,19.44,19a2.28,2.28,0,0,1,1-2.14,4.53,4.53,0,0,0,1.2-1.23,0,0,0,0,1,.07,0,1,1,0,0,0,1.65-.22,9,9,0,0,0,.68-3.5,7,7,0,0,0-1-3.75A4.33,4.33,0,0,0,22.18,7.21ZM18.34,21a12.07,12.07,0,0,1-4-.81,6.7,6.7,0,0,1-1.9-1.15,5.88,5.88,0,0,1-1.85-3s0,0,0,0a1.13,1.13,0,0,0,.13.1,8.84,8.84,0,0,0,1.57.92,9.56,9.56,0,0,0,3.92.78,12.29,12.29,0,0,0,1.6-.11.6.6,0,0,1,.64.34v0a7.77,7.77,0,0,1,.37,2.34A.51.51,0,0,1,18.34,21Zm-7.66-9.12A19.39,19.39,0,0,0,12,10.12a6.9,6.9,0,0,0,1.17-3.38A2.36,2.36,0,0,0,13,5.68l-.06-.12a.26.26,0,0,1,.19-.4,5.12,5.12,0,0,1,2.25.52,6.35,6.35,0,0,1,1.27.84,6.5,6.5,0,0,1,1.11,1.23v0a.37.37,0,0,0-.05.11,12.63,12.63,0,0,0-1.23,4.73c0,.11,0,.22,0,.34a7.13,7.13,0,0,0,.54,2.8,1,1,0,0,1-.76,1.42,9,9,0,0,1-3.58-.7,4.22,4.22,0,0,1-2.27-1.79A2.65,2.65,0,0,1,10.68,11.91ZM18.4,6.25a.26.26,0,0,1,0,.28.41.41,0,0,1-.64.1A7.69,7.69,0,0,0,17.13,6a6.88,6.88,0,0,0-1.52-1,5.94,5.94,0,0,0-2.48-.55h-.34a0,0,0,0,1,0-.06h0a2.44,2.44,0,0,0,.42-.67c.15-.38.47-.76.87-.7A5.37,5.37,0,0,1,18.4,6.25Zm.15,10.69s-.06-.08-.07-.09a5.81,5.81,0,0,1-.9-1.6A.89.89,0,0,1,18.49,14a1.43,1.43,0,0,1,.43,2.8Zm4.13-1.8a.28.28,0,0,1-.46.06,5.13,5.13,0,0,0-3.64-1.87,7.73,7.73,0,0,0-1.36,0s0,0,0,0A11.27,11.27,0,0,1,18.43,8a1.69,1.69,0,0,1,2-1,3.66,3.66,0,0,1,2,1.54A7.7,7.7,0,0,1,22.68,15.14Z" transform="translate(0 -2.25)"/></g></g></g></svg>