<svg xmlns="http://www.w3.org/2000/svg" xmlns:xlink="http://www.w3.org/1999/xlink" viewBox="0 0 23.14 24"><defs><style>.cls-1{fill:none;}.cls-2{clip-path:url(#clip-path);}.cls-3{fill:#f0f2ff;}.cls-4{fill:#dbe1ff;}.cls-5{fill:#7f9ae6;}</style><clipPath id="clip-path" transform="translate(-0.43 0)"><rect class="cls-1" width="24" height="24"/></clipPath></defs><g id="Слой_2" data-name="Слой 2"><g id="Слой_1-2" data-name="Слой 1"><g class="cls-2"><path class="cls-3" d="M20.91,19a11.57,11.57,0,1,0-9,4.19,11.44,11.44,0,0,0,3-.38,2.13,2.13,0,0,1,1.62.22,10.32,10.32,0,0,0,2.28,1,1.09,1.09,0,0,0,1.33-1.39,4,4,0,0,1-.05-1.95A3.71,3.71,0,0,1,20.91,19Z" transform="translate(-0.43 0)"/><path class="cls-4" d="M20.16,22.57a4,4,0,0,1-.05-1.95,3.71,3.71,0,0,1,.8-1.67c.69-.83-.29-1.88-1.34-1.66a10.56,10.56,0,0,1-11-4.41C5.91,8.8,1.23,5.09.55,9.93a11.45,11.45,0,0,0-.12,1.56A11.61,11.61,0,0,0,11.88,23.14a11.44,11.44,0,0,0,3-.38,2.13,2.13,0,0,1,1.62.22,10.32,10.32,0,0,0,2.28,1A1.09,1.09,0,0,0,20.16,22.57Z" transform="translate(-0.43 0)"/><path class="cls-5" d="M14.74,16.21a1,1,0,0,1-1-1V8.89a.88.88,0,0,0-1.22-.8,6,6,0,0,1-2,.47l-1.14,0a.5.5,0,0,0-.47.5v.72a.5.5,0,0,0,.5.5h1a.41.41,0,0,1,.41.41v4.45a1,1,0,0,1-1,1,.89.89,0,0,0-.89.9v.36a.89.89,0,0,0,.89.89h5a.89.89,0,0,0,.9-.89v-.36A.9.9,0,0,0,14.74,16.21Z" transform="translate(-0.43 0)"/><path class="cls-5" d="M12.26,6.39a1.47,1.47,0,1,0-1.47-1.46A1.47,1.47,0,0,0,12.26,6.39Z" transform="translate(-0.43 0)"/></g></g></g></svg>