<svg xmlns="http://www.w3.org/2000/svg" viewBox="0 0 17.74 24"><defs><style>.cls-1{fill:#e7896e;}.cls-2{fill:#dd6642;}.cls-3{fill:#b24e2f;}.cls-4{fill:#c2eafb;}.cls-5{fill:#f9ee80;}.cls-6{fill:#29ce69;}.cls-7{fill:#73da8c;}.cls-8{fill:#f2ad9a;}.cls-9{fill:#ffb3c2;}.cls-10{fill:#454545;}</style></defs><g id="Слой_2" data-name="Слой 2"><g id="Слой_1-2" data-name="Слой 1"><path class="cls-1" d="M4.33,9.33l-2,13.24a1.24,1.24,0,0,0,1,1.42,1.26,1.26,0,0,0,1.42-1l2-13.61Z"/><path class="cls-2" d="M6.84,9.33H4.33l-1.21,8a21.62,21.62,0,0,1,2.59-.5Z"/><path class="cls-1" d="M13.41,9.33l2,13.24a1.24,1.24,0,0,1-1,1.42,1.26,1.26,0,0,1-1.42-1l-2-13.61Z"/><path class="cls-2" d="M13.41,9.33H10.89L12,16.86a21.62,21.62,0,0,1,2.59.5Z"/><path class="cls-2" d="M8.87,22.92a1.24,1.24,0,0,1-1.24-1.25V1.24a1.24,1.24,0,1,1,2.48,0V21.67A1.24,1.24,0,0,1,8.87,22.92Z"/><path class="cls-3" d="M10.11,16.69V1.24a1.24,1.24,0,1,0-2.48,0V16.69c.4,0,.82,0,1.24,0S9.7,16.67,10.11,16.69Z"/><path class="cls-4" d="M16.38,13.77h-15V3.83A1.36,1.36,0,0,1,2.73,2.47H15a1.36,1.36,0,0,1,1.37,1.36Z"/><path class="cls-5" d="M12.2,10.08A2.42,2.42,0,1,1,9.78,7.66,2.42,2.42,0,0,1,12.2,10.08Z"/><path class="cls-6" d="M8.87,11.46l3-2.15a2,2,0,0,1,2.45.13l2,1.8v2.53H8.87Z"/><path class="cls-7" d="M1.36,11.46,5.15,8.79a2,2,0,0,1,2.65.26l4.46,4.68H1.36Z"/><path class="cls-8" d="M16.63,15.17H1.11a1.11,1.11,0,0,1,0-2.22H16.63a1.11,1.11,0,0,1,0,2.22Z"/><path class="cls-1" d="M2.62,14.06A1.11,1.11,0,0,1,3.73,13H1.11a1.11,1.11,0,0,0,0,2.22H3.73A1.11,1.11,0,0,1,2.62,14.06Z"/><path class="cls-9" d="M6.17,5.84a.91.91,0,0,0-1-.8.92.92,0,0,0-1,.8.91.91,0,0,0,1,.79A.9.9,0,0,0,6.17,5.84Z"/><path class="cls-9" d="M13.56,5.84a.92.92,0,0,0-1-.8.91.91,0,0,0-1,.8.9.9,0,0,0,1,.79A.91.91,0,0,0,13.56,5.84Z"/><path class="cls-10" d="M11.85,5.7a.36.36,0,0,1-.36-.36v-.6a.36.36,0,0,1,.36-.36.37.37,0,0,1,.37.36v.6A.37.37,0,0,1,11.85,5.7Z"/><path class="cls-10" d="M5.89,5.7a.37.37,0,0,1-.37-.36v-.6a.37.37,0,0,1,.37-.36.36.36,0,0,1,.36.36v.6A.36.36,0,0,1,5.89,5.7Z"/><path class="cls-10" d="M9.12,5a.31.31,0,0,1-.5,0,.36.36,0,0,0-.6.4,1,1,0,0,0,.85.46,1,1,0,0,0,.85-.46.36.36,0,0,0-.1-.5A.36.36,0,0,0,9.12,5Z"/></g></g></svg>