<svg xmlns="http://www.w3.org/2000/svg" viewBox="0 0 23.16 24"><defs><style>.cls-1{fill:#f0f2ff;}.cls-2{fill:#dbe1ff;}.cls-3{fill:#7f9ae6;}</style></defs><g id="Слой_2" data-name="Слой 2"><g id="Слой_1-2" data-name="Слой 1"><path class="cls-1" d="M20.23,18.74a11.23,11.23,0,1,0-8.77,4.07,11.49,11.49,0,0,0,3-.36,2.08,2.08,0,0,1,1.58.21,10.67,10.67,0,0,0,2.21.95,1.06,1.06,0,0,0,1.29-1.35,3.79,3.79,0,0,1,0-1.89A3.57,3.57,0,0,1,20.23,18.74Z"/><path class="cls-2" d="M19.5,22.26a3.79,3.79,0,0,1,0-1.89,3.57,3.57,0,0,1,.77-1.63,11.21,11.21,0,0,0,1.64-2.65C13.18,20.57,2.68,12.52,8.09.91a11.23,11.23,0,0,0,3.37,21.9,11.49,11.49,0,0,0,3-.36,2.08,2.08,0,0,1,1.58.21,10.67,10.67,0,0,0,2.21.95A1.06,1.06,0,0,0,19.5,22.26Z"/><path class="cls-3" d="M13.25,16.09V9a.84.84,0,0,0-1.18-.77,6,6,0,0,1-2,.45L9,8.71a.49.49,0,0,0-.46.49v.69a.49.49,0,0,0,.49.49h1a.4.4,0,0,1,.4.4v5.31h-1a.87.87,0,0,0-.87.87v.35a.86.86,0,0,0,.87.86h4.83a.86.86,0,0,0,.86-.86V17a.87.87,0,0,0-.86-.87Z"/><path class="cls-3" d="M11.83,6.55a1.42,1.42,0,1,0-1.42-1.42A1.42,1.42,0,0,0,11.83,6.55Z"/><path d="M5.15,20.34A11.15,11.15,0,0,1,1.9,16.53a11,11,0,0,1-1.2-5A10.89,10.89,0,0,1,11.58.7a10.69,10.69,0,0,1,4.87,1.17.35.35,0,0,0,.47-.15.36.36,0,0,0-.15-.48A11.55,11.55,0,0,0,3.42,3.36,11.58,11.58,0,0,0,4.74,20.91.31.31,0,0,0,5,21a.35.35,0,0,0,.2-.64Zm4.27-4.6A1.21,1.21,0,0,0,8.2,17v.35a1.22,1.22,0,0,0,1.22,1.22h4.83a1.22,1.22,0,0,0,1.21-1.22V17a1.21,1.21,0,0,0-1.21-1.22H13.6V9a1.2,1.2,0,0,0-1.67-1.1,5.5,5.5,0,0,1-1.83.43L9,8.36a.84.84,0,0,0-.79.84v.69a.84.84,0,0,0,.84.84h1a0,0,0,0,1,.05,0v5ZM10,10H9a.14.14,0,0,1-.14-.14V9.2A.15.15,0,0,1,9,9.06L10.14,9a6.19,6.19,0,0,0,2.07-.48A.49.49,0,0,1,12.9,9v7.11a.35.35,0,0,0,.35.35h1a.51.51,0,0,1,.51.52v.35a.51.51,0,0,1-.51.51H9.42a.51.51,0,0,1-.52-.51V17a.52.52,0,0,1,.52-.52h1a.35.35,0,0,0,.35-.35V10.78A.75.75,0,0,0,10,10ZM20.5,19A11.57,11.57,0,0,0,18.29,2.16a.35.35,0,0,0-.49.09.34.34,0,0,0,.08.49A10.85,10.85,0,0,1,20,18.52a3.87,3.87,0,0,0-.85,1.78,4.28,4.28,0,0,0,.06,2.06.72.72,0,0,1-.87.91,9.73,9.73,0,0,1-2.13-.92,2.41,2.41,0,0,0-1.84-.24,11,11,0,0,1-2.86.35,10.78,10.78,0,0,1-4.92-1.24.35.35,0,0,0-.48.15.35.35,0,0,0,.15.47,11.37,11.37,0,0,0,5.24,1.32,11.58,11.58,0,0,0,3-.37,1.71,1.71,0,0,1,1.31.17,10,10,0,0,0,2.29,1,1.34,1.34,0,0,0,.4.06,1.36,1.36,0,0,0,1-.43,1.4,1.4,0,0,0,.34-1.42,3.38,3.38,0,0,1,0-1.72A3.25,3.25,0,0,1,20.5,19ZM11.83,6.9a1.77,1.77,0,1,0-1.77-1.77A1.77,1.77,0,0,0,11.83,6.9Zm0-2.84a1.07,1.07,0,1,1-1.07,1.07A1.07,1.07,0,0,1,11.83,4.06Z"/></g></g></svg>